<?xml version="1.0" encoding="UTF-8"?> <svg xmlns="http://www.w3.org/2000/svg" width="125" height="60" viewBox="0 0 125 60" fill="none"><rect x="37" y="39.1777" width="3" height="1" fill="#00EE77"></rect><rect x="85" y="39.1777" width="3" height="1" fill="#00EE77"></rect><path d="M44.72 40.5777C44.72 41.0791 44.8187 41.4657 45.016 41.7377C45.2187 42.0044 45.528 42.1377 45.944 42.1377C46.1253 42.1377 46.304 42.1164 46.48 42.0737C46.656 42.0311 46.8667 41.9564 47.112 41.8497L47.344 42.4417C47.0827 42.5591 46.8347 42.6444 46.6 42.6977C46.3653 42.7511 46.1387 42.7777 45.92 42.7777C45.2907 42.7777 44.8133 42.5804 44.488 42.1857C44.1627 41.7911 44 41.2551 44 40.5777V39.3777C44 38.7004 44.1627 38.1644 44.488 37.7697C44.8133 37.3751 45.2907 37.1777 45.92 37.1777C46.1387 37.1777 46.3653 37.2044 46.6 37.2577C46.84 37.3111 47.0827 37.3964 47.328 37.5137L47.104 38.1137C46.672 37.9217 46.2853 37.8257 45.944 37.8257C45.528 37.8257 45.2187 37.9591 45.016 38.2257C44.8187 38.4924 44.72 38.8764 44.72 39.3777V40.5777Z" fill="#00EE77"></path><path d="M54.1279 42.6978L53.7199 41.4338H51.6559L51.2479 42.6978H50.5679L52.3759 37.2578H53.0319L54.8479 42.6978H54.1279ZM52.1599 39.8658L51.8559 40.8018H53.5119L53.2079 39.8658L52.6879 38.1858L52.1599 39.8658Z" fill="#00EE77"></path><path d="M59.3598 42.1537C59.6958 42.1537 59.9545 42.0817 60.1358 41.9377C60.3171 41.7884 60.4078 41.5724 60.4078 41.2897C60.4078 41.0551 60.3438 40.8577 60.2158 40.6977C60.0931 40.5377 59.8905 40.4151 59.6078 40.3297L58.9598 40.1377C58.5545 40.0151 58.2558 39.8311 58.0638 39.5857C57.8718 39.3351 57.7758 39.0284 57.7758 38.6657C57.7758 38.3884 57.8291 38.1377 57.9358 37.9137C58.0478 37.6897 58.2238 37.5111 58.4638 37.3777C58.7091 37.2444 59.0291 37.1777 59.4238 37.1777C59.6638 37.1777 59.9118 37.2071 60.1678 37.2657C60.4238 37.3191 60.6825 37.4071 60.9438 37.5297L60.7198 38.1297C60.4638 38.0177 60.2318 37.9377 60.0238 37.8897C59.8211 37.8364 59.6265 37.8097 59.4398 37.8097C59.1358 37.8097 58.8985 37.8737 58.7278 38.0017C58.5625 38.1244 58.4798 38.3297 58.4798 38.6177C58.4798 38.8257 58.5358 39.0017 58.6478 39.1457C58.7598 39.2844 58.9598 39.3991 59.2478 39.4897L59.8958 39.6817C60.7065 39.9217 61.1118 40.4391 61.1118 41.2337C61.1118 41.6924 60.9731 42.0657 60.6958 42.3537C60.4185 42.6364 59.9731 42.7777 59.3598 42.7777C59.1091 42.7777 58.8425 42.7484 58.5598 42.6897C58.2825 42.6257 57.9945 42.5271 57.6958 42.3937L57.9118 41.8017C58.1945 41.9297 58.4478 42.0204 58.6718 42.0737C58.9011 42.1271 59.1305 42.1537 59.3598 42.1537Z" fill="#00EE77"></path><path d="M65.944 42.6978H65.248V37.2578H65.944V42.6978Z" fill="#00EE77"></path><path d="M70.248 42.6978V37.2578H70.976C71.4614 37.9511 71.9067 38.6498 72.312 39.3538C72.7227 40.0525 73.1067 40.7831 73.464 41.5458L73.384 39.4658V37.2578H74.064V42.6978H73.336C72.9627 41.9191 72.576 41.1618 72.176 40.4258C71.7814 39.6845 71.3494 38.9618 70.88 38.2578L70.928 40.4738V42.6978H70.248Z" fill="#00EE77"></path><path d="M80.9521 39.3777V40.5697C80.9521 41.2471 80.7814 41.7857 80.4401 42.1857C80.1041 42.5804 79.6188 42.7777 78.9841 42.7777C78.3494 42.7777 77.8614 42.5804 77.5201 42.1857C77.1841 41.7857 77.0161 41.2471 77.0161 40.5697V39.3777C77.0161 38.7057 77.1841 38.1724 77.5201 37.7777C77.8614 37.3777 78.3494 37.1777 78.9841 37.1777C79.6188 37.1777 80.1041 37.3777 80.4401 37.7777C80.7814 38.1724 80.9521 38.7057 80.9521 39.3777ZM80.2321 39.3777C80.2321 38.8817 80.1254 38.5004 79.9121 38.2337C79.7041 37.9617 79.3948 37.8257 78.9841 37.8257C78.5788 37.8257 78.2694 37.9617 78.0561 38.2337C77.8428 38.5004 77.7361 38.8817 77.7361 39.3777V40.5697C77.7361 41.0711 77.8428 41.4577 78.0561 41.7297C78.2694 42.0017 78.5788 42.1377 78.9841 42.1377C79.3948 42.1377 79.7041 42.0017 79.9121 41.7297C80.1254 41.4577 80.2321 41.0711 80.2321 40.5697V39.3777Z" fill="#00EE77"></path><mask id="mask0_3845_256" style="mask-type:luminance" maskUnits="userSpaceOnUse" x="20" y="18" width="85" height="19"><path d="M105 18H20V36.1761H105V18Z" fill="white"></path></mask><g mask="url(#mask0_3845_256)"><path d="M66.364 24.9841C72.4357 28.0299 70.7383 35.2354 64.05 36.1238C61.8276 36.4199 56.0726 35.4575 54.9245 33.3671C54.6145 32.8066 57.1715 29.93 57.4039 29.93C57.6751 29.93 60.2497 31.9499 62.3242 31.964C65.138 31.9817 66.487 29.7854 63.2223 28.9817C60.3906 28.2837 55.9881 28.1603 55.2062 24.3848C53.9524 18.3249 62.5355 16.9148 66.8465 18.7479C70.7103 20.3942 67.7197 20.9477 67.7869 22.7173C67.8079 23.2955 68.8962 24.004 68.301 24.6316C67.942 23.6938 64.7861 23.0029 64.652 22.8478C64.4021 22.5658 64.7438 20.3731 64.6101 19.7456C63.6837 19.7279 63.2786 20.7467 62.2995 20.7961C61.2218 20.849 60.7393 19.6821 59.6967 19.7456C59.4537 20.5493 60.1441 21.6351 59.9926 22.2943C59.8412 22.9535 58.5275 23.5775 58.295 24.1133C57.9463 24.9171 59.0487 24.5328 59.3445 24.6316C61.898 25.4776 61.3979 26.7714 61.8064 27.0745C62.6235 27.6774 63.0779 25.2661 63.7928 25.0299C64.7545 24.7091 65.6771 25.5622 66.3676 24.9806L66.364 24.9841Z" fill="#00ED83"></path><path d="M100.963 22.889C104.778 23.3895 106.321 27.3096 102.545 28.9947C104.447 29.9359 104.45 32.2343 105 34.0534C104.02 33.8771 101.453 34.3812 100.766 33.9018C99.7063 33.1615 100.988 29.0898 97.6245 30.2144V34.0569H93.7607V23.4142C93.7607 23.3754 94.2503 22.889 94.2891 22.889C96.2969 22.889 99.0862 22.6422 100.963 22.889ZM97.6245 27.7785C101.569 28.5117 101.587 24.6058 97.6245 25.332V27.7785Z" fill="#00ED83"></path><path d="M92.7081 34.0585C91.5561 33.8752 89.7563 34.3159 88.7281 34.0761C88.1013 33.9281 88.2563 32.1126 88.1294 31.9857C88.0024 31.8587 84.463 31.8799 84.3186 32.0068C84.1391 32.1619 84.0754 33.8717 83.8923 34.0268C83.5893 34.2841 80.462 33.9175 79.7153 34.062C80.5711 32.3206 82.2827 24.3994 83.3675 23.5604C84.0861 23.0034 88.5521 22.9893 89.2177 23.7437C90.5208 25.2208 91.5525 31.9716 92.7046 34.062L92.7081 34.0585ZM87.0905 29.5215C87.143 28.894 86.7697 25.6931 86.2097 25.6896L84.9806 29.5215H87.0869H87.0905Z" fill="#00ED83"></path><path d="M81.469 23.2402V25.6867L77.6053 25.6832V34.0592H73.7419V25.6832L70.2266 25.6867V23.2402H81.469Z" fill="#00ED83"></path><path d="M43.8863 31.6131V23.4134C43.8863 22.9551 45.1823 22.7754 45.6437 22.8882V34.0561L42.8895 33.9962L38.6173 24.9787V34.0526H36.8599V23.4134C36.8599 22.7119 38.8991 22.6696 39.688 23.3958C41.1743 24.7601 42.0654 30.1149 43.8827 31.6166L43.8863 31.6131Z" fill="#00ED83"></path><path d="M29.382 22.9662C35.2673 21.6548 36.5634 26.0719 35.6477 30.9367C35.0419 34.1447 31.534 35.3609 28.6882 33.9825C25.6875 32.5301 25.779 23.7699 29.3855 22.9662H29.382ZM30.4421 24.3586C27.7232 24.9403 27.9838 31.5008 29.1355 32.4879C30.0125 33.2422 32.6223 33.1576 33.3232 32.1142C34.7531 29.9849 34.577 23.4703 30.4457 24.3551L30.4421 24.3586Z" fill="#00ED83"></path><path d="M54.4237 22.8906V24.6356H49.1547V27.4311L53.7228 27.4276V28.9716L49.1512 29.1726V32.6661H54.4201C54.8744 34.2947 53.5889 34.3053 52.1343 34.404C51.0179 34.4816 48.1404 34.5168 47.5663 33.3676C47.1754 32.5815 47.2599 24.3712 47.7213 23.7402C47.8375 23.5816 48.8905 22.8941 48.9751 22.8941H54.4201L54.4237 22.8906Z" fill="#00ED83"></path><path d="M21.4053 23.2401V32.4903C21.4053 33.3681 25.5014 32.9063 26.3255 33.0156V34.0626H21.2292C20.8629 34.0626 20 33.2024 20 32.8393V23.2401C20 23.1696 21.1552 23.286 21.4053 23.2401Z" fill="#00ED83"></path><path d="M66.3638 24.9845C65.6698 25.5626 64.7507 24.7131 63.7892 25.0339C63.0742 25.2735 62.6198 27.6813 61.8027 27.0785C61.3907 26.7753 61.8943 25.4815 59.3408 24.6355C61.7112 23.4792 64.085 23.8423 66.3674 24.9845H66.3638Z" fill="#009150"></path></g></svg> 