<?xml version="1.0" encoding="UTF-8"?> <svg xmlns="http://www.w3.org/2000/svg" width="125" height="60" viewBox="0 0 125 60" fill="none"><g filter="url(#filter0_d_3688_12115)"><path fill-rule="evenodd" clip-rule="evenodd" d="M86.8831 12.7514C88.4247 11.2325 90.7801 10.6967 92.6839 11.1629L92.7745 11.1859C93.7068 11.4318 94.5609 11.9312 95.1412 12.7191C95.7467 13.5411 96.0098 14.6166 95.8238 15.8967C95.8238 15.8972 95.8233 15.8978 95.8233 15.8983L95.8217 15.9085C95.8212 15.9125 95.8206 15.9165 95.8196 15.9204L95.818 15.9304C95.0287 19.8298 91.2077 23.2448 86.9785 23.1684C86.9244 23.8496 87.016 24.304 87.1617 24.5946C87.3273 24.9256 87.5931 25.1072 87.9762 25.1741C88.3866 25.2457 88.931 25.1804 89.5606 24.9612C90.1827 24.7447 90.8455 24.3925 91.4719 23.9448L91.4767 23.9415L91.4783 23.9404L91.4799 23.9392C91.481 23.9385 91.4821 23.9378 91.4826 23.9371C93.478 22.5744 94.7426 20.9761 96.2096 18.9724V18.9721C96.8607 18.0837 97.5867 17.062 98.4301 16.2986C99.2472 15.5587 100.24 15.0005 101.462 15.0457L101.52 15.0482L101.524 15.0484L101.637 15.0562L101.643 15.0567L101.785 15.07L101.788 15.0702C103.301 15.226 104.665 15.8122 105.625 16.9563L105.671 17.012C106.629 18.1882 107.1 19.8549 106.982 22.0073C106.579 29.4143 100.048 33.3858 92.4685 35.7308C84.967 38.0516 76.0601 38.8969 70.0382 39.7826L69.7536 39.8248C64.557 40.6023 60.0838 41.2753 56.7671 42.4301C53.4514 43.5845 51.4946 45.1482 51.0083 47.583C51.0074 47.5877 51.0063 47.5923 51.0051 47.5969L50.9477 47.8185C50.9444 47.8315 50.94 47.8442 50.9346 47.8567C50.8591 48.0289 50.7568 48.1383 50.6164 48.2011C50.5568 48.2277 50.4979 48.2424 50.4553 48.2524C50.4197 48.261 50.3926 48.2668 50.3659 48.2741L50.339 48.2821C50.1059 48.3556 49.8498 48.3641 49.639 48.355C49.2085 48.3364 48.7406 48.2324 48.4661 48.1408C48.4656 48.1406 48.4651 48.1405 48.4646 48.1404C47.4129 47.7877 46.2741 47.2936 45.5127 46.6181C45.1266 46.2755 44.7974 45.8512 44.6582 45.3354C44.5164 44.8103 44.5915 44.2633 44.8784 43.7241C45.3687 41.955 46.5959 40.4989 48.1267 39.3578C49.6665 38.2101 51.5295 37.3684 53.3112 36.8365C56.8502 35.7803 62.6062 35.3498 66.6759 35.1972L67.328 35.1738C74.0807 34.9395 81.2795 34.9518 88.4622 33.1146C95.9299 31.2044 101.531 27.8463 102.352 21.8616C102.421 21.3533 102.463 20.1946 102.254 19.1661C102.149 18.6511 101.991 18.2191 101.782 17.9208C101.612 17.6777 101.423 17.542 101.199 17.494L100.472 17.7506C100.224 17.9454 99.9518 18.233 99.6603 18.6049C99.0243 19.4166 98.3765 20.5227 97.7582 21.6362V21.6363L97.7539 21.6438C97.7523 21.6469 97.7507 21.6501 97.7485 21.653L97.7442 21.6605C97.7437 21.6609 97.7437 21.6614 97.7432 21.6618C96.6136 23.487 95.5206 24.8967 94.5898 25.9181C93.6966 26.8981 92.9245 27.5504 92.3935 27.8554C90.6301 29.2303 88.2028 30.0972 86.0306 29.9484C84.9274 29.8728 83.8632 29.5323 82.9968 28.8323C82.3892 28.3414 81.9 27.6903 81.564 26.8744C80.0503 28.6265 78.3577 30.2838 76.1479 31.4076C74.4328 32.4145 72.222 32.7739 70.3612 32.2934C69.4203 32.0504 68.5482 31.5866 67.8858 30.8594C67.4908 30.4257 67.1804 29.9087 66.9744 29.3106C65.2895 31.3358 63.4848 33.5192 60.7184 34.5353L60.7186 34.5353L60.7021 34.5414C60.6936 34.5446 60.6851 34.5473 60.6764 34.5495L60.6607 34.5535L60.6607 34.5536C59.6101 34.8297 58.6088 34.6986 57.828 34.1626L57.7909 34.1368C57.006 33.5798 56.5364 32.667 56.4402 31.5704C56.4402 31.57 56.4402 31.5696 56.4402 31.5692L56.4392 31.5577C56.4388 31.5534 56.4386 31.5489 56.4386 31.5445L56.4383 31.5331C56.4383 31.5326 56.4381 31.5322 56.4381 31.5318C56.3858 29.4665 57.0259 27.5532 57.8974 25.7783C58.5413 24.4668 59.3313 23.1945 60.081 21.9844C59.924 22.0102 59.7672 22.0363 59.6006 22.0674C59.2641 22.1304 58.9699 22.1997 58.7353 22.2873C58.4909 22.3785 58.3814 22.4644 58.3407 22.5158L58.3254 22.5352C58.3182 22.5444 58.3104 22.5531 58.3019 22.5612L58.2978 22.5651C58.2938 22.5704 58.2882 22.5778 58.2812 22.5873C58.2617 22.6137 58.2301 22.6575 58.1844 22.724C58.1007 22.846 57.9891 23.0148 57.8516 23.2266C57.5763 23.6505 57.2099 24.2255 56.7744 24.9038C55.9063 26.2552 54.7749 27.9978 53.6086 29.6642C52.4473 31.3239 51.232 32.936 50.1959 34.0113C49.9946 34.2202 49.7946 34.4141 49.5987 34.5873C49.1403 35.08 48.6518 35.5559 48.1321 36.0135C48.1321 36.0136 48.1319 36.0137 48.1318 36.0138C47.1543 36.8732 46.0187 37.5751 44.6343 37.8809C44.6333 37.8811 44.6325 37.8814 44.6317 37.8816C43.5565 38.118 42.6609 37.9715 41.9356 37.5749L41.8659 37.5357C41.4014 37.2673 41.0317 36.9081 40.7371 36.5235C40.1045 38.9714 39.5309 41.2907 39.4339 43.6904C39.4315 43.7548 39.4349 43.8259 39.4445 43.9039L39.4567 43.9893C39.5258 44.4225 39.4779 44.9062 39.1342 45.2678C38.7982 45.621 38.3205 45.7072 37.8805 45.6849C35.9804 45.5903 34.2168 44.0038 34.3209 42.026C34.3796 40.8998 34.5331 39.761 34.7819 38.651C33.5183 39.9703 31.9126 40.8276 30.1477 41.3905L30.1476 41.3904C27.5383 42.2233 24.8813 42.3103 22.2472 41.3831C20.5566 40.7883 19.1076 39.7366 18.4281 37.9468C18.0591 36.9746 17.9092 35.9925 18.0553 35.0283C18.202 34.0597 18.6411 33.1495 19.3864 32.3175L19.3871 32.3169L19.3878 32.316C19.4631 32.2324 19.5488 32.1443 19.6466 32.0592L19.6476 32.0584L19.7147 32.0006L19.7158 31.9995C19.8745 31.8647 20.0345 31.7403 20.1918 31.6505C20.364 31.5523 20.6324 31.4375 20.9441 31.5059L20.974 31.5131C21.2583 31.5857 21.4381 31.7805 21.5476 31.9414L21.5693 31.9742L21.5873 32.0031C21.665 32.1298 21.7313 32.2757 21.7911 32.4263L21.8182 32.4961L21.8188 32.4977L21.8485 32.5769C21.8487 32.5774 21.8489 32.578 21.8491 32.5785C23.1451 36.1066 27.1523 37.7893 30.7586 36.2504L30.8454 36.2128C31.2251 36.0446 31.6042 35.7539 31.9029 35.4261C32.1348 35.1703 32.2124 34.9021 32.1935 34.675C32.1749 34.4503 32.0572 34.208 31.7873 34.006C31.7871 34.0059 31.7867 34.0057 31.7865 34.0054C31.3115 33.6488 30.7236 33.3737 30.0934 33.1159C29.5233 32.8828 28.9397 32.6751 28.3395 32.4595C27.7441 32.2456 27.1334 32.0246 26.5339 31.7717C26.5333 31.7714 26.5328 31.7711 26.5323 31.7709L26.3699 31.701C26.3692 31.7008 26.3685 31.7006 26.3679 31.7002C24.6603 30.9491 23.2002 29.7941 22.5434 27.869C22.0112 26.3066 22.1146 24.7494 22.6145 23.2542L22.6149 23.2528L22.6626 23.1129L22.6631 23.1113C23.7031 20.1226 25.7564 17.9021 28.3627 16.1772L28.363 16.177C29.7687 15.2474 30.858 14.7459 32.6063 14.406C33.4439 14.2432 34.015 14.1631 34.4931 14.1465C34.9835 14.1296 35.3558 14.1803 35.7824 14.2526C38.3031 14.6797 40.0202 16.7867 39.8115 19.3034C39.5915 21.9498 38.2765 24.0269 35.8058 25.3135C35.8043 25.3143 35.8028 25.3149 35.8012 25.3157C35.0287 25.7171 34.135 25.9001 33.1979 25.6042C32.8289 25.4876 32.3951 25.2701 32.2206 24.8196L32.2045 24.7751C32.043 24.2974 32.2598 23.8478 32.4752 23.5336C32.4753 23.5334 32.4756 23.5332 32.4756 23.533C33.415 22.166 34.2805 20.9351 34.6104 19.4678C34.6637 19.2297 34.6885 18.9772 34.6819 18.734V18.7333C34.6749 18.4662 34.5872 18.3126 34.5057 18.2366L34.4895 18.2225C34.4142 18.1606 34.2732 18.1013 34.0178 18.1703C33.2666 18.3746 32.5253 18.6695 31.8826 19.0529L31.8206 19.0902C30.2332 20.0604 29.0012 21.3411 28.2501 22.9788C27.8131 23.9317 27.7338 24.7902 28.2271 25.6133L28.2571 25.6621L28.2848 25.7043C28.5747 26.1379 29.0135 26.4616 29.5629 26.7328L29.6838 26.7906C30.2033 27.0341 30.7306 27.266 31.2656 27.5004C31.674 27.6795 32.0872 27.8602 32.4989 28.0468L32.6753 28.1271L32.6758 28.1273L32.8727 28.2181L32.8729 28.2181L32.8747 28.219C32.8755 28.2193 32.8764 28.2197 32.8771 28.22C34.1796 28.8258 35.5042 29.6373 36.232 31.1058L36.4822 31.6105C36.5023 31.6511 36.5108 31.6959 36.5078 31.7398C36.5617 31.8814 36.6102 32.0232 36.6532 32.1648C37.9295 28.3132 39.4727 24.5502 41.2942 20.8827L41.295 20.8808L41.3407 20.7907L41.3419 20.7885C41.5784 20.3333 41.9022 19.855 42.1169 19.4899L42.119 19.4863L42.1509 19.434C42.1516 19.4329 42.1522 19.432 42.1528 19.431C42.3363 19.1393 42.5791 18.9028 42.8935 18.7538C43.2247 18.597 43.583 18.5617 43.9407 18.5969C44.6904 18.6701 45.4184 18.8866 46.0615 19.3795L46.0616 19.3796C46.2919 19.5558 46.5171 19.7997 46.5941 20.1477L46.6012 20.1817C46.6536 20.458 46.5968 20.7177 46.5063 20.9452C46.9336 20.4644 47.3727 19.9952 47.8179 19.5364C47.818 19.5363 47.8181 19.5362 47.8183 19.536C48.4786 18.8564 49.3416 18.4306 50.282 18.2531L50.2828 18.253C51.1996 18.0806 52.0624 18.1973 52.7831 18.6143C53.4431 18.9962 53.9366 19.6029 54.2414 20.364C54.2534 20.3819 54.2632 20.4016 54.2703 20.4225L54.3242 20.5795L54.3612 20.6908C54.5823 21.3715 54.694 22.0499 54.7224 22.7224C55.041 21.9718 55.3332 21.2787 55.5634 20.7731C55.0802 20.3347 54.7432 19.8516 54.5446 19.3385C54.2947 18.6926 54.2788 18.0374 54.419 17.4273C54.6946 16.2282 55.5704 15.1923 56.515 14.5772C56.9921 14.2665 57.5207 14.0403 58.0432 13.9649C58.5673 13.8892 59.1308 13.9615 59.5946 14.3134C60.0615 14.6679 60.3243 15.2274 60.4042 15.9131C60.4592 16.384 60.431 16.9353 60.3164 17.5707C60.8838 17.4579 61.513 17.2753 62.1446 17.0512C63.1064 16.7101 64.0357 16.2877 64.7054 15.9168C64.9442 15.7712 65.1984 15.6887 65.4624 15.6821C65.7161 15.6759 65.942 15.7404 66.134 15.8342L66.1719 15.8533C66.4599 16.0032 66.6969 16.233 66.8761 16.4296L66.9493 16.5113L66.9503 16.5126L67.0256 16.5991C67.0264 16.6001 67.0273 16.6011 67.0281 16.6021C67.1731 16.7722 67.3069 16.9344 67.4133 17.0906L67.4572 17.1572L67.4789 17.1919C67.5859 17.367 67.6744 17.5673 67.6982 17.8024C67.7237 18.0537 67.6686 18.2795 67.5909 18.4803C67.5165 18.6727 67.406 18.879 67.2861 19.0947L67.286 19.0947C66.5839 20.3588 65.5233 22.0053 64.5737 23.6012C63.6034 25.2316 62.7328 26.8339 62.3164 28.1267C62.1069 28.821 62.0458 29.2554 62.0553 29.5004C62.1375 29.4695 62.2417 29.4196 62.3674 29.3454C62.6664 29.1692 63.0289 28.8921 63.4272 28.5376C64.2209 27.8312 65.0911 26.8767 65.7846 25.9836C66.1308 25.5378 66.4262 25.1161 66.643 24.7565L66.6843 24.6871C66.8837 24.3476 66.9783 24.1184 67.0012 24.0033L67.0017 24.001L67.0043 23.9885L67.0076 23.9745L67.0109 23.962L67.0112 23.9612C67.9127 20.6516 69.5168 17.6873 72.2434 15.3479C73.928 13.6555 76.4716 13.1713 78.4332 13.7912C79.4293 14.1058 80.3134 14.718 80.8407 15.6452C81.3722 16.5801 81.4965 17.758 81.1123 19.1122L81.1112 19.1154C81.1102 19.1203 81.1086 19.1252 81.107 19.13L81.1053 19.1358C79.9694 22.6742 76.5396 25.8006 72.4427 25.6697C72.4518 25.7871 72.4599 25.9027 72.4679 26.0128C72.4952 26.3906 72.5258 26.7187 72.5944 26.9988C72.6624 27.277 72.7546 27.4455 72.8617 27.5467L72.8799 27.5633C72.9743 27.6451 73.1339 27.7259 73.442 27.7358C75.124 27.6412 76.5873 26.8811 77.9022 25.7844C79.2016 24.701 80.3204 23.3195 81.3336 22.0005C82.4213 18.5858 83.8241 15.2358 86.8831 12.7514ZM50.0758 48.0832C50.0372 48.0892 49.9982 48.0937 49.959 48.0971C49.9852 48.0948 50.0112 48.0921 50.0371 48.0887C50.05 48.0871 50.0629 48.0852 50.0758 48.0832ZM50.4772 47.9834C50.48 47.9825 50.4828 47.9818 50.4854 47.9809C50.4868 47.9804 50.4882 47.9796 50.4896 47.9791C50.4855 47.9806 50.4814 47.982 50.4772 47.9834ZM47.6607 47.5729C47.6828 47.582 47.7051 47.5909 47.7273 47.5998C47.6725 47.5777 47.6177 47.5554 47.5633 47.5325L47.6607 47.5729ZM39.2064 44.0292C39.2122 44.066 39.2172 44.1029 39.221 44.1395L39.2169 44.1028C39.2153 44.0905 39.2138 44.0783 39.212 44.066C39.2103 44.0538 39.2084 44.0415 39.2064 44.0292ZM45.2372 43.4236C45.2282 43.4496 45.2194 43.4757 45.2107 43.5018C45.2232 43.4642 45.236 43.4268 45.2492 43.3895C45.2451 43.4009 45.2411 43.4121 45.2372 43.4236ZM39.199 43.314C39.1967 43.352 39.1945 43.3901 39.1926 43.4282C39.1967 43.3494 39.2015 43.2707 39.2068 43.1922L39.199 43.314ZM26.7427 41.7768C26.7654 41.7756 26.788 41.7745 26.8106 41.7732C26.8175 41.7728 26.8245 41.7723 26.8313 41.7718C26.8018 41.7736 26.7723 41.7753 26.7427 41.7768ZM27.2458 41.7394C27.2622 41.7378 27.2785 41.7364 27.2948 41.7348C27.3065 41.7337 27.3182 41.7322 27.3299 41.731C27.3018 41.7339 27.2738 41.7367 27.2458 41.7394ZM30.0706 41.149C29.9905 41.1746 29.9102 41.1995 29.83 41.2237L29.9504 41.1869C29.9905 41.1744 30.0306 41.1619 30.0707 41.1491L30.0706 41.149ZM30.2651 41.0855L30.3617 41.053C30.3788 41.0471 30.3958 41.0412 30.4128 41.0353C30.3638 41.0523 30.3145 41.0691 30.2651 41.0855ZM30.7062 40.9302C30.614 40.9643 30.5215 40.9976 30.4282 41.03C30.4382 41.0265 30.4482 41.0232 30.4581 41.0198C30.5222 40.9974 30.586 40.9746 30.6494 40.9513C30.6684 40.9444 30.6872 40.9372 30.7062 40.9302ZM31.1725 40.7476C31.0824 40.7849 30.9915 40.8213 30.9001 40.8567C30.9113 40.8525 30.9225 40.8483 30.9337 40.8439C30.9964 40.8194 31.0588 40.7944 31.1209 40.769C31.1382 40.762 31.1553 40.7546 31.1725 40.7476ZM31.3579 40.6693C31.3715 40.6634 31.3852 40.6576 31.3987 40.6517C31.4294 40.6383 31.4599 40.6248 31.4903 40.6112C31.4463 40.6308 31.4021 40.6501 31.3579 40.6693ZM21.4374 40.7715C21.4713 40.7881 21.5055 40.8044 21.5399 40.8206C21.5032 40.8033 21.4667 40.7858 21.4305 40.768C21.4328 40.7691 21.435 40.7703 21.4374 40.7715ZM21.2249 40.6628C21.2395 40.6706 21.2543 40.6781 21.2691 40.6859C21.2505 40.6761 21.2318 40.6664 21.2133 40.6565C21.2172 40.6585 21.221 40.6607 21.2249 40.6628ZM44.8244 37.5745C44.7429 37.5958 44.6606 37.6157 44.5774 37.634L44.7016 37.6053C44.7428 37.5954 44.7836 37.5852 44.8244 37.5745ZM24.2159 35.9541C24.271 35.9903 24.3268 36.0255 24.383 36.06C24.3509 36.0403 24.319 36.0204 24.2872 36.0001C24.2634 35.9849 24.2395 35.9696 24.2159 35.9541ZM49.424 22.0769C49.3847 22.0962 49.3281 22.129 49.2523 22.1843C49.2519 22.1846 49.2515 22.1849 49.2511 22.1851C48.9375 22.4139 48.6416 22.682 48.3758 22.9703C46.8592 24.6221 45.6278 26.4804 44.4682 28.4209C44.4673 28.4224 44.4662 28.4238 44.4653 28.4253C43.5459 29.9652 42.6993 31.4707 42.1927 33.1101L42.1926 33.11C42.1426 33.2725 42.1432 33.3751 42.1573 33.4394L42.1628 33.4608C42.1782 33.5123 42.2129 33.5764 42.3025 33.6548C42.468 33.7998 42.6227 33.9039 42.7484 33.953L42.7483 33.9529C42.8056 33.9753 42.8987 33.9659 43.0362 33.9039L43.2548 33.7804C43.7011 33.4678 43.9493 33.2004 44.3825 32.728L44.383 32.7274C46.6931 30.2126 48.2602 27.3041 49.1831 24.0754C49.1841 24.0702 49.1854 24.0651 49.1868 24.0599L49.2489 23.8353C49.3183 23.5841 49.3592 23.3138 49.3931 23.0137C49.42 22.776 49.446 22.4806 49.4793 22.2078C49.4587 22.1496 49.4397 22.1071 49.424 22.0769ZM42.0454 33.7555C42.046 33.7564 42.0468 33.7571 42.0476 33.7579C42.0403 33.7497 42.0334 33.7415 42.0268 33.7333L42.0454 33.7555ZM22.5395 34.3804C22.5681 34.4186 22.5972 34.4563 22.6265 34.4937C22.615 34.479 22.6035 34.4643 22.5921 34.4495C22.5744 34.4266 22.557 34.4035 22.5396 34.3804L22.5395 34.3804ZM70.2563 32.002C70.267 32.0051 70.2777 32.008 70.2885 32.0111C70.2724 32.0065 70.2563 32.0019 70.2403 31.9972L70.2563 32.002ZM32.0258 33.8728C32.0344 33.8802 32.0427 33.8876 32.051 33.8951C32.0338 33.8796 32.0162 33.8643 31.9979 33.8493L32.0258 33.8728ZM31.9389 33.8029C31.9231 33.791 31.9073 33.7793 31.8915 33.7677L31.9389 33.8029ZM41.9504 33.0354C41.9416 33.0641 41.934 33.092 41.9274 33.1188C41.9313 33.1031 41.9354 33.0869 41.9401 33.0705C41.9434 33.0589 41.9468 33.0473 41.9504 33.0354ZM36.8598 32.3474C36.8172 32.4767 36.7747 32.606 36.7327 32.7354C36.6907 32.8647 36.649 32.9941 36.6075 33.1237L36.6076 33.1239C36.7319 32.7351 36.8588 32.3471 36.9886 31.9601C36.9453 32.0891 36.9025 32.2182 36.8598 32.3474ZM22.0851 33.6869C22.1066 33.7246 22.1283 33.7621 22.1504 33.7992L22.1058 33.7231C22.0988 33.7111 22.092 33.699 22.0851 33.6869ZM56.714 31.7405C56.7146 31.7453 56.7154 31.75 56.716 31.7548C56.7144 31.7422 56.7128 31.7295 56.7111 31.717C56.7122 31.7248 56.713 31.7327 56.714 31.7405ZM28.4252 32.2211C28.2763 32.1676 28.1268 32.1137 27.9771 32.0592L28.4252 32.2211ZM21.7645 33.0475C21.7823 33.0883 21.8004 33.1289 21.819 33.1691L21.7819 33.0871C21.776 33.0739 21.7703 33.0607 21.7645 33.0475ZM67.7998 30.3546C67.8597 30.4363 67.9222 30.5153 67.9875 30.5917C68.0156 30.6246 68.0442 30.657 68.0733 30.6889L68.0734 30.6889C67.9768 30.5829 67.8856 30.4715 67.7998 30.3546ZM46.3691 30.6542C46.309 30.7407 46.2481 30.8268 46.1865 30.9126C46.1557 30.9555 46.1247 30.9983 46.0935 31.041C46.187 30.9129 46.2789 30.7839 46.3691 30.6542ZM20.3175 31.8705C20.3005 31.8802 20.2833 31.8905 20.2659 31.9013C20.2312 31.9229 20.196 31.9465 20.1601 31.9719L20.2135 31.9352C20.2487 31.9117 20.2835 31.8901 20.3176 31.8706C20.3219 31.8681 20.3263 31.8657 20.3307 31.8632C20.3263 31.8657 20.3218 31.868 20.3175 31.8705ZM72.604 27.6396C72.612 27.6498 72.6201 27.6596 72.6286 27.6691C72.6115 27.6491 72.5944 27.628 72.5788 27.6058L72.604 27.6396ZM77.107 26.697C77.0792 26.7155 77.0513 26.7341 77.0235 26.7525L77.0904 26.7084C77.0958 26.7047 77.1017 26.7007 77.107 26.697ZM89.6442 25.2006C89.6238 25.2077 89.6035 25.2146 89.5831 25.2214L89.6442 25.2006C89.6646 25.1935 89.6849 25.1864 89.7053 25.179L89.6442 25.2006ZM78.5564 25.5482C78.4755 25.6221 78.3946 25.695 78.3126 25.7669L78.4348 25.6584C78.4755 25.6219 78.5163 25.5851 78.5564 25.5482ZM74.055 25.2945C74.0764 25.2906 74.0979 25.2868 74.1193 25.2826C74.1493 25.2769 74.1793 25.2709 74.2088 25.2647C74.2688 25.2524 74.3283 25.2393 74.3878 25.2256L74.2983 25.2456C74.2179 25.2632 74.1365 25.2795 74.055 25.2945ZM79.3714 24.7439C79.297 24.8222 79.2219 24.8999 79.1464 24.9768L79.2616 24.8588C79.2986 24.8207 79.335 24.7824 79.3714 24.7439ZM76.0927 24.618V24.618C76.1195 24.6048 76.1469 24.5915 76.1736 24.578C76.1469 24.5915 76.1195 24.6048 76.0927 24.618ZM86.7095 23.6197C86.7106 23.6624 86.7117 23.7041 86.7138 23.7449L86.7111 23.683C86.7106 23.6621 86.71 23.641 86.7095 23.6197ZM88.2034 22.8377C88.235 22.833 88.2671 22.8283 88.2988 22.8233C88.3036 22.8225 88.3079 22.8218 88.3127 22.821C88.2763 22.8268 88.2398 22.8323 88.2034 22.8377ZM54.4566 23.6523C54.4471 23.7935 54.4342 23.9345 54.4183 24.0752L54.4183 24.075C54.4223 24.0399 54.4261 24.0048 54.4297 23.9696C54.4369 23.8993 54.4433 23.8287 54.4489 23.7582C54.4516 23.723 54.4542 23.6876 54.4566 23.6523ZM67.5252 23.1164C67.5092 23.1665 67.4934 23.2166 67.4777 23.2669C67.5091 23.1663 67.5411 23.0661 67.5739 22.9664L67.5252 23.1164ZM72.7401 22.3976C72.7165 22.4737 72.694 22.5503 72.6715 22.6271C72.6812 22.5953 72.6903 22.5635 72.6999 22.5318C72.7133 22.487 72.7267 22.4423 72.7401 22.3977V22.3976ZM76.9324 16.181C76.7968 16.2641 76.6152 16.4075 76.3853 16.6355C75.9261 17.0901 75.3287 17.8271 74.5812 18.933C73.9055 20.0149 73.3868 21.1692 72.9984 22.4212C73.756 22.1264 74.4649 21.5282 75.0838 20.7454C75.9373 19.665 76.5434 18.3277 76.8059 17.2806C76.9292 16.7908 76.9645 16.4129 76.9431 16.1747L76.9324 16.181ZM22.7287 23.7444C22.7158 23.7901 22.7034 23.8359 22.6914 23.8816L22.7287 23.7444C22.7415 23.6988 22.7548 23.6532 22.7684 23.6075L22.7287 23.7444ZM45.5786 22.2965C45.5242 22.4115 45.4697 22.5264 45.4156 22.6415C45.4156 22.6415 45.4157 22.6414 45.4158 22.6413C45.4699 22.5262 45.5242 22.4114 45.5786 22.2965ZM49.72 22.1279C49.726 22.1449 49.732 22.1629 49.738 22.1818L49.72 22.1279C49.714 22.1107 49.7081 22.0945 49.7021 22.0791L49.72 22.1279ZM91.7789 13.8967C91.6069 13.9671 91.3112 14.1514 90.8739 14.5563C89.4095 16.2026 88.4515 18.1087 87.7608 20.2385C88.3197 20.0508 88.8887 19.6419 89.4379 19.0513C90.2497 18.1777 90.9254 17.0028 91.3438 15.9292C91.5523 15.3941 91.69 14.9023 91.7521 14.5031C91.7977 14.2106 91.7945 14.0139 91.7789 13.8967ZM106.256 18.5168L106.228 18.4479C106.225 18.44 106.221 18.4322 106.218 18.4244C106.231 18.455 106.243 18.4858 106.256 18.5168ZM106.208 18.3981C106.205 18.392 106.202 18.3858 106.199 18.3798C106.189 18.3572 106.18 18.3347 106.17 18.3123C106.183 18.3407 106.195 18.3693 106.208 18.3981ZM53.9677 20.3652C53.9869 20.41 54.0055 20.4554 54.0233 20.5015C54.0144 20.4785 54.0054 20.4556 53.9961 20.4329C53.9868 20.4102 53.9773 20.3876 53.9677 20.3652ZM105.934 17.8451C105.949 17.871 105.963 17.897 105.977 17.9233L105.943 17.8611C105.94 17.8557 105.937 17.8504 105.934 17.8451ZM80.8685 19.043C80.8798 19.0024 80.891 18.9619 80.9017 18.9216L80.8685 19.043ZM41.6578 20.7367L41.6577 20.7366C41.6265 20.7927 41.5961 20.8491 41.5669 20.9054C41.5961 20.8491 41.6266 20.7928 41.6578 20.7367ZM105.642 17.3897L105.6 17.3341C105.599 17.3316 105.597 17.329 105.595 17.3265C105.611 17.3474 105.626 17.3685 105.642 17.3897ZM105.58 17.306C105.573 17.2971 105.566 17.2881 105.559 17.2793C105.554 17.2725 105.549 17.2658 105.543 17.259C105.555 17.2746 105.567 17.2903 105.58 17.306ZM105.533 17.2454C105.528 17.2386 105.522 17.2318 105.517 17.2251C105.507 17.2124 105.496 17.1998 105.486 17.1872C105.502 17.2065 105.517 17.2259 105.533 17.2454ZM105.344 17.0192C105.373 17.052 105.402 17.0853 105.431 17.1191C105.416 17.1022 105.402 17.0853 105.387 17.0687C105.359 17.0354 105.33 17.0026 105.3 16.9703L105.344 17.0192ZM69.4899 18.8869C69.4838 18.8963 69.4777 18.9058 69.4716 18.9153C69.4819 18.8993 69.4923 18.8832 69.5026 18.8672C69.4984 18.8737 69.4941 18.8803 69.4899 18.8869ZM69.5749 18.7563C69.5726 18.7598 69.5704 18.7633 69.5681 18.7668C69.576 18.7549 69.5839 18.7429 69.5918 18.7309C69.5862 18.7394 69.5806 18.7478 69.5749 18.7563ZM70.0205 18.1153C70.0166 18.1206 70.0129 18.126 70.009 18.1314C70.0168 18.1205 70.0248 18.1096 70.0328 18.0988C70.0287 18.1043 70.0246 18.1098 70.0205 18.1153ZM70.1139 17.9894C70.11 17.9946 70.1061 17.9998 70.1023 18.0049C70.1161 17.9864 70.1302 17.9679 70.1441 17.9494C70.1341 17.9628 70.1238 17.976 70.1139 17.9894ZM104.257 16.1148C104.275 16.1259 104.293 16.137 104.312 16.1483C104.275 16.1257 104.239 16.1036 104.201 16.082L104.257 16.1148ZM70.3047 17.7399C70.2999 17.7461 70.2951 17.7524 70.2903 17.7586C70.3033 17.7418 70.3165 17.7252 70.3295 17.7085C70.3213 17.719 70.313 17.7294 70.3047 17.7399ZM104.063 16.0032C104.054 15.998 104.044 15.9928 104.034 15.9876C104.028 15.9841 104.021 15.9807 104.015 15.9772C104.031 15.9858 104.047 15.9945 104.063 16.0032ZM81.0512 17.0905L81.0448 17.0403C81.0437 17.0333 81.0427 17.0262 81.0416 17.0192C81.0448 17.0429 81.048 17.0666 81.0512 17.0905ZM81.04 17.007C81.0389 17.0015 81.0384 16.996 81.0373 16.9905C81.0352 16.9739 81.0325 16.9574 81.0298 16.9409C81.0335 16.9629 81.0368 16.9849 81.04 17.007ZM70.5014 17.4936C70.4988 17.4967 70.4962 17.5 70.4936 17.5032C70.5017 17.4933 70.5098 17.4834 70.5179 17.4735C70.5125 17.4802 70.5069 17.4868 70.5014 17.4936ZM80.9923 16.7461C80.9993 16.7782 81.0057 16.8104 81.0121 16.8429L81.0025 16.7943C80.9993 16.7782 80.9955 16.7621 80.9923 16.7461ZM102.982 15.5586C102.973 15.5557 102.963 15.5527 102.952 15.5498C102.944 15.5473 102.935 15.5448 102.926 15.5423C102.945 15.5476 102.964 15.5531 102.982 15.5586ZM102.914 15.5387C102.905 15.5364 102.898 15.5341 102.889 15.5318C102.88 15.5294 102.872 15.5269 102.862 15.5245C102.88 15.5292 102.897 15.5339 102.914 15.5387ZM102.62 15.4636C102.693 15.4804 102.765 15.4983 102.836 15.5174C102.811 15.5107 102.786 15.5041 102.761 15.4976C102.718 15.4867 102.674 15.4762 102.631 15.4661C102.628 15.4652 102.624 15.4645 102.62 15.4636ZM70.9121 17.0107C70.9097 17.0134 70.9073 17.0162 70.905 17.0189C70.9134 17.0093 70.9219 16.9998 70.9304 16.9903C70.9243 16.9971 70.9181 17.0039 70.9121 17.0107ZM101.967 15.3462C101.989 15.3491 102.012 15.3522 102.035 15.3553C101.99 15.349 101.944 15.3431 101.898 15.3376L101.967 15.3462ZM71.0186 16.8919C71.0136 16.8974 71.0088 16.9029 71.0039 16.9083C71.0142 16.8969 71.0246 16.8855 71.0348 16.8741C71.0294 16.8801 71.024 16.886 71.0186 16.8919ZM71.1264 16.7741C71.1206 16.7804 71.1149 16.7866 71.1092 16.7928C71.1215 16.7794 71.134 16.7662 71.1464 16.7528L71.1264 16.7741ZM71.5747 16.3097C71.5361 16.3482 71.4975 16.3869 71.4595 16.4256L71.5731 16.3112C71.5736 16.3107 71.5741 16.3102 71.5747 16.3097ZM34.7333 18.1089C34.7507 18.1298 34.7674 18.1523 34.7831 18.1764L34.7589 18.1414C34.7506 18.1302 34.742 18.1194 34.7333 18.1089ZM72.0446 15.862C72.0392 15.8668 72.0344 15.8717 72.0291 15.8766C72.0409 15.8655 72.0532 15.8544 72.0655 15.8433L72.0446 15.862ZM72.9732 15.0417C72.9726 15.042 72.9721 15.0423 72.9721 15.0426C72.9726 15.0418 72.9737 15.041 72.9748 15.0403C72.9743 15.0407 72.9737 15.0412 72.9732 15.0417ZM73.4018 14.7402C73.4002 14.7414 73.3981 14.7426 73.3965 14.7437C73.4018 14.7402 73.4072 14.7368 73.4131 14.7333C73.4093 14.7356 73.4056 14.7379 73.4018 14.7402ZM79.2171 14.4029C79.2123 14.4004 79.208 14.3977 79.2037 14.3952C79.1984 14.3923 79.193 14.3896 79.1882 14.3868C79.1978 14.3921 79.2075 14.3975 79.2171 14.4029ZM79.1598 14.3713C79.1523 14.3674 79.1453 14.3634 79.1378 14.3596L79.125 14.3529C79.1367 14.359 79.148 14.3651 79.1598 14.3713ZM73.5797 14.6314C73.5776 14.6325 73.576 14.6336 73.5744 14.6347C73.5824 14.6298 73.591 14.6248 73.5996 14.6199C73.5931 14.6237 73.5862 14.6275 73.5797 14.6314ZM74.6053 14.1518C74.5731 14.1633 74.5415 14.1751 74.5094 14.1871L74.6053 14.1518C74.6374 14.1403 74.6696 14.129 74.7017 14.1181L74.6053 14.1518ZM74.8957 14.0556C74.863 14.0655 74.8309 14.0757 74.7987 14.0861L74.8957 14.0556C74.9279 14.0457 74.9605 14.0362 74.9932 14.0268L74.8957 14.0556ZM75.5826 13.8884C75.5725 13.8903 75.5623 13.8924 75.5521 13.8943C75.5719 13.8906 75.5917 13.8868 75.611 13.8833C75.6019 13.885 75.5923 13.8866 75.5826 13.8884ZM75.6818 13.871C75.6721 13.8726 75.663 13.8743 75.6539 13.8758C75.6764 13.872 75.6989 13.8683 75.7214 13.8646C75.708 13.8668 75.6946 13.8688 75.6818 13.871ZM29.7337 15.6481C29.6541 15.6902 29.5743 15.7337 29.4941 15.7785L29.6141 15.7123C29.6541 15.6906 29.6939 15.6691 29.7337 15.6481ZM32.1898 14.7525C32.1703 14.7569 32.1508 14.7614 32.1314 14.766C32.1581 14.7597 32.185 14.7537 32.2119 14.7475L32.1898 14.7525ZM33.2401 14.547C33.1929 14.5551 33.1447 14.5635 33.0955 14.5722C33.0495 14.5804 33.0026 14.5889 32.9546 14.5978C32.8587 14.6154 32.7589 14.6343 32.6547 14.6546C32.8669 14.6134 33.061 14.5776 33.2401 14.547ZM33.6051 14.4887C33.6048 14.4887 33.6045 14.4888 33.6043 14.4888C33.6022 14.4891 33.6 14.4894 33.5979 14.4897C33.6003 14.4893 33.6027 14.489 33.6051 14.4887ZM91.6487 11.2638C91.6793 11.2656 91.7093 11.2676 91.7398 11.2699L91.6487 11.2638C91.6182 11.262 91.5882 11.2604 91.5576 11.2591L91.6487 11.2638ZM39.9557 38.6058L39.8996 38.8475C39.8951 38.8671 39.8907 38.8867 39.8863 38.9063C39.9091 38.8062 39.9323 38.7061 39.9557 38.6058ZM103.999 15.9688C103.992 15.965 103.984 15.9612 103.977 15.9575C103.964 15.9501 103.95 15.9429 103.936 15.9357C103.957 15.9466 103.977 15.9577 103.999 15.9688ZM33.7269 14.4713C33.7243 14.4716 33.7218 14.472 33.7191 14.4724C33.6818 14.4775 33.6439 14.4829 33.6051 14.4887C33.6465 14.4825 33.6871 14.4768 33.7269 14.4713Z" fill="white"></path></g><defs><filter id="filter0_d_3688_12115" x="14" y="11" width="97" height="45.3579" filterUnits="userSpaceOnUse" color-interpolation-filters="sRGB"><feFlood flood-opacity="0" result="BackgroundImageFix"></feFlood><feColorMatrix in="SourceAlpha" type="matrix" values="0 0 0 0 0 0 0 0 0 0 0 0 0 0 0 0 0 0 127 0" result="hardAlpha"></feColorMatrix><feOffset dy="4"></feOffset><feGaussianBlur stdDeviation="2"></feGaussianBlur><feComposite in2="hardAlpha" operator="out"></feComposite><feColorMatrix type="matrix" values="0 0 0 0 0 0 0 0 0 0 0 0 0 0 0 0 0 0 0.25 0"></feColorMatrix><feBlend mode="normal" in2="BackgroundImageFix" result="effect1_dropShadow_3688_12115"></feBlend><feBlend mode="normal" in="SourceGraphic" in2="effect1_dropShadow_3688_12115" result="shape"></feBlend></filter></defs></svg> 