<?xml version="1.0" encoding="UTF-8"?> <svg xmlns="http://www.w3.org/2000/svg" width="125" height="60" viewBox="0 0 125 60" fill="none"><path d="M60.008 31.2948C60.008 33.4048 60.4556 35.4113 61.2617 37.2222C59.1579 41.0641 55.0783 43.6678 50.3893 43.6678C43.5473 43.6678 38 38.1215 38 31.2785C38 24.4355 43.5473 18.8892 50.3893 18.8892C55.0844 18.8892 59.1691 21.501 61.2699 25.3501C60.4587 27.1661 60.008 29.1777 60.008 31.2948Z" fill="white"></path><path d="M74.6107 43.6844C81.4532 43.6844 87 38.1375 87 31.2951C87 24.4526 81.4532 18.9058 74.6107 18.9058C67.7683 18.9058 62.2214 24.4526 62.2214 31.2951C62.2214 38.1375 67.7683 43.6844 74.6107 43.6844Z" fill="white"></path><path d="M43.912 32.9241C43.6467 31.9869 43.5811 31.0917 43.7153 30.2426C43.8495 29.3925 44.1424 28.6202 44.5962 27.9258C45.0489 27.2313 45.645 26.6342 46.3835 26.1333C47.122 25.6325 47.9577 25.2637 48.8898 25.0271C49.8454 24.7844 50.7898 24.7025 51.7229 24.7782C52.3282 24.8274 52.8864 24.935 53.3985 25.1009C53.8349 25.2422 54.053 25.7031 53.8605 26.1006L52.8045 28.2771C52.6386 28.6192 52.2237 28.7913 51.8509 28.6601C51.7075 28.61 51.559 28.5731 51.4033 28.5495C51.012 28.4891 50.6003 28.5137 50.1691 28.6233C49.8198 28.7124 49.5095 28.8527 49.2391 29.0453C48.9687 29.2378 48.7515 29.4734 48.5866 29.752C48.4217 30.0306 48.3193 30.343 48.2804 30.6902C48.2415 31.0374 48.2763 31.4041 48.3859 31.7902C48.4955 32.1764 48.6594 32.5041 48.8796 32.7735C49.0998 33.0429 49.3538 33.259 49.6437 33.4219C49.9335 33.5847 50.2459 33.6861 50.5819 33.7251C50.9178 33.764 51.2538 33.7404 51.5928 33.6554C52.0701 33.5345 52.4542 33.3358 52.7451 33.0613C52.8424 32.9702 52.9294 32.877 53.0083 32.7817C53.2592 32.4785 53.7263 32.4304 54.0582 32.6516L56.1261 34.0303C56.4815 34.2669 56.5665 34.7391 56.3002 35.0637C55.953 35.4878 55.5321 35.876 55.0384 36.2304C54.3111 36.7517 53.4293 37.144 52.3927 37.4072C51.4596 37.6438 50.5419 37.7176 49.6355 37.6274C48.73 37.5383 47.8963 37.2966 47.1363 36.9043C46.3763 36.512 45.7136 35.9825 45.1503 35.3147C44.5869 34.6479 44.1742 33.851 43.912 32.9241Z" fill="#FFC600"></path><path d="M72.7712 37.5087C72.3062 37.3837 71.8596 37.2209 71.4325 37.0201C71.0054 36.8194 70.6039 36.5848 70.23 36.3175C69.8551 36.0502 69.512 35.7623 69.2006 35.454C69.0931 35.3475 68.9917 35.24 68.8944 35.1304C68.6107 34.8088 68.6773 34.311 69.0398 34.0805L70.8661 32.9231C71.1631 32.7347 71.5544 32.7961 71.7736 33.0706C71.9241 33.2591 72.1013 33.4455 72.3072 33.6288C72.6954 33.9761 73.1266 34.2137 73.6029 34.3407C73.819 34.3991 74.0269 34.4134 74.2256 34.3858C74.4243 34.3581 74.5513 34.2413 74.6066 34.0355C74.6353 33.9269 74.6302 33.8275 74.5913 33.7354C74.5523 33.6432 74.4673 33.5367 74.3383 33.4148C74.2092 33.2929 74.0248 33.1474 73.7862 32.9795C73.5476 32.8115 73.2444 32.6077 72.8797 32.3711C72.5254 32.1365 72.1935 31.8825 71.8842 31.608C71.5749 31.3335 71.3178 31.0293 71.1119 30.6954C70.906 30.3615 70.7698 29.9917 70.7053 29.5851C70.6407 29.1785 70.6756 28.7206 70.8128 28.2116C71.0043 27.4967 71.3126 26.9292 71.7387 26.5093C72.1638 26.0894 72.6493 25.7811 73.1952 25.5844C73.7411 25.3877 74.3188 25.2956 74.9293 25.3089C75.5397 25.3212 76.1266 25.4031 76.6889 25.5537C77.4458 25.7565 78.1771 26.1088 78.8839 26.6107C79.3663 26.9538 79.7883 27.3461 80.1509 27.7876C80.4182 28.1133 80.3229 28.6018 79.9604 28.8159L78.1515 29.8852C77.8494 30.0634 77.4602 29.9887 77.2492 29.708C77.1201 29.5359 76.9696 29.3813 76.7975 29.242C76.4636 28.9726 76.145 28.7975 75.8429 28.7165C75.5612 28.6408 75.3236 28.6213 75.129 28.6561C74.9344 28.6909 74.8125 28.8005 74.7633 28.9839C74.7172 29.157 74.7715 29.3106 74.9262 29.4448C75.0819 29.579 75.342 29.7644 75.7077 30.002C76.0836 30.2417 76.4759 30.509 76.8835 30.804C77.2912 31.0989 77.6507 31.4359 77.96 31.8139C78.2693 32.1928 78.4957 32.6148 78.637 33.0819C78.7784 33.5489 78.7692 34.0795 78.6104 34.6746C78.425 35.367 78.1259 35.9334 77.7121 36.3728C77.2983 36.8122 76.8221 37.142 76.2823 37.3632C75.7415 37.5835 75.1679 37.7023 74.5605 37.7197C73.9532 37.7371 73.3581 37.6664 72.7732 37.5107L72.7712 37.5087Z" fill="#01DB80"></path><path d="M74.9998 15.6556C74.6874 15.7314 74.582 16.4002 74.582 16.4002C74.582 16.4002 77.0832 16.4862 79.3877 17.2145C81.7035 17.9458 83.8227 19.3193 83.8227 19.3193C83.8227 19.3193 84.1197 18.7109 83.9088 18.4692C84.0142 18.2418 84.1218 18.0185 84.2304 17.7993C84.2498 17.8147 84.2693 17.8311 84.2887 17.8464C84.4414 17.9734 84.6667 17.9345 84.7917 17.7594C84.9176 17.5842 84.8961 17.3404 84.7435 17.2145C84.6954 17.1735 84.6452 17.1325 84.594 17.0926C85.2864 15.7908 86.0556 14.5924 86.9846 13.2752C86.1488 13.1185 84.6739 13.2895 83.9456 13.8293C83.8831 14.6416 83.6691 15.1383 83.3915 15.4169C82.5373 16.2732 80.9149 15.1721 81.7507 13.7781C81.9637 13.4227 82.3498 13.1165 82.9808 12.9935C83.0228 11.5043 82.7001 9.99659 82.0006 9C80.8555 9.41482 79.7247 10.4626 78.9063 11.7081C79.3508 12.1711 79.4922 12.6443 79.4625 13.057C79.3457 14.6774 77.3853 14.6477 77.1774 13.4555C77.1098 13.0693 77.2194 12.5388 77.6352 11.8382C77.3495 10.9778 76.2412 9.99147 75.4669 9.63913C75.471 11.2554 75.4116 12.6832 75.2293 14.1509C75.176 14.152 75.1238 14.154 75.0705 14.1561C74.8739 14.1622 74.709 14.3425 74.7028 14.5565C74.6967 14.7716 74.8513 14.9406 75.048 14.9335C75.0726 14.9335 75.0961 14.9314 75.1207 14.9314C75.0838 15.1711 75.0439 15.4118 75.0009 15.6566L74.9998 15.6556ZM50.0471 15.6556C50.0031 15.4118 49.9631 15.1701 49.9273 14.9304C49.9519 14.9304 49.9765 14.9314 50 14.9324C50.1967 14.9386 50.3513 14.7706 50.3452 14.5555C50.339 14.3404 50.1741 14.1612 49.9775 14.155C49.9252 14.153 49.872 14.152 49.8187 14.1499C49.6364 12.6822 49.577 11.2544 49.5811 9.63811C48.8068 9.99045 47.6975 10.9768 47.4128 11.8372C47.8286 12.5378 47.9382 13.0683 47.8706 13.4545C47.6627 14.6467 45.7033 14.6764 45.5855 13.056C45.5558 12.6432 45.6961 12.17 46.1417 11.7071C45.3212 10.4626 44.1915 9.41482 43.0464 9C42.3468 9.99659 42.0242 11.5043 42.0682 12.9946C42.6992 13.1185 43.0853 13.4247 43.2984 13.7791C44.1331 15.1731 42.5117 16.2742 41.6575 15.4179C41.3799 15.1404 41.1659 14.6436 41.1034 13.8304C40.3752 13.2895 38.9013 13.1195 38.0645 13.2762C38.9924 14.5934 39.7627 15.7928 40.455 17.0936C40.4038 17.1335 40.3536 17.1745 40.3055 17.2155C40.1529 17.3415 40.1314 17.5863 40.2574 17.7604C40.3833 17.9345 40.6087 17.9734 40.7603 17.8475C40.7797 17.8311 40.7982 17.8157 40.8187 17.8003C40.9272 18.0195 41.0348 18.2418 41.1403 18.4702C40.9293 18.7119 41.2263 19.3203 41.2263 19.3203C41.2263 19.3203 43.3455 17.9468 45.6613 17.2155C47.9659 16.4872 50.4671 16.4012 50.4671 16.4012C50.4671 16.4012 50.3605 15.7324 50.0492 15.6566L50.0471 15.6556Z" fill="white"></path><path d="M43.7327 47.1254C43.7327 47.2002 43.7122 47.2658 43.6712 47.32C43.6303 47.3743 43.5831 47.4163 43.5299 47.447C43.4326 47.3835 43.323 47.3252 43.2032 47.2719C43.0833 47.2197 42.9348 47.193 42.7576 47.193C42.438 47.193 42.184 47.2965 41.9945 47.5024C41.8051 47.7093 41.7098 48.0073 41.7098 48.3986C41.7098 48.7898 41.8071 49.0951 42.0027 49.2948C42.1984 49.4935 42.4606 49.5939 42.7914 49.5939C42.9645 49.5939 43.113 49.5703 43.239 49.5232C43.365 49.4761 43.4766 49.4208 43.5739 49.3573C43.6262 49.3911 43.6702 49.4372 43.703 49.4955C43.7368 49.5539 43.7542 49.6205 43.7542 49.6953C43.7542 49.7588 43.7368 49.8172 43.703 49.8704C43.6692 49.9227 43.6129 49.9698 43.534 50.0118C43.4592 50.0568 43.3527 50.0988 43.2154 50.1388C43.0782 50.1777 42.9082 50.1982 42.7054 50.1982C42.4575 50.1982 42.227 50.1613 42.015 50.0886C41.803 50.0159 41.6176 49.9042 41.4599 49.7557C41.3021 49.6072 41.1782 49.4208 41.0881 49.1954C40.9979 48.9701 40.9529 48.7058 40.9529 48.4016C40.9529 48.0974 40.9979 47.8506 41.0881 47.6273C41.1782 47.404 41.3011 47.2166 41.4568 47.064C41.6125 46.9124 41.7948 46.7967 42.0038 46.7178C42.2117 46.6389 42.4329 46.599 42.6654 46.599C42.8273 46.599 42.9737 46.6133 43.1048 46.641C43.2359 46.6696 43.3486 46.7075 43.4428 46.7567C43.5371 46.8059 43.6077 46.8622 43.6569 46.9257C43.7061 46.9892 43.7306 47.0568 43.7306 47.1285L43.7327 47.1254ZM47.124 47.3569C47.3309 47.3569 47.5183 47.3897 47.6873 47.4552C47.8563 47.5208 48.0018 47.616 48.1236 47.74C48.2455 47.8639 48.3398 48.0135 48.4053 48.1876C48.467 48.3524 48.4997 48.5336 48.5033 48.7328L48.5036 48.7694C48.5036 48.9875 48.4709 49.1831 48.4053 49.3583C48.3398 49.5334 48.2465 49.682 48.1267 49.8059C48.0069 49.9298 47.8625 50.0251 47.6935 50.0906C47.5245 50.1562 47.335 50.189 47.124 50.189C46.913 50.189 46.7245 50.1562 46.5555 50.0906C46.3865 50.0251 46.2421 49.9308 46.1212 49.809C46.0014 49.6871 45.9082 49.5386 45.8426 49.3644C45.7771 49.1893 45.7443 48.9916 45.7443 48.7704C45.7443 48.5491 45.7771 48.3566 45.8426 48.1814C45.9082 48.0063 46.0024 47.8588 46.1243 47.7369C46.2462 47.615 46.3916 47.5208 46.5606 47.4552C46.7296 47.3897 46.9171 47.3569 47.124 47.3569ZM45.2527 47.3559C45.6091 47.3559 45.7884 47.4665 45.7884 47.6888C45.7884 47.741 45.7802 47.7912 45.7627 47.8383C45.7453 47.8854 45.7279 47.9233 45.7095 47.954C45.6234 47.9356 45.5159 47.9254 45.3889 47.9254C45.2619 47.9254 45.1339 47.9407 45.0171 47.9704C44.9003 48.0001 44.801 48.038 44.718 48.0831V50.0998C44.6842 50.107 44.6391 50.1173 44.5828 50.1285C44.5265 50.1398 44.463 50.1449 44.3913 50.1449C44.2602 50.1449 44.1618 50.1203 44.0983 50.0722C44.0348 50.023 44.0021 49.937 44.0021 49.8131V48.0268C44.0021 47.9295 44.0246 47.8465 44.0697 47.7789C44.1147 47.7113 44.1803 47.6509 44.2663 47.5986C44.3831 47.5269 44.5265 47.4686 44.6975 47.4235C44.8686 47.3784 45.0529 47.3559 45.2527 47.3559ZM47.1229 47.9192C46.9201 47.9192 46.7604 47.993 46.6446 48.1415C46.5279 48.29 46.4695 48.4989 46.4695 48.7694C46.4695 49.0398 46.5268 49.2538 46.6416 49.4003C46.7563 49.5468 46.9171 49.6205 47.1229 49.6205C47.3288 49.6205 47.4896 49.5468 47.6043 49.3982C47.7191 49.2497 47.7764 49.0408 47.7764 48.7704C47.7764 48.5 47.718 48.291 47.6013 48.1425C47.4845 47.994 47.3247 47.9203 47.1219 47.9203L47.1229 47.9192ZM50.5767 48.376C50.5357 48.5297 50.4917 48.6864 50.4446 48.8441C50.3975 49.0019 50.3504 49.1545 50.3032 49.303C50.2561 49.4515 50.2111 49.5898 50.168 49.7168C50.125 49.8448 50.0881 49.9534 50.0584 50.0435C50.0175 50.0732 49.9642 50.0988 49.9007 50.1193C49.8372 50.1398 49.7563 50.15 49.658 50.15C49.5494 50.15 49.4541 50.1336 49.3732 50.1019C49.2923 50.0701 49.237 50.022 49.2073 49.9585C49.1622 49.8684 49.111 49.725 49.0557 49.5273C48.9994 49.3306 48.941 49.1145 48.8806 48.88C48.8201 48.6454 48.7648 48.4068 48.7146 48.164C48.6644 47.9213 48.6214 47.7103 48.5876 47.53C48.6255 47.4921 48.6767 47.4573 48.7423 47.4255C48.8078 47.3938 48.8806 47.3774 48.9594 47.3774C49.0649 47.3774 49.1469 47.403 49.2073 47.4532C49.2677 47.5044 49.3066 47.5853 49.3261 47.698C49.3978 48.1487 49.4654 48.5307 49.5289 48.8441C49.5924 49.1575 49.6375 49.3706 49.6641 49.4833H49.6866C49.702 49.4197 49.7266 49.3255 49.7624 49.2016C49.7983 49.0776 49.8393 48.9353 49.8864 48.7734C49.9335 48.6116 49.9837 48.4395 50.039 48.2552C50.0933 48.0708 50.1486 47.8854 50.2049 47.698C50.2571 47.6683 50.3125 47.6447 50.3708 47.6273C50.4292 47.6099 50.4978 47.6017 50.5767 47.6017C50.6781 47.6017 50.7631 47.6191 50.8328 47.6529C50.9024 47.6867 50.9485 47.7379 50.971 47.8055C51.0274 47.9858 51.0806 48.162 51.1319 48.3351C51.1831 48.5082 51.2281 48.668 51.2701 48.8165C51.3111 48.965 51.348 49.0971 51.3797 49.2139C51.4115 49.3306 51.4371 49.4208 51.4555 49.4843H51.4832C51.5467 49.1729 51.6132 48.8482 51.6829 48.5102C51.7525 48.1722 51.812 47.8229 51.8601 47.4624C51.9052 47.4358 51.9564 47.4153 52.0117 47.401C52.067 47.3866 52.1243 47.3784 52.1807 47.3784C52.278 47.3784 52.3579 47.401 52.4204 47.446C52.4818 47.4911 52.5136 47.5648 52.5136 47.6662C52.5136 47.7185 52.5023 47.8045 52.4798 47.9223C52.4572 48.0411 52.4286 48.1763 52.3927 48.3279C52.3569 48.4805 52.3179 48.6413 52.2749 48.8124C52.2319 48.9834 52.1879 49.1483 52.1428 49.3081C52.0977 49.4679 52.0547 49.6123 52.0127 49.7424C51.9717 49.8714 51.9359 49.9728 51.9062 50.0435C51.8683 50.0732 51.8109 50.0988 51.7341 50.1193C51.6573 50.1398 51.5733 50.15 51.4832 50.15C51.2466 50.15 51.1052 50.0917 51.0612 49.9749C51.0315 49.8919 50.9956 49.7905 50.9547 49.6707C50.9137 49.5509 50.8707 49.4187 50.8277 49.2764C50.7846 49.134 50.7416 48.9855 50.6986 48.8318C50.6556 48.6782 50.6146 48.5256 50.5777 48.375L50.5767 48.376ZM54.4053 48.0319C54.3132 47.9571 54.1882 47.9192 54.0305 47.9192C53.9219 47.9192 53.8215 47.9325 53.7293 47.9581C53.6372 47.9848 53.5573 48.0186 53.4897 48.0595V50.0988C53.4559 50.106 53.4108 50.1162 53.3545 50.1275C53.2981 50.1388 53.2346 50.1439 53.1629 50.1439C53.0318 50.1439 52.9335 50.1193 52.87 50.0712C52.8065 50.022 52.7737 49.936 52.7737 49.812V48.0032C52.7737 47.9131 52.7922 47.8404 52.8301 47.783C52.868 47.7267 52.9263 47.6724 53.0052 47.6201C53.1138 47.5454 53.2582 47.4819 53.4385 47.4317C53.6187 47.3815 53.8174 47.3559 54.0356 47.3559C54.4228 47.3559 54.7218 47.4409 54.9339 47.612C55.1459 47.783 55.2524 48.0339 55.2524 48.3637V50.0988C55.2227 50.106 55.1787 50.1162 55.1203 50.1275C55.0619 50.1388 54.9994 50.1439 54.9318 50.1439C54.7966 50.1439 54.6983 50.1193 54.6358 50.0712C54.5743 50.022 54.5426 49.936 54.5426 49.812V48.3863C54.5426 48.2245 54.4965 48.1067 54.4043 48.0309L54.4053 48.0319ZM59.2019 47.1254C59.2019 47.2002 59.1814 47.2658 59.1404 47.32C59.0995 47.3743 59.0524 47.4163 58.9991 47.447C58.9018 47.3835 58.7922 47.3252 58.6724 47.2719C58.5525 47.2197 58.404 47.193 58.2268 47.193C57.9072 47.193 57.6532 47.2965 57.4638 47.5024C57.2743 47.7093 57.179 48.0073 57.179 48.3986C57.179 48.7898 57.2763 49.0951 57.4719 49.2948C57.6676 49.4935 57.9298 49.5939 58.2606 49.5939C58.4337 49.5939 58.5822 49.5703 58.7082 49.5232C58.8342 49.4761 58.9458 49.4208 59.0431 49.3573C59.0954 49.3911 59.1394 49.4372 59.1722 49.4955C59.206 49.5539 59.2234 49.6205 59.2234 49.6953C59.2234 49.7588 59.206 49.8172 59.1722 49.8704C59.1384 49.9227 59.0821 49.9698 59.0032 50.0118C58.9284 50.0568 58.8219 50.0988 58.6847 50.1388C58.5474 50.1777 58.3774 50.1982 58.1746 50.1982C57.9267 50.1982 57.6963 50.1613 57.4842 50.0886C57.2722 50.0159 57.0868 49.9042 56.9291 49.7557C56.7714 49.6072 56.6474 49.4208 56.5573 49.1954C56.4672 48.9701 56.4221 48.7058 56.4221 48.4016C56.4221 48.0974 56.4672 47.8506 56.5573 47.6273C56.6474 47.404 56.7703 47.2166 56.926 47.064C57.0817 46.9124 57.264 46.7967 57.473 46.7178C57.6809 46.6389 57.9021 46.599 58.1346 46.599C58.2965 46.599 58.4429 46.6133 58.574 46.641C58.7051 46.6696 58.8178 46.7075 58.912 46.7567C59.0063 46.8059 59.0769 46.8622 59.1261 46.9257C59.1753 46.9892 59.1998 47.0568 59.1998 47.1285L59.2019 47.1254ZM62.035 48.7694C62.035 48.9875 62.0022 49.1831 61.9366 49.3583C61.8711 49.5334 61.7779 49.682 61.658 49.8059C61.5382 49.9298 61.3938 50.0251 61.2248 50.0906C61.0558 50.1562 60.8663 50.189 60.6553 50.189C60.4443 50.189 60.2558 50.1562 60.0868 50.0906C59.9178 50.0251 59.7734 49.9308 59.6526 49.809C59.5327 49.6871 59.4395 49.5386 59.374 49.3644C59.3084 49.1893 59.2756 48.9916 59.2756 48.7704C59.2756 48.5491 59.3084 48.3566 59.374 48.1814C59.4395 48.0063 59.5338 47.8588 59.6556 47.7369C59.7775 47.615 59.923 47.5208 60.092 47.4552C60.261 47.3897 60.4484 47.3569 60.6553 47.3569C60.8622 47.3569 61.0496 47.3897 61.2186 47.4552C61.3876 47.5208 61.5331 47.616 61.655 47.74C61.7769 47.8639 61.8711 48.0135 61.9366 48.1876C62.0022 48.3627 62.035 48.5563 62.035 48.7704V48.7694ZM60.6543 47.9192C60.4515 47.9192 60.2917 47.993 60.176 48.1415C60.0592 48.29 60.0008 48.4989 60.0008 48.7694C60.0008 49.0398 60.0582 49.2538 60.1729 49.4003C60.2876 49.5468 60.4484 49.6205 60.6543 49.6205C60.8602 49.6205 61.021 49.5468 61.1357 49.3982C61.2504 49.2497 61.3078 49.0408 61.3078 48.7704C61.3078 48.5 61.2494 48.291 61.1326 48.1425C61.0158 47.994 60.8561 47.9203 60.6533 47.9203L60.6543 47.9192ZM62.3054 46.6399C62.3054 46.5314 62.3443 46.4382 62.4211 46.3613C62.4979 46.2845 62.5963 46.2456 62.7171 46.2456C62.838 46.2456 62.9353 46.2845 63.0101 46.3613C63.0848 46.4382 63.1227 46.5314 63.1227 46.6399C63.1227 46.7485 63.0848 46.8479 63.0101 46.9247C62.9353 47.0015 62.837 47.0404 62.7171 47.0404C62.5973 47.0404 62.4979 47.0015 62.4211 46.9247C62.3443 46.8479 62.3054 46.7526 62.3054 46.6399ZM62.3617 47.4573C62.3914 47.4501 62.4354 47.4399 62.4938 47.4286C62.5522 47.4173 62.6147 47.4112 62.6823 47.4112C62.8175 47.4112 62.9158 47.4358 62.9783 47.4839C63.0398 47.5331 63.0715 47.6191 63.0715 47.7431V50.0978C63.0418 50.105 62.9978 50.1152 62.9394 50.1265C62.881 50.1377 62.8185 50.1429 62.7509 50.1429C62.6157 50.1429 62.5174 50.1183 62.4549 50.0701C62.3935 50.021 62.3617 49.9349 62.3617 49.811V47.4563V47.4573ZM65.1589 48.0319C65.0667 47.9571 64.9418 47.9192 64.784 47.9192C64.6755 47.9192 64.5751 47.9325 64.4829 47.9581C64.3907 47.9848 64.3108 48.0186 64.2432 48.0595V50.0988C64.2094 50.106 64.1644 50.1162 64.108 50.1275C64.0517 50.1388 63.9882 50.1439 63.9165 50.1439C63.7854 50.1439 63.6871 50.1193 63.6236 50.0712C63.5601 50.022 63.5273 49.936 63.5273 49.812V48.0032C63.5273 47.9131 63.5457 47.8404 63.5836 47.783C63.6215 47.7267 63.6799 47.6724 63.7588 47.6201C63.8673 47.5454 64.0118 47.4819 64.192 47.4317C64.3723 47.3815 64.571 47.3559 64.7892 47.3559C65.1763 47.3559 65.4754 47.4409 65.6874 47.612C65.8995 47.783 66.006 48.0339 66.006 48.3637V50.0988C65.9763 50.106 65.9322 50.1162 65.8738 50.1275C65.8155 50.1388 65.753 50.1439 65.6854 50.1439C65.5502 50.1439 65.4519 50.1193 65.3894 50.0712C65.3269 50.022 65.2962 49.936 65.2962 49.812V48.3863C65.2962 48.2245 65.2501 48.1067 65.1579 48.0309L65.1589 48.0319ZM68.5195 49.3501C68.5195 49.6133 68.4222 49.8192 68.2265 49.9667C68.0309 50.1152 67.7462 50.189 67.3703 50.189C67.2166 50.189 67.0763 50.1777 66.9503 50.1552C66.8243 50.1326 66.7158 50.0998 66.6236 50.0568C66.5314 50.0138 66.4597 49.9606 66.4095 49.8991C66.3593 49.8366 66.3337 49.769 66.3337 49.6932C66.3337 49.6174 66.3501 49.5601 66.3819 49.5068C66.4136 49.4546 66.4556 49.4116 66.5089 49.3778C66.6144 49.4454 66.7352 49.5058 66.8725 49.558C67.0097 49.6103 67.1685 49.6369 67.3488 49.6369C67.5024 49.6369 67.6192 49.6113 67.698 49.5611C67.7769 49.5099 67.8158 49.4402 67.8158 49.3501C67.8158 49.1965 67.7032 49.0951 67.4778 49.0459L67.1623 48.9732C66.8848 48.9097 66.6789 48.8134 66.5458 48.6864C66.4126 48.5584 66.346 48.3873 66.346 48.1732C66.346 47.9295 66.4433 47.7308 66.639 47.5792C66.8346 47.4266 67.1081 47.3508 67.4614 47.3508C67.5966 47.3508 67.7216 47.361 67.8363 47.3815C67.951 47.402 68.0504 47.4317 68.1354 47.4716C68.2204 47.5106 68.2859 47.5577 68.3331 47.613C68.3802 47.6673 68.4037 47.7308 68.4037 47.8014C68.4037 47.8721 68.3884 47.9284 68.3587 47.9786C68.329 48.0298 68.2931 48.0698 68.2521 48.0995C68.2183 48.077 68.1743 48.0544 68.12 48.0319C68.0657 48.0094 68.0053 47.9889 67.9398 47.9704C67.8742 47.952 67.8046 47.9356 67.7308 47.9223C67.6581 47.909 67.5854 47.9028 67.5137 47.9028C67.3672 47.9028 67.2525 47.9264 67.1695 47.9735C67.0866 48.0206 67.0456 48.0872 67.0456 48.1732C67.0456 48.2367 67.0691 48.29 67.1163 48.331C67.1634 48.3719 67.2453 48.4057 67.3611 48.4324L67.6376 48.5C67.949 48.5717 68.1743 48.6751 68.3136 48.8124C68.4529 48.9496 68.5225 49.1289 68.5225 49.3501H68.5195ZM72.3215 47.1254C72.3215 47.2002 72.301 47.2658 72.259 47.32C72.218 47.3743 72.1709 47.4163 72.1177 47.447C72.0204 47.3835 71.9108 47.3252 71.7909 47.2719C71.6711 47.2197 71.5226 47.193 71.3454 47.193C71.0258 47.193 70.7718 47.2965 70.5823 47.5024C70.3928 47.7093 70.2976 48.0073 70.2976 48.3986C70.2976 48.7898 70.3949 49.0951 70.5905 49.2948C70.7861 49.4935 71.0483 49.5939 71.3792 49.5939C71.5523 49.5939 71.7008 49.5703 71.8268 49.5232C71.9528 49.4761 72.0644 49.4208 72.1617 49.3573C72.2139 49.3911 72.257 49.4372 72.2908 49.4955C72.3246 49.5539 72.342 49.6205 72.342 49.6953C72.342 49.7588 72.3246 49.8172 72.2908 49.8704C72.257 49.9237 72.2006 49.9698 72.1218 50.0118C72.047 50.0568 71.9405 50.0988 71.8032 50.1388C71.666 50.1777 71.4959 50.1982 71.2931 50.1982C71.0453 50.1982 70.8148 50.1613 70.6028 50.0886C70.3908 50.0159 70.2054 49.9042 70.0477 49.7557C69.8899 49.6072 69.766 49.4208 69.6759 49.1954C69.5857 48.9701 69.5406 48.7058 69.5406 48.4016C69.5406 48.0974 69.5857 47.8506 69.6759 47.6273C69.766 47.404 69.8889 47.2166 70.0446 47.064C70.2003 46.9124 70.3826 46.7967 70.5905 46.7178C70.7994 46.6389 71.0197 46.599 71.2522 46.599C71.414 46.599 71.5605 46.6133 71.6916 46.641C71.8227 46.6696 71.9353 46.7075 72.0296 46.7567C72.1238 46.8059 72.1945 46.8622 72.2436 46.9257C72.2928 46.9892 72.3164 47.0568 72.3164 47.1285L72.3215 47.1254ZM73.6622 47.3559C74.0299 47.3559 74.3239 47.4348 74.5441 47.5925C74.7633 47.7502 74.8739 47.994 74.8739 48.3248V49.6266C74.8739 49.7168 74.8514 49.7885 74.8063 49.8407C74.7612 49.893 74.7049 49.9401 74.6373 49.9821C74.5318 50.0456 74.3987 50.0968 74.2368 50.1347C74.075 50.1726 73.8917 50.191 73.6848 50.191C73.3089 50.191 73.0139 50.1183 72.7978 49.9739C72.5816 49.8294 72.4741 49.6123 72.4741 49.3235C72.4741 49.0715 72.554 48.8789 72.7138 48.7458C72.8736 48.6126 73.105 48.5307 73.4092 48.501L74.1815 48.4221V48.3207C74.1815 48.1784 74.1303 48.0729 74.0269 48.0053C73.9234 47.9377 73.778 47.9039 73.5905 47.9039C73.4441 47.9039 73.3017 47.9213 73.1624 47.9571C73.0231 47.993 72.8992 48.037 72.7906 48.0892C72.7496 48.0595 72.7148 48.0186 72.6861 47.9684C72.6585 47.9172 72.6441 47.8619 72.6441 47.8025C72.6441 47.7277 72.6615 47.6662 72.6974 47.6191C72.7332 47.572 72.7906 47.53 72.8695 47.4921C72.978 47.447 73.102 47.4132 73.2413 47.3907C73.3806 47.3682 73.5209 47.3569 73.6632 47.3569L73.6622 47.3559ZM73.6848 49.6482C73.7933 49.6482 73.8937 49.6379 73.9838 49.6174C74.074 49.5969 74.1395 49.5713 74.1805 49.5416V48.9168L73.6346 48.9681C73.484 48.9834 73.3703 49.0162 73.2914 49.0664C73.2126 49.1176 73.1726 49.1965 73.1726 49.3061C73.1726 49.4157 73.2126 49.4996 73.2935 49.559C73.3744 49.6195 73.5045 49.6492 73.6848 49.6492V49.6482ZM77.369 49.3501C77.369 49.6133 77.2717 49.8192 77.076 49.9667C76.8804 50.1152 76.5957 50.189 76.2198 50.189C76.0661 50.189 75.9258 50.1777 75.7998 50.1552C75.6738 50.1326 75.5653 50.0998 75.4731 50.0568C75.3809 50.0138 75.3092 49.9606 75.259 49.8991C75.2088 49.8366 75.1832 49.769 75.1832 49.6932C75.1832 49.6174 75.1996 49.5601 75.2314 49.5068C75.2631 49.4546 75.3051 49.4116 75.3584 49.3778C75.4639 49.4454 75.5847 49.5058 75.722 49.558C75.8592 49.6103 76.018 49.6369 76.1983 49.6369C76.3519 49.6369 76.4687 49.6113 76.5475 49.5611C76.6264 49.5099 76.6653 49.4402 76.6653 49.3501C76.6653 49.1965 76.5526 49.0951 76.3273 49.0459L76.0118 48.9732C75.7343 48.9097 75.5284 48.8134 75.3952 48.6864C75.2621 48.5584 75.1955 48.3873 75.1955 48.1732C75.1955 47.9295 75.2928 47.7308 75.4885 47.5792C75.6841 47.4266 75.9576 47.3508 76.3109 47.3508C76.4461 47.3508 76.5711 47.361 76.6858 47.3815C76.8005 47.402 76.8999 47.4317 76.9849 47.4716C77.0699 47.5106 77.1354 47.5577 77.1826 47.613C77.2297 47.6673 77.2532 47.7308 77.2532 47.8014C77.2532 47.8721 77.2379 47.9284 77.2082 47.9786C77.1785 48.0298 77.1426 48.0698 77.1016 48.0995C77.0678 48.077 77.0238 48.0544 76.9695 48.0319C76.9152 48.0094 76.8548 47.9889 76.7893 47.9704C76.7237 47.952 76.654 47.9356 76.5803 47.9223C76.5076 47.909 76.4349 47.9028 76.3632 47.9028C76.2167 47.9028 76.102 47.9264 76.019 47.9735C75.9361 48.0206 75.8951 48.0872 75.8951 48.1732C75.8951 48.2367 75.9186 48.29 75.9658 48.331C76.0129 48.3719 76.0948 48.4057 76.2105 48.4324L76.4871 48.5C76.7985 48.5717 77.0238 48.6751 77.1631 48.8124C77.3024 48.9496 77.372 49.1289 77.372 49.3501H77.369ZM77.6281 46.6399C77.6281 46.5314 77.667 46.4382 77.7438 46.3613C77.8207 46.2845 77.919 46.2456 78.0399 46.2456C78.1607 46.2456 78.258 46.2845 78.3328 46.3613C78.4076 46.4382 78.4455 46.5314 78.4455 46.6399C78.4455 46.7485 78.4076 46.8479 78.3328 46.9247C78.258 47.0015 78.1597 47.0404 78.0399 47.0404C77.92 47.0404 77.8207 47.0015 77.7438 46.9247C77.667 46.8479 77.6281 46.7526 77.6281 46.6399ZM77.6844 47.4573C77.7141 47.4501 77.7582 47.4399 77.8166 47.4286C77.875 47.4173 77.9374 47.4112 78.005 47.4112C78.1402 47.4112 78.2386 47.4358 78.301 47.4839C78.3625 47.5331 78.3942 47.6191 78.3942 47.7431V50.0978C78.3645 50.105 78.3205 50.1152 78.2621 50.1265C78.2037 50.1377 78.1413 50.1429 78.0737 50.1429C77.9385 50.1429 77.8401 50.1183 77.7776 50.0701C77.7162 50.021 77.6844 49.9349 77.6844 49.811V47.4563V47.4573ZM80.4817 48.0319C80.3895 47.9571 80.2645 47.9192 80.1068 47.9192C79.9982 47.9192 79.8978 47.9325 79.8057 47.9581C79.7135 47.9848 79.6336 48.0186 79.566 48.0595V50.0988C79.5322 50.106 79.4871 50.1162 79.4308 50.1275C79.3744 50.1388 79.3109 50.1439 79.2393 50.1439C79.1081 50.1439 79.0098 50.1193 78.9463 50.0712C78.8828 50.022 78.85 49.936 78.85 49.812V48.0032C78.85 47.9131 78.8685 47.8404 78.9064 47.783C78.9443 47.7267 79.0026 47.6724 79.0815 47.6201C79.1901 47.5454 79.3355 47.4819 79.5158 47.4317C79.6961 47.3815 79.8948 47.3559 80.1129 47.3559C80.5001 47.3559 80.7992 47.4409 81.0112 47.612C81.2232 47.783 81.3297 48.0339 81.3297 48.3637V50.0988C81.3 50.106 81.256 50.1162 81.1976 50.1275C81.1392 50.1388 81.0768 50.1439 81.0092 50.1439C80.8739 50.1439 80.7756 50.1193 80.7131 50.0712C80.6507 50.022 80.6199 49.936 80.6199 49.812V48.3863C80.6199 48.2245 80.5738 48.1067 80.4817 48.0309V48.0319ZM84.3943 48.7694C84.3943 48.9875 84.3615 49.1831 84.296 49.3583C84.2304 49.5334 84.1372 49.682 84.0174 49.8059C83.8975 49.9298 83.7531 50.0251 83.5841 50.0906C83.4151 50.1562 83.2256 50.189 83.0146 50.189C82.8036 50.189 82.6141 50.1562 82.4462 50.0906C82.2772 50.0251 82.1327 49.9308 82.0119 49.809C81.892 49.6871 81.7988 49.5386 81.7333 49.3644C81.6677 49.1903 81.635 48.9916 81.635 48.7704C81.635 48.5491 81.6677 48.3566 81.7333 48.1814C81.7988 48.0063 81.8931 47.8588 82.015 47.7369C82.1368 47.615 82.2823 47.5208 82.4513 47.4552C82.6203 47.3897 82.8077 47.3569 83.0146 47.3569C83.2215 47.3569 83.409 47.3897 83.578 47.4552C83.747 47.5208 83.8924 47.616 84.0143 47.74C84.1362 47.8639 84.2304 48.0135 84.296 48.1876C84.3615 48.3627 84.3943 48.5563 84.3943 48.7704V48.7694ZM83.0136 47.9192C82.8108 47.9192 82.651 47.993 82.5353 48.1415C82.4185 48.29 82.3601 48.4989 82.3601 48.7694C82.3601 49.0398 82.4175 49.2538 82.5322 49.4003C82.6469 49.5468 82.8077 49.6205 83.0136 49.6205C83.2195 49.6205 83.3803 49.5468 83.495 49.3982C83.6097 49.2497 83.6671 49.0408 83.6671 48.7704C83.6671 48.5 83.6087 48.291 83.4919 48.1425C83.3752 47.994 83.2164 47.9203 83.0136 47.9203V47.9192Z" fill="white"></path></svg> 