<?xml version="1.0" encoding="UTF-8"?> <svg xmlns="http://www.w3.org/2000/svg" width="125" height="60" viewBox="0 0 125 60" fill="none"><path fill-rule="evenodd" clip-rule="evenodd" d="M21.2203 28.0613C21.2203 28.0613 16.3503 28.7013 15.6103 27.9713C14.3103 26.4713 16.5803 24.4913 18.6103 24.2813C19.0103 23.0113 21.0403 21.5213 22.2203 22.1713C23.9803 23.1413 21.2303 28.0713 21.2303 28.0713L21.2203 28.0613Z" fill="url(#paint0_linear_779_610)"></path><path fill-rule="evenodd" clip-rule="evenodd" d="M20.94 29.0618C20.94 29.0618 14.3 28.1818 13.2 32.3018C12.98 33.1118 13.38 33.7818 13.94 34.0518C13.78 34.3918 13.29 35.1618 12 34.8818C12.23 35.2318 13.01 36.1718 13.11 37.2818C13.23 36.6918 13.11 36.0818 14.31 34.7918C14.36 35.5818 14.43 37.4818 16.06 37.1918C21.22 36.2718 20.95 29.0618 20.95 29.0618H20.94Z" fill="url(#paint1_linear_779_610)"></path><path fill-rule="evenodd" clip-rule="evenodd" d="M22.051 28.0616C22.051 28.0616 23.9712 21.291 27.7716 22.061C28.7817 22.2511 29.4317 23.5412 29.1517 24.0012C29.8618 24.0012 32.192 23.9112 32.292 25.8414C32.382 28.8117 23.8012 28.8617 22.051 28.0516V28.0616Z" fill="url(#paint2_linear_779_610)"></path><path fill-rule="evenodd" clip-rule="evenodd" d="M22.0509 29.5317C22.0509 29.5317 20.6708 32.392 21.2208 35.6223C21.7709 38.8527 25.2012 38.6926 26.2113 37.4925C27.3714 36.4024 27.4014 35.5323 27.4914 34.8823C28.5615 34.8823 31.5518 34.7022 32.2919 32.392C32.5219 31.6619 32.1119 28.4216 25.3712 28.9817C23.431 29.1417 22.0509 29.5317 22.0509 29.5317Z" fill="url(#paint3_linear_779_610)"></path><path fill-rule="evenodd" clip-rule="evenodd" d="M35.9824 24.9211H38.3827L41.983 30.9116L45.5834 24.9211H47.9836L48.0736 35.3421H45.3033V29.8115L42.7231 34.332H41.3429L38.6727 30.0016V35.3521H36.0024V24.9211H35.9824ZM55.4443 30.4516L57.5645 29.4415C57.5645 29.4415 56.9445 27.1513 53.8442 27.1513C50.7439 27.1513 49.2637 29.1515 49.2637 31.1017C49.3337 34.622 52.244 35.4421 54.0642 35.4321C56.7445 35.4321 57.5645 33.3119 57.5645 33.3119L55.4443 32.1118C55.4443 32.1118 54.8943 33.3119 53.7842 33.2219C52.6741 33.1319 51.944 32.3918 52.034 31.1917C52.124 29.9916 52.8641 29.3515 53.7842 29.3515C54.7043 29.3515 55.1643 30.0016 55.4443 30.4616V30.4516ZM82.837 30.4516L84.9572 29.4415C84.9572 29.4415 84.3372 27.1513 81.2369 27.1513C78.1366 27.1513 76.6564 29.1515 76.6564 31.1017C76.7264 34.622 79.6367 35.4421 81.4569 35.4321C84.1372 35.4321 84.9572 33.3119 84.9572 33.3119L82.837 32.1118C82.837 32.1118 82.287 33.3119 81.1769 33.2219C80.0668 33.1319 79.3367 32.3918 79.4267 31.1917C79.5167 29.9916 80.2568 29.3515 81.1769 29.3515C82.097 29.3515 82.557 30.0016 82.837 30.4616V30.4516ZM58.4846 24.9211H61.4349V32.9418H66.4154V35.3421H58.4846V24.9211ZM85.7873 24.271H88.6476V30.0816L91.4179 27.3113H94.7382L91.4179 30.7216L95.1082 35.3321H91.6979L89.4877 32.4718L88.6576 33.3019V35.3321H85.7973V24.271H85.7873ZM96.9484 35.4321C97.3085 35.4321 97.5985 35.1421 97.5985 34.782C97.5985 34.422 97.3085 34.132 96.9484 34.132C96.5884 34.132 96.2984 34.422 96.2984 34.782C96.2984 35.1421 96.5884 35.4321 96.9484 35.4321ZM67.1555 27.3213H69.9258V31.7517C69.9258 31.7517 69.9258 33.0419 71.2159 33.0419C72.506 33.0419 72.786 31.9317 72.786 31.3817V27.3213H75.5563V35.3421H72.8861V34.422C72.8861 34.422 72.146 35.4321 70.4858 35.4321C68.8257 35.4321 67.1655 34.692 67.1655 31.6517V27.3213H67.1555ZM101.189 32.6718L101.929 32.2118C101.929 32.2118 101.379 31.3317 100.179 31.3317C99.1986 31.3317 98.1185 31.9017 98.1285 33.3119C98.1285 33.9219 98.2986 35.3421 100.179 35.3421C100.179 35.3421 101.469 35.3421 101.839 34.422C101.559 34.212 101.189 34.052 101.189 34.052C101.189 34.052 100.819 34.602 100.179 34.602C99.5387 34.602 98.9786 34.142 98.9786 33.3119C98.9786 32.4818 99.5287 32.1118 100.179 32.1118C100.829 32.1118 101.009 32.3918 101.189 32.6618V32.6718ZM104.419 31.3317C105.589 31.3317 106.539 32.2318 106.539 33.3419C106.539 34.452 105.589 35.3521 104.419 35.3521C103.249 35.3521 102.299 34.452 102.299 33.3419C102.299 32.2318 103.249 31.3317 104.419 31.3317ZM104.419 32.0718C103.759 32.0718 103.219 32.6418 103.219 33.3419C103.219 34.042 103.759 34.612 104.419 34.612C105.079 34.612 105.619 34.042 105.619 33.3419C105.619 32.6418 105.079 32.0718 104.419 32.0718ZM107.459 31.3817H108.29V31.8417C108.29 31.8417 108.75 31.3817 109.49 31.3817C109.94 31.3817 110.5 31.3817 110.87 32.0318C110.87 32.0318 111.24 31.3817 112.25 31.3817C113.26 31.3817 113.91 31.7517 113.91 32.7618C113.91 33.7719 114 35.3421 114 35.3421H113.08V32.8518C113.08 32.8518 112.9 32.1118 112.25 32.1118C112.25 32.1118 111.14 31.9317 111.14 33.2219V35.3421H110.22V33.2219C110.22 33.2219 110.4 32.1118 109.39 32.1118C108.38 32.1118 108.38 32.9418 108.38 33.2219V35.3421H107.459V31.3717V31.3817Z" fill="white"></path><defs><linearGradient id="paint0_linear_779_610" x1="16.5135" y1="27.6071" x2="23.0842" y2="26.031" gradientUnits="userSpaceOnUse"><stop stop-color="#48F317"></stop><stop offset="0.48" stop-color="#39D44D"></stop><stop offset="1" stop-color="#0F80E0"></stop></linearGradient><linearGradient id="paint1_linear_779_610" x1="19.2384" y1="34.3628" x2="14.5777" y2="32.6877" gradientUnits="userSpaceOnUse"><stop stop-color="#F2AC11"></stop><stop offset="0.23" stop-color="#E8D318"></stop><stop offset="0.51" stop-color="#DDD518"></stop><stop offset="0.75" stop-color="#B4DD17"></stop><stop offset="1" stop-color="#84E617"></stop></linearGradient><linearGradient id="paint2_linear_779_610" x1="25.3103" y1="22.8807" x2="26.1371" y2="25.4856" gradientUnits="userSpaceOnUse"><stop stop-color="#4F5FBE"></stop><stop offset="1" stop-color="#E61A5C"></stop></linearGradient><linearGradient id="paint3_linear_779_610" x1="22.1957" y1="34.2022" x2="31.5479" y2="29.7104" gradientUnits="userSpaceOnUse"><stop stop-color="#F5980D"></stop><stop offset="0.49" stop-color="#FE4316"></stop><stop offset="0.79" stop-color="#FB233B"></stop><stop offset="1" stop-color="#FC144E"></stop></linearGradient></defs></svg> 