<?xml version="1.0" encoding="UTF-8"?> <svg xmlns="http://www.w3.org/2000/svg" width="125" height="60" viewBox="0 0 125 60" fill="none"><path fill-rule="evenodd" clip-rule="evenodd" d="M92.9839 45.6246C93.0786 45.6239 93.1418 45.6546 93.174 45.7658L93.3659 46.4286C93.4361 46.4561 93.5765 46.4809 93.5773 46.5383L93.5806 46.7859C93.5835 47.0012 93.7286 47.2619 93.6431 47.4827C93.5535 47.7145 93.4954 47.9522 93.6577 48.1471C93.4584 48.7591 92.9817 49.0981 92.4541 49.4407L87.5385 52.6319C86.6117 53.1935 85.5086 53.1116 84.7411 52.3891L78.4486 52.3814C77.4596 52.3803 76.5415 52.1807 75.5971 51.9339C75.1649 51.8209 74.7766 51.7291 74.3941 51.4564C73.5276 52.4107 72.3554 52.6143 71.132 52.6381C69.5492 52.6692 68.064 52.0085 67.389 50.5156C66.5766 52.0176 65.0991 52.6875 63.4797 52.6377C62.5656 52.6096 61.7474 52.5193 60.9642 52.067C60.415 52.29 59.7697 52.5043 59.1412 52.5039L53.9459 52.5003C53.0293 52.4995 52.2026 52.0915 51.4874 51.6081C50.2786 52.1423 49.0044 52.4769 47.6578 52.4794L42.9671 52.4886C41.8289 52.4907 40.777 52.2549 39.7057 51.9226C38.4034 51.671 37.6611 50.3833 38.0871 49.1427C37.7964 48.2597 37.9697 47.346 38.633 46.6696C38.4048 46.5409 38.2114 46.3566 38.0531 46.1222C38.0205 45.8952 38.1244 45.7701 38.3065 45.6034C38.6114 45.3244 39.0125 44.6696 38.7456 44.4287L38.9485 44.3906C39.3756 44.5921 39.8242 44.7361 40.2955 44.8224C40.2015 45.5314 40.0816 46.2411 39.9346 46.9511C39.0169 47.2703 38.5083 48.2955 39.1277 49.1131C39.5653 49.6911 41.0538 49.9496 41.7741 50.0549C43.6717 50.1727 45.5609 50.2045 47.4425 50.1504C48.9313 50.135 50.3551 49.7909 51.6249 49.0169C52.2366 49.5931 52.8838 50.0681 53.7543 50.1339C55.7616 50.1935 57.7675 50.1741 59.7719 50.0761C60.2124 49.9632 60.6322 49.7895 61.0304 49.5548C61.9017 50.2403 63.1035 50.3909 64.1872 50.2513C65.9645 50.0224 66.6969 48.7643 67.0973 47.1584C67.3671 47.0162 67.9185 46.9339 68.0099 47.2762C67.8622 48.9438 68.9558 50.0984 70.6095 50.2458C72.0219 50.3719 73.3459 50.1368 74.155 48.8655C74.2643 48.7354 74.3663 48.791 74.4881 48.8959C74.6446 49.0959 74.8369 49.2842 75.0801 49.3741C76.0848 49.7467 77.1444 50.007 78.2219 50.0341C80.5371 50.0304 82.8523 50.0447 85.1663 50.0765C85.7853 50.7361 86.3601 50.7248 87.1257 50.3419L92.1692 47.0842C92.5978 46.7361 92.9239 46.3434 92.8581 45.7614L92.9839 45.6243V45.6246Z" fill="#1452AE"></path><path d="M93.658 48.1478C93.3926 48.1661 93.3922 47.9335 93.4251 47.712C93.5257 47.3749 93.5286 47.0125 93.4343 46.6246C93.1941 46.4403 93.0785 46.158 93.0873 45.7778L92.9842 45.6246L92.8248 45.5716C92.6686 45.0447 92.3206 44.659 91.7608 44.5727L89.7593 44.531C89.6588 44.493 89.6116 44.4118 89.5981 44.308L91.2032 37.6539C74.299 37.7011 57.3795 37.7131 40.4443 37.6897C39.8066 37.4693 39.2819 37.8407 39.1079 38.4532C38.743 39.7376 40.0018 40.3263 41.1262 40.1961C41.2625 40.2619 41.2706 40.2886 41.3035 40.429C41.3251 40.5208 41.0461 41.8144 40.8483 41.8195L39.5869 42.0374C38.9437 42.2195 38.5404 42.6338 38.5097 43.3124L38.366 43.4253L38.3115 43.6623C38.0472 43.8199 37.9364 43.999 37.9788 44.1997C38.3035 44.1054 38.5455 44.1614 38.705 44.3672C38.7675 44.3548 38.7806 44.3756 38.7455 44.4294C38.9072 44.5365 38.9803 44.6546 38.9642 44.7833C38.7777 45.2893 38.4739 45.7358 38.053 46.1226C37.596 45.591 37.5064 44.8835 37.7251 44.2001C37.3927 43.191 37.6476 42.1467 38.5196 41.5244C38.1185 40.9296 38.0563 40.2725 38.253 39.6309C38.0903 39.0901 38.0794 38.5559 38.2618 38.0173C36.9276 37.1106 36.3898 35.3552 36.0797 33.764L33.2936 33.7592C32.5967 33.7581 32.1159 33.3592 31.9192 32.6711C31.351 30.6818 31.3445 28.5626 31.7891 26.5293C31.8786 26.1202 32.0403 25.79 32.2454 25.4094C31.192 25.2346 30.3532 24.7498 29.7196 23.929C28.875 22.8354 28.7668 21.3239 29.4326 20.0555C30.0212 18.9341 31.2512 18.1531 32.6326 18.1202C34.8885 18.0665 36.6103 19.9297 36.3836 22.1414C36.2885 23.0697 35.8933 23.8416 35.1971 24.4767C35.1028 24.5626 35.2081 24.9209 35.3287 24.9502C35.5313 24.9992 35.7869 24.9831 35.9887 24.9695C36.4019 22.9674 37.0764 21.0442 39.1039 20.314C39.4944 13.7481 45.2497 8.06949 51.7865 8.05633L79.6387 8.00002C83.0756 7.99308 86.4105 9.4417 88.835 11.7806C91.2595 14.1195 92.6021 17.2709 92.7666 20.5743C94.3604 21.4295 94.937 23.3988 95.2862 25.114C95.71 27.1944 95.6994 29.2598 95.5129 31.368C95.2796 34.0046 94.8741 37.1614 92.3984 38.4305L91.1378 43.6498C91.9893 43.5537 92.7264 43.8334 93.2489 44.4465C93.752 45.037 93.9085 45.852 93.6639 46.6443C93.7849 47.1515 93.8467 47.6685 93.658 48.1482V48.1478Z" fill="#1D224F"></path><path d="M32.7101 24.6529C34.3227 24.6529 35.63 23.3603 35.63 21.7659C35.63 20.1715 34.3227 18.8789 32.7101 18.8789C31.0975 18.8789 29.7902 20.1715 29.7902 21.7659C29.7902 23.3603 31.0975 24.6529 32.7101 24.6529Z" fill="#E6213E"></path><path d="M32.6614 32.4171C32.1751 30.6595 32.1477 28.8742 32.4559 27.1137C32.5294 26.6943 32.6417 26.3374 32.8252 25.9857L33.1875 27.091C33.3791 27.6753 33.9543 27.9769 34.5232 27.8873C35.1071 27.7952 35.532 27.253 35.461 26.642L35.2186 25.7422L36.1437 25.7532C35.6885 28.1798 35.7517 30.5315 36.2863 32.9754L33.076 32.9772C32.8402 32.9772 32.74 32.6456 32.6614 32.4178V32.4171Z" fill="#1182E2"></path><path d="M33.7295 27.037L33.1898 25.1778C33.6191 25.1168 33.9759 24.9935 34.4044 24.7734L34.9485 26.7091C35.0333 27.0111 34.7587 27.3007 34.5412 27.3526C34.2403 27.4239 33.8278 27.3752 33.7299 27.0374L33.7295 27.037Z" fill="#1485E5"></path><path d="M38.705 44.3676C38.4805 44.2356 38.2472 44.3373 37.9872 44.345C37.8106 44.3501 37.8018 44.0894 37.8289 43.9702C37.8574 43.8437 38.1313 43.6327 38.3656 43.4258C38.3788 43.7647 38.5243 44.0748 38.7046 44.368L38.705 44.3676Z" fill="#0D2798"></path><path d="M90.7191 37.0466L40.4589 37.0349C39.0732 37.0349 37.89 36.0539 37.4107 34.8612C36.2787 32.044 36.1394 28.7713 36.6289 25.8035C36.8271 24.602 37.0761 23.4898 37.7006 22.4171C38.207 21.5472 39.2103 20.8496 40.3046 20.8496L91.0548 20.8514C92.2698 20.8514 93.2709 21.7746 93.7338 22.7732C95.0094 25.5238 95.0906 29.5863 94.5206 32.5413C94.0957 34.7431 93.2332 36.908 90.7188 37.0466H90.7191Z" fill="#4AB2FA"></path><path d="M78.5564 36.0103L65.9744 36.0176L65.985 21.8071L78.5608 21.8027C79.7338 26.4436 79.7751 31.2436 78.5564 36.0103Z" fill="#092592"></path><path d="M78.1436 35.513L66.4884 35.5155L66.4873 22.2999L78.1546 22.293C79.171 26.6129 79.2266 31.0764 78.1436 35.5133V35.513Z" fill="url(#paint0_linear_5135_9367)"></path><path d="M72.6851 33.8434C71.997 33.9651 71.3016 33.9728 70.6913 33.7092C70.0321 33.4247 69.7385 32.6675 69.8913 31.9703L71.2537 25.7575C71.5798 24.2702 72.9213 23.8544 74.4164 24.1923C75.174 24.3634 75.6997 25.125 75.5242 25.9466L74.1491 32.386C73.9904 33.1301 73.4401 33.7096 72.6848 33.843L72.6851 33.8434Z" fill="#0B2793"></path><path d="M73.7147 32.1804C73.4438 33.4367 72.2924 33.6341 71.0449 33.3621C70.522 33.248 70.2357 32.6667 70.3516 32.1321L71.7224 25.8038C71.8185 25.3607 72.0796 24.9526 72.4639 24.7519C73.0628 24.4389 74.4072 24.4313 74.8342 24.9526C75.0244 25.1848 75.1443 25.5464 75.0693 25.8945L73.7147 32.1807V32.1804Z" fill="#FEFEFE"></path><path d="M38.2263 34.7301C37.0698 31.9444 36.9967 28.4216 37.5112 25.5426C37.664 24.687 37.906 23.9006 38.2439 23.1247C38.7353 22.2125 39.6241 21.7935 40.6611 21.7949L51.5821 21.807C50.4025 26.4786 50.4186 31.2833 51.5758 36.0135L40.2234 35.9999C39.374 35.9988 38.6611 35.3831 38.2263 34.7297V34.7301Z" fill="#092593"></path><path d="M40.249 35.5198C39.5192 35.3702 38.8702 34.9655 38.6132 34.2982C37.4648 31.3173 37.4457 26.9619 38.4779 23.9228C38.7218 22.8862 39.5931 22.2844 40.6607 22.2852L50.9338 22.2917C49.9496 26.6061 49.9243 31.1535 50.9415 35.5165L40.249 35.5198Z" fill="url(#paint1_linear_5135_9367)"></path><path d="M47.5795 32.8621C46.2881 34.2818 43.7323 34.4361 41.8274 34.0573C41.1305 33.9187 40.5067 33.6745 39.9854 33.2379C39.064 32.4665 38.94 31.1952 39.7462 30.3144C39.9477 30.0943 40.1422 29.8976 40.4055 29.7517C40.7616 29.5542 41.0281 29.6826 41.4066 29.8617C39.9265 28.6391 40.2384 26.2749 41.6179 25.1722C43.0629 24.0172 45.1554 23.9232 46.9188 24.3671C48.2175 24.694 49.3656 25.6651 49.091 26.9992C48.9305 27.7799 48.3645 28.4369 47.627 28.7649C48.7875 29.9316 48.6204 31.7177 47.5788 32.8628L47.5795 32.8621Z" fill="#0C2691"></path><path d="M46.4165 33.1655C44.8403 34.0046 42.0798 33.9775 40.6154 33.1121C40.0089 32.7534 39.5785 32.1271 39.7047 31.4233C39.8132 30.8171 40.2717 30.3673 40.8067 30.062C41.6176 30.7512 42.9661 31.4635 43.9277 31.2339C44.1014 31.1922 44.233 31.0357 44.2341 30.8869C44.2352 30.7516 44.1039 30.5816 43.9449 30.5198L42.2889 29.8756C41.6549 29.6291 41.1441 29.0752 40.9807 28.3973C40.6078 26.8526 41.5211 25.4083 43.0176 24.8986C44.4973 24.3948 46.6377 24.4529 47.9236 25.3027C48.5767 25.7341 48.8611 26.4968 48.539 27.2357C48.3576 27.6518 48.0165 28.0054 47.6348 28.2562C47.4666 28.3666 47.3226 28.2719 47.2085 28.1531C46.1895 27.0913 44.5357 26.7915 44.2458 27.3714C44.1898 27.4833 44.2048 27.6829 44.3723 27.7487L45.505 28.1937C46.6754 28.6533 47.9211 29.1147 47.9533 30.5655C47.9778 31.6628 47.433 32.6255 46.4169 33.1662L46.4165 33.1655Z" fill="#FEFEFE"></path><path d="M65.0537 36.0116L52.4709 36.0175C51.2925 31.3459 51.2768 26.5126 52.4757 21.8052L65.0566 21.8008L65.0537 36.0116Z" fill="#0A2592"></path><path d="M64.5545 35.5111L52.8803 35.5163C51.8182 31.1295 51.8449 26.6655 52.8789 22.2959L64.5483 22.293L64.5542 35.5108L64.5545 35.5111Z" fill="url(#paint2_linear_5135_9367)"></path><path d="M58.1558 31.8575C57.9865 32.9756 57.3098 34.0805 56.2538 34.0571L55.0443 34.0304C54.2111 33.9218 53.5324 33.165 53.7255 32.255L54.9946 26.2718C55.2286 25.1691 56.0034 24.3285 57.1741 24.3234L60.079 24.3106C60.822 24.3073 61.5511 24.5029 62.1807 24.8404C63.1189 25.3435 63.6582 26.2049 63.7375 27.2415C63.8355 28.5226 63.4706 29.7928 62.5141 30.6882C61.4169 31.7153 59.7467 31.9083 58.1562 31.8575H58.1558Z" fill="#0C2793"></path><path d="M62.9144 29.3705C61.9901 31.2772 59.7938 31.4812 57.7613 31.3942C57.6011 32.4187 57.2271 33.6081 56.2 33.5953L55.1624 33.5825C54.5284 33.5745 54.0457 32.958 54.1909 32.2838L55.5046 26.1921C55.6816 25.3723 56.343 24.7753 57.1938 24.7734L60.0081 24.7676C61.3942 24.7647 62.8695 25.4023 63.1901 26.784C63.392 27.6542 63.3057 28.5632 62.9141 29.3705H62.9144Z" fill="#FEFEFE"></path><path d="M60.0458 27.9591C60.0304 28.5661 59.6498 29.0143 59.0882 29.0228L58.21 29.0359L58.5884 27.2081C59.3672 27.1156 60.0644 27.2421 60.0462 27.9591H60.0458Z" fill="#0D2694"></path><path d="M59.4702 27.718C59.6717 27.8858 59.577 28.1991 59.4665 28.3491C59.313 28.5571 59.0665 28.6357 58.7708 28.5739L58.9543 27.662C59.0951 27.6364 59.3316 27.6024 59.4702 27.7176V27.718Z" fill="#1D84E3"></path><path d="M93.6464 26.2348C93.9696 28.894 93.9012 32.2599 92.8044 34.7078C92.4841 35.5356 91.7539 36.0244 90.8406 36.0233L79.4589 36.0116C80.619 31.3656 80.6303 26.5543 79.4709 21.8088L90.9151 21.8008C91.864 21.8001 92.5769 22.35 92.88 23.2139C93.2822 24.1814 93.517 25.1752 93.646 26.2348H93.6464Z" fill="#0A2693"></path><path d="M92.28 23.1576C93.6412 25.993 93.6423 31.4719 92.3717 34.4266C92.1403 34.9648 91.7242 35.5037 91.0621 35.5044L80.1056 35.5172C81.0847 31.2266 81.1122 26.6073 80.1001 22.291L91.0525 22.2994C91.6291 22.2998 92.054 22.6866 92.28 23.1572V23.1576Z" fill="url(#paint3_linear_5135_9367)"></path><path d="M91.0602 32.3665C90.8142 33.486 89.8891 33.98 88.8273 33.9262C88.0482 33.8867 87.4646 33.6224 87.0562 32.9493L85.7656 30.8224L85.3158 32.6524C85.0138 33.4933 84.3104 33.9251 83.4072 33.9131C82.8317 33.9054 82.2058 33.8992 81.7707 33.4692C81.3685 33.0718 81.2606 32.4674 81.382 31.9127L82.718 25.8126C82.8636 25.1479 83.2647 24.5435 83.8998 24.2682C84.774 23.889 86.1531 24.0407 86.7166 24.946L88.0822 27.1409L88.4837 25.5022C88.7802 24.2919 90.0496 23.8901 91.3224 24.1636C91.8917 24.2861 92.2906 24.7047 92.4072 25.2437C92.5096 25.7164 92.431 26.1332 92.3279 26.6012L91.0606 32.3665H91.0602Z" fill="#0C2791"></path><path d="M90.5849 32.3203C90.3981 33.1774 89.6705 33.4841 88.9045 33.46C88.329 33.4417 87.8676 33.3229 87.5506 32.8168L85.5382 29.6063L84.9107 32.3309C84.8069 32.7817 84.5272 33.1423 84.1107 33.3375C83.5535 33.4742 82.9656 33.5302 82.4022 33.339C81.9788 33.1953 81.7206 32.671 81.8241 32.1953L83.2076 25.8195C83.3963 24.9504 84.0712 24.5109 84.9276 24.5299C85.5751 24.5441 86.0767 24.7577 86.4241 25.3153L88.306 28.3342L88.9023 25.7193C89.0409 25.2187 89.3444 24.8063 89.8427 24.6359C90.269 24.5317 90.6862 24.5094 91.1356 24.5833C91.7158 24.6787 92.1294 25.2337 91.9915 25.8663L90.5857 32.3207L90.5849 32.3203Z" fill="#FEFEFE"></path><path d="M91.9675 20.4795C91.4055 20.3709 90.958 20.346 90.3949 20.346L39.9178 20.3533C40.157 17.1574 41.4199 14.4711 43.7189 12.2342C45.9698 10.1315 48.9131 8.78816 52.0758 8.78523L79.2856 8.76037C85.9836 8.69602 91.6132 13.7713 91.9675 20.4798V20.4795Z" fill="#1380E0"></path><path d="M89.6219 16.0073C89.9849 16.7067 90.2833 17.4431 90.4796 18.2091L90.4105 18.3521C90.4105 18.3521 81.9919 18.3506 65.1546 18.348L65.0647 18.2051L65.0625 16.0047L65.1316 15.8618C73.2471 15.8559 81.3641 15.8607 89.4822 15.8768L89.6222 16.0069L89.6219 16.0073Z" fill="#FEFDFE"></path><path d="M85.8716 11.8301C86.8102 12.4275 87.6292 13.1935 88.3308 14.0505L88.2617 14.1935C80.5605 14.1968 72.8577 14.1997 65.1539 14.203L65.064 14.06L65.0665 11.8637L65.1758 11.75L85.5886 11.7705L85.872 11.8301H85.8716Z" fill="#FEFDFE"></path><path d="M90.4798 18.2071L90.6468 18.8583C90.7481 19.2532 90.8644 19.6397 90.7617 20.0704L65.0612 20.0565L65.0644 18.2031L90.4798 18.2071Z" fill="#E6223F"></path><path d="M88.3309 14.0508C88.8293 14.6599 89.2582 15.3042 89.622 16.0051L65.0623 16.0025L65.0637 14.0603L88.3309 14.0508Z" fill="#E8213E"></path><path d="M85.8715 11.8318C85.8119 11.9298 85.768 11.9152 85.6386 11.9152L65.3691 11.913C65.2163 11.913 65.1531 11.8988 65.0664 11.8655L65.0671 9.92911C65.458 9.99749 65.8247 9.87464 66.1585 9.875L79.6097 9.88378L80.9399 9.96568L81.8609 10.1189C83.1494 10.3331 84.3007 10.8794 85.4221 11.5024C85.6126 11.6081 85.7366 11.7463 85.8711 11.8322L85.8715 11.8318Z" fill="#E7223E"></path><path d="M66.1582 9.87487L66.0705 10.0204L65.2252 10.0899L65.2109 11.7611L65.0665 11.8653L65.2109 11.9304C65.2102 12.6127 65.2094 13.2949 65.2083 13.9779L65.0639 14.0617C65.1202 14.0686 65.2029 14.0851 65.2083 14.1264C65.2482 14.4211 65.2537 15.6167 65.2069 15.8997L65.0625 16.0039C65.1191 16.0105 65.2036 16.0287 65.2069 16.069C65.2482 16.583 65.2321 17.3022 65.2087 17.8233C65.2533 18.0342 65.2051 18.1615 65.0646 18.2042C65.121 18.2192 65.2036 18.2426 65.2091 18.2865C65.2365 18.5205 65.2489 19.7655 65.2061 19.9552L65.0614 20.0576L41.0662 20.0426C41.51 14.4613 46.5652 9.90923 52.0724 9.8968L64.9813 9.86719L66.159 9.87487H66.1582Z" fill="#0321A6"></path><path d="M54.31 16.7779L51.7598 18.5146L52.6523 15.5925L50.2168 13.7179L53.3027 13.636L54.3225 10.7461L55.3338 13.6272L58.3835 13.7179L55.9831 15.5896L56.8566 18.4945L54.31 16.7779Z" fill="#FEFEFE"></path><path d="M47.8321 17.1056L46.0183 18.3188L46.6296 16.2855L44.9086 14.9447L47.0947 14.883L47.8234 12.8281L48.5418 14.8778L50.7184 14.9473L49 16.2654L49.6215 18.3239L47.8321 17.1056Z" fill="#FEFEFE"></path><path d="M61.0249 17.103L59.1942 18.3249L59.8158 16.2774L58.1079 14.9538L60.2556 14.8905L60.9902 12.8496L61.7167 14.8924L63.8739 14.9447L62.1598 16.2814L62.8278 18.3622L61.0249 17.103Z" fill="#FEFEFE"></path><path d="M92.9838 45.625C93.1293 46.4126 92.6507 46.9581 92.016 47.3669L87.2547 50.4312C86.5381 50.8926 85.6928 50.8948 85.1074 50.1987L78.3557 50.1797C77.2094 50.1764 76.1293 49.9043 75.0796 49.5281C74.7458 49.4086 74.5217 49.1943 74.299 48.8842C73.6705 49.9511 72.5619 50.4491 71.3495 50.41C70.7842 50.3917 70.2606 50.4213 69.74 50.2327C68.4562 49.7683 67.6815 48.5705 67.8815 47.2093C67.6394 47.1771 67.4285 47.1771 67.1955 47.2426C66.752 49.2817 65.6493 50.478 63.4756 50.429C62.5722 50.4085 61.7221 50.3219 61.0252 49.6788C60.4131 50.1179 59.736 50.297 58.9941 50.297L54.0914 50.2956C53.1097 50.2956 52.2193 49.8879 51.6135 49.1358C50.4234 50.0064 48.7257 50.293 47.2241 50.2978L43.3674 50.3102C42.0581 50.3146 40.7887 50.097 39.5733 49.629C38.9751 49.3987 38.6845 48.7713 38.7243 48.2009C38.7678 47.5811 39.1839 47.0919 39.8267 46.8821C39.8881 46.2082 40.0369 45.5943 40.2004 44.8799C39.6366 44.8539 39.1631 44.7252 38.7451 44.4305C38.7265 44.4137 38.7148 44.3852 38.7046 44.3684C38.3693 44.2148 38.125 43.7421 38.3656 43.4261C38.3349 42.6346 38.8537 42.0141 39.6738 41.8748L40.8859 41.6686L41.1755 40.3381C40.6325 40.3249 40.1261 40.3446 39.6625 40.1114C39.1364 39.8467 38.9013 39.3081 38.9152 38.7428C38.9272 38.2445 39.2731 37.6964 39.7887 37.5001C39.9927 37.4225 40.1671 37.5469 40.393 37.5469L90.6123 37.5501L91.4079 37.4968L89.7264 44.3888L91.722 44.428C92.3637 44.4404 92.8785 45.0536 92.9842 45.6243L92.9838 45.625Z" fill="url(#paint4_linear_5135_9367)"></path><path d="M75.8925 48.2351L79.3758 48.1097L78.1912 47.887C77.6705 46.9817 77.8734 45.9517 78.6672 45.2896L82.4244 42.1562L83.782 41.875L81.8215 41.8805L78.993 41.7558L80.4892 41.4498C80.1678 41.2549 79.8654 41.1627 79.6914 40.8896C79.4003 40.4333 79.4877 39.8896 79.6274 39.396C79.7169 39.0794 79.8647 38.9145 80.2595 38.9028L78.8321 38.3438L87.7155 38.347C88.7513 39.3788 88.9436 40.807 87.7959 41.7682L83.7458 45.1602C82.9787 45.268 82.2848 45.332 81.593 45.5503L88.2314 45.426L88.1052 45.9082L91.4566 45.9291L86.3458 49.2307C86.3352 49.0471 86.4676 48.8896 86.5155 48.706L78.2215 48.6779C77.4076 48.6749 76.6669 48.4844 75.8921 48.2351H75.8925Z" fill="#FEFEFE"></path><path d="M73.3458 47.3604C73.1926 48.0664 72.7341 48.6573 72.0566 48.8244C71.5316 48.9538 70.9974 48.9209 70.4595 48.8617C69.7389 48.7823 69.2094 48.0949 69.3656 47.356L70.5502 41.7637L69.0285 41.7221C68.5217 41.7082 67.9919 41.4149 67.8219 40.9144C67.5345 40.0683 68.1115 38.3502 69.48 38.3535L76.8054 38.3725C77.4336 38.374 78.0054 38.8464 78.0438 39.4201C78.1166 40.5049 77.5568 41.7323 76.4211 41.7327L72.4884 41.7341L74.4815 42.1272L73.3458 47.3604Z" fill="#FEFEFE"></path><path d="M60.8453 46.9675C60.5854 48.1745 60.226 48.8055 58.8669 48.8063L54.34 48.8088C53.7693 48.8088 53.1985 48.6717 52.8099 48.2509C52.4424 47.8531 52.34 47.2688 52.4578 46.7237L53.9656 39.7424C54.0223 39.4806 54.1517 39.251 54.298 39.0656L56.1199 38.7299L52.5492 38.6901C53.5294 38.3325 54.5521 38.2883 55.6062 38.2583C56.087 38.2447 56.5415 38.1976 57.0077 38.3226C57.834 38.5449 58.1024 39.2345 57.9166 40.0678L56.8194 44.9899L54.6534 45.4023L58.3484 45.3942C58.8596 45.3931 59.3335 45.3438 59.8227 45.4513C60.5572 45.6125 61.0044 46.2301 60.8457 46.9672L60.8453 46.9675Z" fill="#FEFEFE"></path><path d="M61.5993 47.4411L63.188 39.93C63.2523 39.6255 63.3664 39.356 63.5218 39.1026L65.7295 38.8178C64.4048 38.6763 63.1105 38.7114 61.72 38.7523C62.3492 38.4353 63.0403 38.3414 63.7397 38.3205L65.8648 38.2565C66.3042 38.2434 66.6728 38.4193 66.9254 38.7121C67.1781 39.005 67.3306 39.4317 67.2359 39.8679L65.5847 47.4941C65.4472 48.1285 64.9386 48.6773 64.3382 48.8276C63.7679 48.9702 63.2384 48.927 62.6567 48.8539C62.0461 48.7771 61.4432 48.1793 61.5993 47.4415V47.4411Z" fill="#FEFEFE"></path><path d="M44.5641 48.3223L41.4479 47.8543C41.2929 47.4338 41.2768 46.9961 41.3722 46.557L41.9097 44.081L44.789 43.5146L41.5206 43.5077L39.9934 43.3907C40.6815 43.1581 41.389 43.1274 42.1287 43.0327L42.6285 40.726C42.7426 40.1991 42.8585 39.6909 43.117 39.2232L45.5744 38.7998L43.0771 38.8101L40.6387 38.8072C41.8121 38.5424 42.936 38.3655 44.1217 38.3615L48.8841 38.3457C50.0354 38.3421 51.6289 38.6799 52.0983 39.677C52.4943 40.5183 52.4095 41.5874 51.8234 42.3165C51.3886 42.8569 50.7389 43.0733 50.0826 43.2609C50.7927 43.5212 51.4618 43.8236 51.7601 44.5131C52.2237 45.5837 51.9312 46.9197 51.0771 47.7168C50.136 48.595 48.3067 48.8053 46.974 48.8056L43.2746 48.8063C42.2713 48.8063 41.3163 48.6546 40.34 48.3193L44.5638 48.3223H44.5641Z" fill="#FEFEFE"></path><path d="M47.8308 44.7263C48.1697 45.2239 47.8882 45.9954 47.3171 46.1405C46.6626 46.3069 46.0344 46.2561 45.3595 46.251L45.7653 44.4082L47.09 44.4199C47.3218 44.4221 47.6666 44.4857 47.8308 44.7263Z" fill="url(#paint5_linear_5135_9367)"></path><path d="M48.2029 41.7181C48.1108 42.6764 47.1532 42.6058 46.1561 42.5718L46.509 40.9141L47.6311 40.9514C47.9971 40.9634 48.2669 41.3254 48.2029 41.7181Z" fill="url(#paint6_linear_5135_9367)"></path><defs><linearGradient id="paint0_linear_5135_9367" x1="72.7118" y1="35.5155" x2="72.7118" y2="22.293" gradientUnits="userSpaceOnUse"><stop offset="0.07" stop-color="#13173F"></stop><stop offset="0.08" stop-color="#2E3563"></stop><stop offset="0.11" stop-color="#495388"></stop><stop offset="0.13" stop-color="#616EA8"></stop><stop offset="0.16" stop-color="#7584C3"></stop><stop offset="0.19" stop-color="#8697D9"></stop><stop offset="0.22" stop-color="#92A5EA"></stop><stop offset="0.27" stop-color="#9BAEF6"></stop><stop offset="0.33" stop-color="#A0B4FD"></stop><stop offset="0.5" stop-color="#A2B6FF"></stop><stop offset="0.51" stop-color="#889FEA"></stop><stop offset="0.53" stop-color="#6883D2"></stop><stop offset="0.55" stop-color="#4D6BBD"></stop><stop offset="0.58" stop-color="#3758AC"></stop><stop offset="0.61" stop-color="#26499E"></stop><stop offset="0.64" stop-color="#1A3F95"></stop><stop offset="0.69" stop-color="#133990"></stop><stop offset="0.83" stop-color="#12378E"></stop><stop offset="0.88" stop-color="#122563"></stop><stop offset="0.92" stop-color="#121B48"></stop><stop offset="0.95" stop-color="#13173F"></stop></linearGradient><linearGradient id="paint1_linear_5135_9367" x1="44.3342" y1="35.5198" x2="44.3342" y2="22.2852" gradientUnits="userSpaceOnUse"><stop offset="0.07" stop-color="#13173F"></stop><stop offset="0.08" stop-color="#2E3563"></stop><stop offset="0.11" stop-color="#495388"></stop><stop offset="0.13" stop-color="#616EA8"></stop><stop offset="0.16" stop-color="#7584C3"></stop><stop offset="0.19" stop-color="#8697D9"></stop><stop offset="0.22" stop-color="#92A5EA"></stop><stop offset="0.27" stop-color="#9BAEF6"></stop><stop offset="0.33" stop-color="#A0B4FD"></stop><stop offset="0.5" stop-color="#A2B6FF"></stop><stop offset="0.51" stop-color="#889FEA"></stop><stop offset="0.53" stop-color="#6883D2"></stop><stop offset="0.55" stop-color="#4D6BBD"></stop><stop offset="0.58" stop-color="#3758AC"></stop><stop offset="0.61" stop-color="#26499E"></stop><stop offset="0.64" stop-color="#1A3F95"></stop><stop offset="0.69" stop-color="#133990"></stop><stop offset="0.83" stop-color="#12378E"></stop><stop offset="0.88" stop-color="#122563"></stop><stop offset="0.92" stop-color="#121B48"></stop><stop offset="0.95" stop-color="#13173F"></stop></linearGradient><linearGradient id="paint2_linear_5135_9367" x1="58.3242" y1="35.5166" x2="58.3242" y2="22.2933" gradientUnits="userSpaceOnUse"><stop offset="0.07" stop-color="#13173F"></stop><stop offset="0.08" stop-color="#2E3563"></stop><stop offset="0.11" stop-color="#495388"></stop><stop offset="0.13" stop-color="#616EA8"></stop><stop offset="0.16" stop-color="#7584C3"></stop><stop offset="0.19" stop-color="#8697D9"></stop><stop offset="0.22" stop-color="#92A5EA"></stop><stop offset="0.27" stop-color="#9BAEF6"></stop><stop offset="0.33" stop-color="#A0B4FD"></stop><stop offset="0.5" stop-color="#A2B6FF"></stop><stop offset="0.51" stop-color="#889FEA"></stop><stop offset="0.53" stop-color="#6883D2"></stop><stop offset="0.55" stop-color="#4D6BBD"></stop><stop offset="0.58" stop-color="#3758AC"></stop><stop offset="0.61" stop-color="#26499E"></stop><stop offset="0.64" stop-color="#1A3F95"></stop><stop offset="0.69" stop-color="#133990"></stop><stop offset="0.83" stop-color="#12378E"></stop><stop offset="0.88" stop-color="#122563"></stop><stop offset="0.92" stop-color="#121B48"></stop><stop offset="0.95" stop-color="#13173F"></stop></linearGradient><linearGradient id="paint3_linear_5135_9367" x1="86.7067" y1="35.5172" x2="86.7067" y2="22.291" gradientUnits="userSpaceOnUse"><stop offset="0.07" stop-color="#13173F"></stop><stop offset="0.08" stop-color="#2E3563"></stop><stop offset="0.11" stop-color="#495388"></stop><stop offset="0.13" stop-color="#616EA8"></stop><stop offset="0.16" stop-color="#7584C3"></stop><stop offset="0.19" stop-color="#8697D9"></stop><stop offset="0.22" stop-color="#92A5EA"></stop><stop offset="0.27" stop-color="#9BAEF6"></stop><stop offset="0.33" stop-color="#A0B4FD"></stop><stop offset="0.5" stop-color="#A2B6FF"></stop><stop offset="0.51" stop-color="#889FEA"></stop><stop offset="0.53" stop-color="#6883D2"></stop><stop offset="0.55" stop-color="#4D6BBD"></stop><stop offset="0.58" stop-color="#3758AC"></stop><stop offset="0.61" stop-color="#26499E"></stop><stop offset="0.64" stop-color="#1A3F95"></stop><stop offset="0.69" stop-color="#133990"></stop><stop offset="0.83" stop-color="#12378E"></stop><stop offset="0.88" stop-color="#122563"></stop><stop offset="0.92" stop-color="#121B48"></stop><stop offset="0.95" stop-color="#13173F"></stop></linearGradient><linearGradient id="paint4_linear_5135_9367" x1="65.6398" y1="37.4748" x2="65.6398" y2="50.7533" gradientUnits="userSpaceOnUse"><stop stop-color="#251593"></stop><stop offset="1" stop-color="#1D319F"></stop></linearGradient><linearGradient id="paint5_linear_5135_9367" x1="46.6685" y1="44.4082" x2="46.6685" y2="46.2623" gradientUnits="userSpaceOnUse"><stop stop-color="#251593"></stop><stop offset="1" stop-color="#1D319F"></stop></linearGradient><linearGradient id="paint6_linear_5135_9367" x1="47.1843" y1="40.9141" x2="47.1843" y2="42.5883" gradientUnits="userSpaceOnUse"><stop stop-color="#251593"></stop><stop offset="1" stop-color="#1D319F"></stop></linearGradient></defs></svg> 