<?xml version="1.0" encoding="UTF-8"?> <svg xmlns="http://www.w3.org/2000/svg" width="125" height="60" viewBox="0 0 125 60" fill="none"><path d="M70.0904 24.8181C69.3611 24.8181 68.7267 24.692 68.1982 24.4294C67.6695 24.1561 67.2672 23.7988 66.9819 23.326C66.6965 22.8637 66.5591 22.3277 66.5591 21.7077C66.5591 21.0878 66.6649 20.5203 66.8865 20.016C67.0982 19.5011 67.4047 19.0492 67.7958 18.6709C68.1875 18.2925 68.6525 17.9878 69.1916 17.7882C69.7413 17.578 70.3336 17.4729 70.9892 17.4729C71.7189 17.4729 72.3533 17.6095 72.8819 17.8722C73.4106 18.1349 73.8123 18.5027 74.0976 18.9651C74.383 19.4275 74.5205 19.9634 74.5205 20.5833C74.5205 21.2033 74.4151 21.7707 74.1929 22.2857C73.9814 22.8006 73.6749 23.242 73.2837 23.6308C72.8925 24.0091 72.4165 24.3033 71.8774 24.5029C71.3383 24.7131 70.7459 24.8181 70.0904 24.8181ZM70.2594 23.1684C70.6085 23.1684 70.926 23.1053 71.1903 22.9793C71.4651 22.8531 71.6979 22.6745 71.8879 22.4433C72.0891 22.2122 72.237 21.9389 72.3318 21.6448C72.4376 21.3506 72.4802 21.0353 72.4802 20.7095C72.4802 20.3838 72.4165 20.1211 72.2791 19.8794C72.1522 19.6483 71.9622 19.4591 71.7084 19.333C71.4651 19.1964 71.1581 19.1333 70.8096 19.1333C70.461 19.1333 70.1541 19.1964 69.8793 19.3225C69.6039 19.4486 69.3611 19.6272 69.1706 19.8689C68.9805 20.1 68.8321 20.3628 68.7373 20.657C68.6315 20.9512 68.5894 21.2664 68.5894 21.5921C68.5894 21.897 68.6526 22.1806 68.7794 22.4223C68.9168 22.6535 69.1074 22.8427 69.3501 22.9793C69.6039 23.1054 69.9003 23.1684 70.2594 23.1684Z" fill="url(#paint0_linear_488_15084)"></path><path d="M57.8677 24.6818L59.2846 17.6202H60.9341L63.8101 22.3383L63.1227 22.3173L64.0638 17.6201H66.0303L64.6134 24.6817H62.964L60.0986 19.9635L60.7754 19.9845L59.8343 24.6818H57.8677Z" fill="url(#paint1_linear_488_15084)"></path><path d="M54.2305 24.6817L55.6472 17.6201H57.6562L56.2394 24.6817H54.2305Z" fill="url(#paint2_linear_488_15084)"></path><path d="M50.1064 24.8185C49.7046 24.8185 49.3135 24.7869 48.9433 24.7133C48.5733 24.6502 48.2349 24.5663 47.9283 24.4507C47.6217 24.3245 47.3679 24.1985 47.146 24.0619L47.9389 22.5696C48.1821 22.7168 48.4358 22.8429 48.6896 22.9479C48.9539 23.0531 49.2183 23.1266 49.4931 23.1792C49.768 23.2316 50.0323 23.2631 50.3072 23.2631C50.5822 23.2631 50.783 23.2421 50.9628 23.1896C51.1425 23.1371 51.28 23.0635 51.3751 22.9689C51.4703 22.8744 51.5126 22.7587 51.5126 22.6327C51.5126 22.4961 51.4492 22.3805 51.3223 22.2965C51.1954 22.2124 51.0369 22.1389 50.836 22.0759C50.635 22.0128 50.4025 21.9497 50.1592 21.8972C49.9161 21.8341 49.6729 21.75 49.4192 21.6661C49.176 21.5715 48.9539 21.4559 48.753 21.3193C48.5521 21.1827 48.3829 21.004 48.2561 20.7833C48.1292 20.5731 48.0763 20.3 48.0763 19.9847C48.0763 19.4699 48.2138 19.0285 48.4886 18.6502C48.7635 18.2719 49.1547 17.9777 49.6623 17.7781C50.1803 17.5679 50.783 17.4628 51.4808 17.4628C51.9883 17.4628 52.4641 17.5153 52.8976 17.6204C53.3417 17.7255 53.7117 17.8726 54.0289 18.0617L53.2994 19.5433C53.0244 19.3647 52.7177 19.2386 52.3795 19.1545C52.0517 19.0599 51.7027 19.0179 51.3538 19.0179C51.0789 19.0179 50.8463 19.0494 50.6561 19.1125C50.4658 19.1756 50.3176 19.2596 50.2225 19.3647C50.1273 19.4698 50.0851 19.5749 50.0851 19.7115C50.0851 19.8481 50.1485 19.9532 50.2648 20.0477C50.3917 20.1317 50.5503 20.2054 50.7512 20.2684C50.9627 20.3315 51.1847 20.3946 51.4279 20.4575C51.6816 20.5206 51.9248 20.5941 52.168 20.6782C52.4112 20.7622 52.6333 20.8673 52.8447 21.0144C53.0562 21.1511 53.2253 21.3192 53.3417 21.5293C53.4685 21.7394 53.5214 21.9916 53.5214 22.3069C53.5214 22.8113 53.3839 23.2526 53.1092 23.6309C52.8343 24.0093 52.4324 24.3034 51.9249 24.5031C51.4068 24.7132 50.8042 24.8185 50.1064 24.8185Z" fill="url(#paint3_linear_488_15084)"></path><path d="M38.4233 24.6817L42.9805 17.6201H44.9576L46.6704 24.6817H44.6721L43.4033 18.5659H44.1963L40.5486 24.6817H38.4233ZM40.4111 23.3051L41.2253 21.8339H44.6933L44.9153 23.3051H40.4111Z" fill="url(#paint4_linear_488_15084)"></path><path d="M35.5799 24.8182C34.8609 24.8182 34.2265 24.6921 33.6873 24.4294C33.148 24.1668 32.7357 23.7989 32.4502 23.3366C32.1541 22.8638 32.0166 22.3278 32.0166 21.7077C32.0166 21.0877 32.1223 20.5308 32.3443 20.016C32.5558 19.5011 32.8625 19.0492 33.2537 18.6709C33.6449 18.2925 34.1101 17.9878 34.6493 17.7882C35.1992 17.578 35.8019 17.4729 36.4679 17.4729C37.1339 17.4729 37.7049 17.5885 38.2124 17.8197C38.72 18.0508 39.1005 18.3767 39.3438 18.8075L37.8952 19.9529C37.7366 19.6796 37.5147 19.48 37.2609 19.3329C37.0072 19.1963 36.7004 19.1228 36.341 19.1228C35.9816 19.1228 35.6855 19.1858 35.4 19.3014C35.125 19.4275 34.8819 19.5956 34.681 19.8163C34.4801 20.0369 34.3215 20.2997 34.2158 20.6044C34.11 20.8985 34.0572 21.2244 34.0572 21.5712C34.0572 21.8864 34.1206 22.1702 34.2581 22.4118C34.3955 22.643 34.5964 22.8322 34.8607 22.9688C35.125 23.0949 35.4317 23.1579 35.7911 23.1579C36.1083 23.1579 36.415 23.0949 36.7004 22.9688C36.9965 22.8427 37.2714 22.6325 37.5251 22.3383L38.7094 23.4942C38.3076 23.9669 37.853 24.3137 37.3243 24.5135C36.8061 24.7132 36.2247 24.8077 35.5903 24.8077L35.5799 24.8182Z" fill="url(#paint5_linear_488_15084)"></path><path d="M75.7891 24.587C75.4722 24.587 75.2079 24.482 74.9857 24.2613C74.7636 24.0407 74.6577 23.7779 74.6577 23.4732C74.6577 23.1685 74.774 22.9058 74.9963 22.6851C75.2185 22.4644 75.4827 22.3594 75.7997 22.3594C76.1166 22.3594 76.3709 22.4644 76.5926 22.6851C76.8148 22.9058 76.9206 23.1685 76.9206 23.4732C76.9206 23.7779 76.8148 24.0407 76.5926 24.2613C76.371 24.482 76.1067 24.587 75.7997 24.587H75.7891Z" fill="url(#paint6_linear_488_15084)"></path><path d="M98.881 39.6977L99.5365 34.6117L107.604 27.3611H112.879L104.612 34.6958L101.619 37.2388L98.8811 39.6872L98.881 39.6977ZM94.1445 43.1234L97.3162 27.3715H101.736L98.564 43.1234H94.1445ZM105.035 43.1234L100.848 36.6188L104.104 33.6239L110.036 43.1234H105.035Z" fill="url(#paint7_linear_488_15084)"></path><path d="M85.6223 43.439C84.0043 43.439 82.5986 43.1448 81.3823 42.5563C80.1876 41.9678 79.2678 41.1587 78.6229 40.1288C77.9778 39.0781 77.6499 37.8696 77.6499 36.5035C77.6499 35.1373 77.8932 33.8764 78.3796 32.7205C78.8662 31.5646 79.5427 30.5664 80.4205 29.7256C81.2981 28.8744 82.3343 28.2125 83.5501 27.7395C84.7762 27.2772 86.1299 27.0461 87.5994 27.0461C89.0689 27.0461 90.3588 27.2982 91.4904 27.8131C92.6219 28.328 93.4674 29.0636 94.0281 30.0199L90.7927 32.5839C90.4331 31.9849 89.9571 31.5225 89.3654 31.2073C88.794 30.892 88.107 30.7344 87.3035 30.7344C86.5001 30.7344 85.8341 30.871 85.1996 31.1442C84.5757 31.4175 84.0471 31.7957 83.5922 32.2896C83.1379 32.7835 82.7888 33.372 82.5455 34.0445C82.3022 34.7065 82.186 35.421 82.186 36.2092C82.186 36.9133 82.3344 37.5332 82.6408 38.0796C82.9578 38.605 83.4022 39.0148 83.9729 39.3196C84.5652 39.6034 85.2523 39.7504 86.0558 39.7504C86.7644 39.7504 87.4411 39.6034 88.0965 39.3196C88.7626 39.0359 89.376 38.5735 89.9363 37.9221L92.5904 40.507C91.702 41.5684 90.6765 42.3354 89.5134 42.7768C88.3504 43.2077 87.0604 43.4284 85.6436 43.4284L85.6223 43.439Z" fill="url(#paint8_linear_488_15084)"></path><path d="M68.8428 43.1236L72.0145 27.3717H76.4977L73.3255 43.1236H68.8428Z" fill="url(#paint9_linear_488_15084)"></path><path d="M54.5687 43.1236L57.7407 27.3717H62.2236L59.7813 39.5928H67.3411L66.6113 43.1236H54.5581H54.5687Z" fill="url(#paint10_linear_488_15084)"></path><path d="M46.0469 43.439C44.4292 43.439 43.023 43.1448 41.807 42.5563C40.6122 41.9678 39.6923 41.1587 39.0474 40.1288C38.4025 39.0781 38.0747 37.8696 38.0747 36.5035C38.0747 35.1373 38.3179 33.8764 38.8043 32.7205C39.2906 31.5646 39.9673 30.5664 40.8449 29.7256C41.7224 28.8744 42.7586 28.2125 43.9745 27.7395C45.2009 27.2772 46.5438 27.0461 48.0241 27.0461C49.5043 27.0461 50.7836 27.2982 51.915 27.8131C53.0464 28.328 53.8922 29.0636 54.4525 30.0199L51.2172 32.5839C50.8576 31.9849 50.3818 31.5225 49.7898 31.2073C49.2189 30.892 48.5316 30.7344 47.728 30.7344C46.9244 30.7344 46.2583 30.871 45.6239 31.1442C45.0001 31.4175 44.4714 31.7957 44.0168 32.2896C43.5622 32.7835 43.2133 33.372 42.9701 34.0445C42.7269 34.7065 42.6106 35.421 42.6106 36.2092C42.6106 36.9133 42.7586 37.5332 43.0652 38.0796C43.3824 38.605 43.8265 39.0148 44.3974 39.3196C44.9895 39.6034 45.6767 39.7504 46.4803 39.7504C47.1887 39.7504 47.8655 39.6034 48.5209 39.3196C49.1871 39.0359 49.8003 38.5735 50.3501 37.9221L53.0039 40.507C52.1158 41.5684 51.0903 42.3354 49.9271 42.7768C48.7641 43.2077 47.4741 43.4284 46.0574 43.4284L46.0469 43.439Z" fill="url(#paint11_linear_488_15084)"></path><path fill-rule="evenodd" clip-rule="evenodd" d="M100.435 33.8027L107.593 27.3612H112.869L104.717 34.6014L110.035 43.1235H105.034L101.386 37.4596L99.3248 39.2986L98.553 43.1235H94.1335L97.3051 27.3717H101.725L100.424 33.8133L100.435 33.8027ZM101.111 32.6153L102.253 26.9409H96.956L93.6152 43.5543H98.912L99.7265 39.5191L101.302 38.1111L104.802 43.5543H110.817L105.277 34.6855L114 26.9409H107.424L101.111 32.6153Z" fill="url(#paint12_linear_488_15084)"></path><path fill-rule="evenodd" clip-rule="evenodd" d="M81.2022 42.9452C79.9439 42.3252 78.9609 41.4636 78.2627 40.3602C77.5651 39.2359 77.2266 37.9433 77.2266 36.5142C77.2266 35.085 77.4804 33.782 77.9879 32.5631C78.4955 31.3545 79.2036 30.3142 80.1239 29.4316C81.0437 28.5383 82.1326 27.8448 83.391 27.3614C84.6704 26.878 86.0762 26.6364 87.5989 26.6364C89.1216 26.6364 90.4747 26.899 91.6698 27.4349C92.8751 27.9814 93.7949 28.7695 94.3977 29.8204L94.5877 30.1356L90.6758 33.2356L90.422 32.8153C90.0941 32.2793 89.6711 31.88 89.1636 31.5963C88.6666 31.323 88.0537 31.176 87.3135 31.176C86.5732 31.176 85.9493 31.3021 85.3785 31.5437C84.8184 31.7854 84.3318 32.1321 83.9195 32.584C83.5073 33.0359 83.1898 33.5717 82.9676 34.1917C82.746 34.8012 82.6297 35.4738 82.6297 36.2094C82.6297 36.8504 82.7671 37.3967 83.0208 37.8591C83.2957 38.311 83.6764 38.6683 84.1733 38.931C84.6914 39.1832 85.3153 39.3093 86.0656 39.3093C86.7106 39.3093 87.3344 39.1832 87.9268 38.9205C88.5187 38.6683 89.0794 38.2375 89.6079 37.6385L89.9039 37.2917L93.1604 40.4757L92.9066 40.7804C91.9762 41.8943 90.8874 42.7034 89.6501 43.1763C88.4343 43.6387 87.0913 43.8594 85.6217 43.8594C83.951 43.8594 82.471 43.5545 81.2021 42.9346L81.2022 42.9452ZM83.9722 39.3199C83.4015 39.0151 82.9571 38.6054 82.6401 38.0799C82.3337 37.544 82.1852 36.9134 82.1852 36.2095C82.1852 35.4318 82.3015 34.7067 82.5448 34.0447C82.7881 33.3722 83.1372 32.7838 83.5915 32.2899C84.0464 31.7959 84.575 31.4071 85.1989 31.1445C85.8334 30.8712 86.531 30.7347 87.3028 30.7347C88.0747 30.7347 88.7934 30.8923 89.3647 31.2076C89.8295 31.4598 90.2207 31.7959 90.5488 32.2269C90.6336 32.3425 90.7177 32.458 90.792 32.5841L94.0274 30.0201C93.4667 29.0639 92.6212 28.3284 91.4897 27.8134C90.3581 27.2985 89.0577 27.0463 87.5987 27.0463C86.1398 27.0463 84.765 27.2774 83.5493 27.7398C82.344 28.2022 81.2973 28.8642 80.4198 29.7259C79.5421 30.5666 78.8654 31.5649 78.3789 32.7208C77.8925 33.8766 77.6492 35.1377 77.6492 36.5037C77.6492 37.8698 77.9771 39.0783 78.6222 40.1291C79.2672 41.1695 80.1975 41.9786 81.3816 42.5566C82.5873 43.1449 84.0036 43.4393 85.6216 43.4393C87.0385 43.4393 88.3285 43.2186 89.4915 42.7878C90.6545 42.3359 91.6802 41.5793 92.5679 40.5179L89.9142 37.9329C89.8189 38.0485 89.7242 38.1536 89.6183 38.2482C89.1423 38.7317 88.6242 39.0889 88.0746 39.3306C87.4295 39.6143 86.7426 39.7613 86.0338 39.7613C85.2304 39.7613 84.5432 39.6143 83.9509 39.3306L83.9722 39.3199Z" fill="url(#paint13_linear_488_15084)"></path><path fill-rule="evenodd" clip-rule="evenodd" d="M68.314 43.5543L71.6552 26.9409H77.0162L73.6749 43.5543H68.314ZM68.8432 43.1235H73.3259L76.4981 27.3716H72.0149L68.8432 43.1235Z" fill="url(#paint14_linear_488_15084)"></path><path fill-rule="evenodd" clip-rule="evenodd" d="M54.04 43.5543L57.3812 26.9409H62.7419L60.2994 39.1619H67.8698L66.9709 43.5543H54.04ZM59.7708 39.5822L62.2131 27.3612H57.7301L54.5582 43.113H66.6114L67.3411 39.5822H59.7708Z" fill="url(#paint15_linear_488_15084)"></path><path fill-rule="evenodd" clip-rule="evenodd" d="M41.6173 42.9452C40.3591 42.3252 39.3757 41.4636 38.6779 40.3602C37.9801 39.2359 37.6416 37.9433 37.6416 36.5142C37.6416 35.085 37.8954 33.782 38.4029 32.5631C38.9104 31.3545 39.6189 30.3038 40.5387 29.4316C41.4586 28.5383 42.5476 27.8448 43.8058 27.3614C45.0851 26.878 46.4913 26.6364 48.0139 26.6364C49.5365 26.6364 50.8898 26.899 52.0846 27.4349C53.2899 27.9814 54.2098 28.7695 54.8124 29.8204L55.0027 30.1356L51.0905 33.2356L50.8368 32.8153C50.5091 32.2793 50.0968 31.88 49.5787 31.5963C49.0817 31.323 48.4684 31.176 47.7284 31.176C46.9884 31.176 46.3645 31.3021 45.7935 31.5437C45.2331 31.7854 44.7468 32.1321 44.3344 32.584C43.9221 33.0359 43.6048 33.5717 43.3829 34.1917C43.1608 34.8012 43.0445 35.4738 43.0445 36.2094C43.0445 36.8504 43.1819 37.3967 43.4357 37.8591C43.7106 38.311 44.0912 38.6683 44.5882 38.931C45.1062 39.1832 45.7301 39.3093 46.4808 39.3093C47.1257 39.3093 47.7495 39.1832 48.3415 38.9205C48.9337 38.6683 49.4941 38.2375 50.0227 37.6385L50.3187 37.2917L53.5752 40.4757L53.3215 40.7804C52.391 41.8943 51.302 42.7034 50.065 43.1763C48.849 43.6387 47.5063 43.8594 46.0367 43.8594C44.3661 43.8594 42.8858 43.5545 41.6064 42.9346L41.6173 42.9452ZM44.3873 39.3199C43.8163 39.0151 43.3723 38.6054 43.0551 38.0799C42.7485 37.544 42.6005 36.9134 42.6005 36.2095C42.6005 35.4318 42.7169 34.7067 42.9599 34.0447C43.2031 33.3722 43.5521 32.7838 44.0067 32.2899C44.4614 31.7959 45.0006 31.4071 45.6139 31.1445C46.2483 30.8712 46.946 30.7347 47.718 30.7347C48.4899 30.7347 49.2088 30.8923 49.7798 31.2076C50.2451 31.4598 50.6362 31.7959 50.964 32.2269C51.0486 32.3425 51.1332 32.458 51.2072 32.5841L54.4425 30.0201C53.8822 29.0639 53.0363 28.3284 51.905 27.8134C50.7736 27.2985 49.4731 27.0463 48.014 27.0463C46.555 27.0463 45.1803 27.2774 43.9645 27.7398C42.7592 28.2022 41.7125 28.8642 40.8349 29.7259C39.9573 30.5666 39.2806 31.5649 38.7942 32.7208C38.3078 33.8766 38.0646 35.1377 38.0646 36.5037C38.0646 37.8698 38.3924 39.0783 39.0374 40.1291C39.6824 41.1695 40.6128 41.9786 41.7969 42.5566C43.0023 43.1449 44.4191 43.4393 46.0368 43.4393C47.4535 43.4393 48.7435 43.2186 49.9066 42.7878C51.0697 42.3359 52.0952 41.5793 52.9834 40.5179L50.3295 37.9329C50.2344 38.0485 50.1393 38.1536 50.0336 38.2482C49.5578 38.7317 49.0398 39.0889 48.4898 39.3306C47.8449 39.6143 47.1577 39.7613 46.4493 39.7613C45.6457 39.7613 44.9583 39.6143 44.3664 39.3306L44.3873 39.3199Z" fill="url(#paint16_linear_488_15084)"></path><path fill-rule="evenodd" clip-rule="evenodd" d="M30.599 35.4419L34.2149 42.5035C34.4475 42.9658 34.2678 43.5333 33.8026 43.7645L30.3346 45.5193C30.1125 45.6349 29.8482 45.6559 29.6156 45.5719C29.3725 45.4983 29.1822 45.3302 29.0658 45.0991L25.4498 38.0375L22.0029 41.127C21.7281 41.3687 21.3474 41.4318 21.0091 41.2952C20.6708 41.1585 20.4487 40.8432 20.4169 40.486L19.1587 21.34C19.1376 20.9616 19.3385 20.6149 19.6768 20.4363C20.0152 20.2681 20.4169 20.3102 20.713 20.5518L35.5577 32.8149C35.8327 33.0461 35.9595 33.4139 35.8749 33.7606C35.7904 34.1074 35.5049 34.3806 35.156 34.4541L30.6095 35.4104L30.599 35.4419Z" fill="url(#paint17_linear_488_15084)"></path><path fill-rule="evenodd" clip-rule="evenodd" d="M22.4802 18.7317C22.9846 18.8951 23.5264 18.6198 23.6899 18.1166L24.6221 15.2539C24.7856 14.7508 24.5097 14.2105 24.0052 14.0471C23.5019 13.8837 22.9601 14.159 22.7965 14.6621L21.8644 17.5249C21.7009 18.028 21.9769 18.5683 22.4802 18.7317ZM16.8132 14.712C17.286 14.4721 17.8632 14.6594 18.104 15.1304L19.4739 17.812C19.7137 18.2833 19.5264 18.86 19.0546 19.1002C18.8181 19.2203 18.5558 19.2335 18.3224 19.1578C18.0879 19.082 17.8831 18.9173 17.7638 18.6817L16.3939 16.0002C16.1533 15.5289 16.3409 14.9521 16.8132 14.712ZM30.8396 35.7388L34.5073 42.9207C34.7481 43.3919 34.5597 43.9686 34.088 44.2089L30.5753 45.9951C30.3494 46.1107 30.0857 46.1313 29.8431 46.0528C29.6016 45.9743 29.4003 45.803 29.2846 45.5767L25.6179 38.395L22.1207 41.5369C21.8472 41.7826 21.4573 41.8506 21.1172 41.7123C20.7761 41.574 20.5452 41.2538 20.5208 40.8876L19.2424 21.4062C19.2168 21.0242 19.4226 20.6642 19.764 20.4903C20.1064 20.3167 20.5187 20.3624 20.8136 20.6072L35.8551 33.0881C36.1382 33.3225 36.2621 33.6978 36.1739 34.054C36.0856 34.4103 35.8013 34.6849 35.4416 34.7612L30.8396 35.7388ZM16.7416 21.6507C16.9055 21.1478 16.6293 20.6073 16.1251 20.4439L13.2566 19.5141C12.7525 19.3507 12.2111 19.6261 12.0472 20.1291C11.8834 20.6321 12.1595 21.1726 12.6635 21.336L15.5321 22.2658C16.0363 22.4292 16.5778 22.1537 16.7416 21.6507ZM12.769 25.709L15.4566 24.3422C15.929 24.1023 16.5067 24.2897 16.7471 24.7607C16.9879 25.232 16.8007 25.8089 16.3279 26.049L13.6407 27.4156C13.4046 27.5356 13.1419 27.5489 12.9083 27.4731C12.6747 27.3975 12.4701 27.2328 12.3497 26.9971C12.109 26.526 12.2969 25.9492 12.769 25.709ZM26.2899 20.9822C26.0534 21.1022 25.7912 21.1155 25.5567 21.0397C25.3231 20.9639 25.1184 20.7992 24.998 20.5636C24.7582 20.0924 24.9454 19.5156 25.4173 19.2754L28.105 17.9088C28.5769 17.6687 29.1552 17.8561 29.3959 18.3272C29.6368 18.7985 29.4485 19.3753 28.9766 19.6155L26.2899 20.9822Z" fill="url(#paint18_linear_488_15084)"></path><defs><linearGradient id="paint0_linear_488_15084" x1="43.5808" y1="8.541" x2="72.5084" y2="22.1282" gradientUnits="userSpaceOnUse"><stop stop-color="#BED2E3"></stop><stop offset="0.23" stop-color="#ACBECC"></stop><stop offset="1" stop-color="#89949E"></stop></linearGradient><linearGradient id="paint1_linear_488_15084" x1="42.0319" y1="11.8424" x2="70.9595" y2="25.4189" gradientUnits="userSpaceOnUse"><stop stop-color="#BED2E3"></stop><stop offset="0.23" stop-color="#ACBECC"></stop><stop offset="1" stop-color="#89949E"></stop></linearGradient><linearGradient id="paint2_linear_488_15084" x1="40.9487" y1="14.1429" x2="69.8765" y2="27.7195" gradientUnits="userSpaceOnUse"><stop stop-color="#BED2E3"></stop><stop offset="0.23" stop-color="#ACBECC"></stop><stop offset="1" stop-color="#89949E"></stop></linearGradient><linearGradient id="paint3_linear_488_15084" x1="40.0179" y1="16.1287" x2="68.9452" y2="29.7052" gradientUnits="userSpaceOnUse"><stop stop-color="#BED2E3"></stop><stop offset="0.23" stop-color="#ACBECC"></stop><stop offset="1" stop-color="#89949E"></stop></linearGradient><linearGradient id="paint4_linear_488_15084" x1="38.3823" y1="19.6036" x2="67.3099" y2="33.1907" gradientUnits="userSpaceOnUse"><stop stop-color="#BED2E3"></stop><stop offset="0.23" stop-color="#ACBECC"></stop><stop offset="1" stop-color="#89949E"></stop></linearGradient><linearGradient id="paint5_linear_488_15084" x1="37.3645" y1="21.786" x2="66.292" y2="35.3625" gradientUnits="userSpaceOnUse"><stop stop-color="#BED2E3"></stop><stop offset="0.23" stop-color="#ACBECC"></stop><stop offset="1" stop-color="#89949E"></stop></linearGradient><linearGradient id="paint6_linear_488_15084" x1="74.6471" y1="23.4732" x2="76.91" y2="23.4732" gradientUnits="userSpaceOnUse"><stop offset="0.71" stop-color="#89949E"></stop><stop offset="0.93" stop-color="#89949E"></stop></linearGradient><linearGradient id="paint7_linear_488_15084" x1="103.512" y1="28.4434" x2="103.512" y2="82.4978" gradientUnits="userSpaceOnUse"><stop stop-color="#FFD324"></stop><stop offset="0.14" stop-color="#FDC822"></stop><stop offset="0.39" stop-color="#F8AB1D"></stop><stop offset="0.72" stop-color="#F07E16"></stop><stop offset="1" stop-color="#E9510F"></stop></linearGradient><linearGradient id="paint8_linear_488_15084" x1="85.839" y1="11.8723" x2="85.839" y2="84.0008" gradientUnits="userSpaceOnUse"><stop stop-color="#FFD324"></stop><stop offset="0.14" stop-color="#FDC822"></stop><stop offset="0.39" stop-color="#F8AB1D"></stop><stop offset="0.72" stop-color="#F07E16"></stop><stop offset="1" stop-color="#E9510F"></stop></linearGradient><linearGradient id="paint9_linear_488_15084" x1="72.6703" y1="-11.204" x2="72.6703" y2="85.1355" gradientUnits="userSpaceOnUse"><stop stop-color="#FFD324"></stop><stop offset="0.14" stop-color="#FDC822"></stop><stop offset="0.39" stop-color="#F8AB1D"></stop><stop offset="0.72" stop-color="#F07E16"></stop><stop offset="1" stop-color="#E9510F"></stop></linearGradient><linearGradient id="paint10_linear_488_15084" x1="60.9496" y1="-26.7141" x2="60.9496" y2="69.1" gradientUnits="userSpaceOnUse"><stop stop-color="#FFD324"></stop><stop offset="0.14" stop-color="#FDC822"></stop><stop offset="0.39" stop-color="#F8AB1D"></stop><stop offset="0.72" stop-color="#F07E16"></stop><stop offset="1" stop-color="#E9510F"></stop></linearGradient><linearGradient id="paint11_linear_488_15084" x1="46.2636" y1="-21.1236" x2="46.2636" y2="51.0154" gradientUnits="userSpaceOnUse"><stop stop-color="#FFD324"></stop><stop offset="0.14" stop-color="#FDC822"></stop><stop offset="0.39" stop-color="#F8AB1D"></stop><stop offset="0.72" stop-color="#F07E16"></stop><stop offset="1" stop-color="#E9510F"></stop></linearGradient><linearGradient id="paint12_linear_488_15084" x1="46.558" y1="20.9869" x2="108.905" y2="36.5823" gradientUnits="userSpaceOnUse"><stop stop-color="#FFD324"></stop><stop offset="0.17" stop-color="#FDC822"></stop><stop offset="0.47" stop-color="#F8AB1D"></stop><stop offset="0.85" stop-color="#F07E16"></stop><stop offset="1" stop-color="#ED6A13"></stop></linearGradient><linearGradient id="paint13_linear_488_15084" x1="45.5458" y1="25.0327" x2="107.893" y2="40.6175" gradientUnits="userSpaceOnUse"><stop stop-color="#FFD324"></stop><stop offset="0.17" stop-color="#FDC822"></stop><stop offset="0.47" stop-color="#F8AB1D"></stop><stop offset="0.85" stop-color="#F07E16"></stop><stop offset="1" stop-color="#ED6A13"></stop></linearGradient><linearGradient id="paint14_linear_488_15084" x1="44.7264" y1="28.2929" x2="107.073" y2="43.8777" gradientUnits="userSpaceOnUse"><stop stop-color="#FFD324"></stop><stop offset="0.23" stop-color="#FECF23"></stop><stop offset="0.42" stop-color="#FCC521"></stop><stop offset="0.59" stop-color="#F9B41F"></stop><stop offset="0.76" stop-color="#F59C1B"></stop><stop offset="0.92" stop-color="#F07D16"></stop><stop offset="1" stop-color="#ED6A13"></stop></linearGradient><linearGradient id="paint15_linear_488_15084" x1="43.8949" y1="31.6392" x2="106.242" y2="47.2239" gradientUnits="userSpaceOnUse"><stop stop-color="#FFD324"></stop><stop offset="0.17" stop-color="#FDC822"></stop><stop offset="0.47" stop-color="#F8AB1D"></stop><stop offset="0.85" stop-color="#F07E16"></stop><stop offset="1" stop-color="#ED6A13"></stop></linearGradient><linearGradient id="paint16_linear_488_15084" x1="43.224" y1="34.3087" x2="105.571" y2="49.8936" gradientUnits="userSpaceOnUse"><stop stop-color="#FFD324"></stop><stop offset="0.17" stop-color="#FDC822"></stop><stop offset="0.47" stop-color="#F8AB1D"></stop><stop offset="0.85" stop-color="#F07E16"></stop><stop offset="1" stop-color="#ED6A13"></stop></linearGradient><linearGradient id="paint17_linear_488_15084" x1="19.1573" y1="32.9788" x2="35.9009" y2="32.9788" gradientUnits="userSpaceOnUse"><stop stop-color="white"></stop><stop offset="1" stop-color="#ACBECC"></stop></linearGradient><linearGradient id="paint18_linear_488_15084" x1="13.3089" y1="27.9349" x2="37.267" y2="31.672" gradientUnits="userSpaceOnUse"><stop stop-color="white"></stop><stop offset="1" stop-color="#ACBECC"></stop></linearGradient></defs></svg> 