<svg width="140" height="40" viewBox="0 0 140 40" fill="none" xmlns="http://www.w3.org/2000/svg">
<g clip-path="url(#clip0_6600_522)">
<path d="M2.1097 13.7693V16.7791H3.93812V17.848H2.1097V23.1364C2.1097 23.5021 2.1097 23.8396 2.13783 24.0928C2.16596 24.3459 2.19409 24.5428 2.25035 24.7116C2.30661 24.8804 2.41913 24.9929 2.53165 25.0492C2.67229 25.1054 2.84107 25.1617 3.0661 25.1617C3.31927 25.1617 3.5443 25.1336 3.74121 25.0492C3.93812 24.9929 4.10689 24.9085 4.19128 24.8804L4.3038 25.8368C4.16315 25.9212 3.99437 26.0056 3.76934 26.09C3.5443 26.1744 3.26301 26.2306 2.95359 26.2306C2.50352 26.2306 2.13783 26.1743 1.88467 26.0337C1.6315 25.8931 1.40647 25.6962 1.26582 25.4149C1.12518 25.1617 1.04079 24.8241 0.984529 24.4303C0.956399 24.0365 0.92827 23.6146 0.92827 23.1364V17.8199H0V16.751H0.9564V13.7693H2.1097Z" fill="#FEFEFE"/>
<path d="M9.05769 26.0619V20.1266C9.05769 19.8172 9.05769 19.5078 9.02956 19.2265C9.00143 18.9452 8.9733 18.692 8.88891 18.467C8.80453 18.242 8.66388 18.0732 8.46697 17.9326C8.27007 17.7919 8.0169 17.7356 7.67935 17.7356C7.36993 17.7356 7.11676 17.82 6.91986 17.9607C6.75108 18.1295 6.61043 18.3264 6.49792 18.5795C6.41353 18.8327 6.35727 19.114 6.32914 19.4515C6.30101 19.761 6.30101 20.0985 6.30101 20.4361V26.0619H5.14771V13.9663H6.30101V17.8482C6.35727 17.6794 6.44166 17.5106 6.52605 17.37C6.61043 17.2293 6.72295 17.0887 6.8636 17.0043C7.00425 16.8918 7.14489 16.8074 7.3418 16.7511C7.51057 16.6949 7.70748 16.6667 7.93252 16.6667C8.2982 16.6667 8.57949 16.723 8.83266 16.8074C9.08582 16.8918 9.28273 17.0324 9.4515 17.2012C9.62028 17.37 9.76093 17.5669 9.84531 17.7919C9.9297 18.0169 10.0141 18.2701 10.0703 18.5233C10.1266 18.7764 10.1547 19.0577 10.1547 19.339C10.1547 19.6203 10.1829 19.9016 10.1829 20.1829V26.0901H9.05769V26.0619Z" fill="#FEFEFE"/>
<path d="M16.1463 22.9114V23.0802C16.1463 23.3333 16.1463 23.5865 16.1182 23.8397C16.09 24.0928 16.0619 24.346 16.0057 24.571C15.9494 24.7961 15.865 25.0211 15.7525 25.218C15.64 25.4149 15.4993 25.5837 15.3024 25.7243C15.1336 25.865 14.9086 25.9775 14.6273 26.0619C14.346 26.1463 14.0085 26.1744 13.6428 26.1744C13.249 26.1744 12.9114 26.1181 12.6301 26.0338C12.3488 25.9494 12.1238 25.8087 11.9269 25.6399C11.73 25.4712 11.5893 25.2743 11.4768 25.0492C11.3643 24.8242 11.2799 24.571 11.2237 24.3179C11.1674 24.0647 11.1393 23.7834 11.1111 23.5021C11.083 23.2208 11.083 22.9395 11.083 22.6582V20.1266C11.083 19.8453 11.083 19.564 11.1111 19.2546C11.1393 18.9451 11.1674 18.692 11.2237 18.4388C11.2799 18.1857 11.3643 17.9325 11.4768 17.7075C11.5893 17.4824 11.73 17.2855 11.9269 17.1167C12.1238 16.948 12.3488 16.8354 12.6301 16.7229C12.9114 16.6385 13.249 16.5823 13.6147 16.5823C14.0085 16.5823 14.346 16.6385 14.6273 16.7229C14.9086 16.8073 15.1336 16.9198 15.3305 17.0886C15.5275 17.2293 15.6681 17.4262 15.7806 17.6231C15.8931 17.82 15.9775 18.045 16.0338 18.27C16.09 18.4951 16.1182 18.7482 16.1463 19.0014C16.1744 19.2546 16.1744 19.5077 16.1744 19.7328V21.3643L12.2644 22.0394V22.7145C12.2644 23.0239 12.2644 23.3333 12.2926 23.6146C12.3207 23.8959 12.3488 24.1491 12.4613 24.3741C12.5457 24.5992 12.6864 24.7679 12.8833 24.9086C13.0802 25.0492 13.3334 25.1055 13.6709 25.1055C14.0085 25.1055 14.2616 25.0492 14.4304 24.9367C14.6273 24.8242 14.7398 24.6835 14.8523 24.5148C14.9367 24.346 14.993 24.121 15.0211 23.8678C15.0493 23.6146 15.0493 23.3615 15.0493 23.0802V22.9114H16.1463ZM13.6147 17.7356C13.2771 17.7356 13.0239 17.7918 12.827 17.9325C12.6301 18.0731 12.4895 18.2419 12.4051 18.4669C12.3207 18.692 12.2644 18.9451 12.2363 19.2264C12.2082 19.5077 12.2082 19.8172 12.2082 20.1547V21.0267L14.993 20.5204V19.789C14.993 19.5359 14.993 19.2827 14.9649 19.0295C14.9367 18.7764 14.9086 18.5795 14.8242 18.3826C14.7398 18.1857 14.5992 18.045 14.4023 17.9044C14.2335 17.7918 13.9803 17.7356 13.6147 17.7356Z" fill="#FEFEFE"/>
<path d="M69.5639 24.5288H72.5738V24.8101C72.5738 25.429 72.5457 26.0759 72.4894 26.6948C72.4331 27.3418 72.3487 27.9606 72.18 28.5513C72.0393 29.142 71.8143 29.7046 71.5049 30.2391C71.2236 30.7735 70.8298 31.2236 70.3234 31.6174C69.8171 32.0112 69.2264 32.3207 68.495 32.5457C67.7637 32.7707 66.8916 32.8832 65.879 32.8832C64.8382 32.8832 63.9662 32.7707 63.2348 32.5176C62.5035 32.2644 61.8846 31.9268 61.3783 31.4768C60.872 31.0548 60.4781 30.5204 60.1968 29.9297C59.9156 29.3389 59.6905 28.692 59.5217 28.0169C59.3811 27.3418 59.2686 26.6104 59.2123 25.879C59.1561 25.1477 59.1279 24.3882 59.1279 23.6568V17.6371C59.1279 17.2714 59.1279 16.9057 59.1279 16.5119C59.1279 16.1463 59.1279 15.7524 59.1561 15.3868C59.1561 14.346 59.2686 13.3333 59.4655 12.405C59.6624 11.4768 59.9999 10.6329 60.4781 9.92966C60.9563 9.22642 61.6314 8.66383 62.5035 8.24189C63.3473 7.81995 64.4725 7.62305 65.8227 7.62305C66.8635 7.62305 67.7355 7.73556 68.4669 7.9606C69.1983 8.18563 69.8171 8.49506 70.3234 8.88887C70.8298 9.28268 71.2236 9.73275 71.5049 10.2672C71.7862 10.8017 72.0112 11.3643 72.18 11.955C72.3487 12.5457 72.4331 13.1645 72.4894 13.7834C72.5457 14.4022 72.5457 15.0211 72.5457 15.6399V15.9775H69.5358V15.6399C69.5358 15.0211 69.5077 14.4022 69.4795 13.8115C69.4514 13.1927 69.3108 12.6582 69.0576 12.1519C68.8326 11.6456 68.4388 11.2517 67.9606 10.9423C67.4542 10.6329 66.7791 10.4922 65.879 10.4922C65.007 10.4922 64.3319 10.661 63.8255 10.9986C63.3473 11.3361 62.9817 11.7862 62.7285 12.3769C62.5035 12.9676 62.3347 13.6427 62.2784 14.4022C62.2222 15.1899 62.194 16.0056 62.194 16.8776V22.4191C62.194 23.1223 62.194 23.8256 62.194 24.5007C62.194 25.1758 62.2222 25.8509 62.2784 26.4697C62.3347 26.9479 62.4191 27.4261 62.5878 27.8481C62.7285 28.27 62.9254 28.6357 63.2067 28.9451C63.4599 29.2546 63.8255 29.5077 64.2475 29.6765C64.6694 29.8453 65.2039 29.9578 65.8509 29.9578C66.6947 29.9578 67.3698 29.8171 67.8762 29.5358C68.3544 29.2546 68.7201 28.8607 68.9732 28.3825C69.2264 27.9043 69.367 27.3418 69.4233 26.7229C69.4795 26.1041 69.5077 25.4571 69.5077 24.782V24.5288H69.5639Z" fill="#FEFEFE"/>
<path d="M85.5415 32.5176V29.7047C85.3727 30.1547 85.1758 30.6048 84.9508 30.9705C84.7257 31.3643 84.4163 31.7019 84.0788 31.9832C83.7412 32.2645 83.3193 32.4895 82.8692 32.6583C82.4191 32.827 81.8847 32.8833 81.2939 32.8833C80.0281 32.8833 78.9592 32.6864 78.1716 32.2645C77.3558 31.8425 76.737 31.3081 76.2869 30.6048C75.8368 29.9016 75.5274 29.114 75.3586 28.1857C75.1899 27.2855 75.1055 26.3291 75.1055 25.3165C75.1055 24.4163 75.1617 23.5443 75.2742 22.7286C75.3868 21.9128 75.6399 21.1815 76.0619 20.5626C76.4838 19.9438 77.1027 19.4374 77.9184 19.0718C78.7342 18.7061 79.8593 18.5092 81.2939 18.5092C82.3347 18.5092 83.2067 18.5936 83.8537 18.7342C84.5007 18.8749 85.0914 19.0436 85.5696 19.2405V16.8495C85.5696 15.9775 85.5415 15.1618 85.4852 14.3742C85.429 13.5865 85.2883 12.9114 85.0352 12.3488C84.8101 11.7581 84.4444 11.3081 83.9381 10.9705C83.4599 10.6329 82.7567 10.4642 81.8847 10.4642C81.097 10.4642 80.4782 10.6048 80 10.9142C79.5499 11.2237 79.1842 11.6175 78.9311 12.1238C78.6779 12.6301 78.5373 13.1646 78.4529 13.7834C78.3966 14.4023 78.3403 15.0211 78.3403 15.6118V15.9494H75.3305V15.6118C75.3305 15.0211 75.3586 14.4023 75.4149 13.7553C75.4712 13.1365 75.5837 12.5176 75.7243 11.9269C75.8931 11.3362 76.1181 10.7736 76.3994 10.2391C76.7088 9.70468 77.1027 9.25461 77.5809 8.86079C78.0591 8.46698 78.6498 8.15756 79.353 7.93252C80.0562 7.70749 80.872 7.59497 81.8565 7.59497C83.2067 7.59497 84.3319 7.79188 85.2039 8.21382C86.0759 8.63576 86.751 9.19835 87.2574 9.90158C87.7637 10.6048 88.1013 11.4487 88.2982 12.377C88.4951 13.3052 88.5795 14.3179 88.5795 15.3587V32.4895H85.5415V32.5176ZM81.8284 29.986C82.616 29.986 83.2349 29.8172 83.7131 29.5078C84.1913 29.1702 84.5569 28.7483 84.8382 28.2138C85.1195 27.6794 85.2883 27.0605 85.4008 26.3573C85.4852 25.654 85.5415 24.9227 85.5415 24.1913V21.9972C85.1195 21.6878 84.6413 21.4628 84.0788 21.3221C83.5162 21.1815 82.7567 21.0971 81.8003 21.0971C80.9564 21.0971 80.2531 21.2377 79.775 21.4909C79.2686 21.7441 78.9029 22.0816 78.6498 22.5036C78.3966 22.9255 78.256 23.3756 78.1997 23.8819C78.1434 24.3882 78.1153 24.8946 78.1153 25.4009C78.1153 26.0479 78.1716 26.6386 78.256 27.2012C78.3685 27.7637 78.5373 28.2701 78.8186 28.692C79.0998 29.114 79.4655 29.4515 79.9719 29.6765C80.4501 29.8735 81.0689 29.986 81.8284 29.986Z" fill="#FEFEFE"/>
<path d="M91.6455 40V7.98873H94.6835V10.6892C94.8523 10.2391 95.0492 9.81714 95.2742 9.45146C95.4992 9.05765 95.7805 8.74822 96.1181 8.46693C96.4556 8.18563 96.8494 7.98873 97.2995 7.84808C97.7496 7.70743 98.284 7.62305 98.8748 7.62305C99.8312 7.62305 100.675 7.73556 101.35 7.98873C102.025 8.24189 102.588 8.57945 103.038 9.02952C103.488 9.45146 103.854 9.98592 104.107 10.5766C104.36 11.1674 104.557 11.8143 104.698 12.4894C104.838 13.1645 104.894 13.8959 104.951 14.6273C104.979 15.3868 105.007 16.1181 105.007 16.8495V23.5724C105.007 24.7257 104.951 25.8509 104.866 26.9479C104.754 28.045 104.501 29.0576 104.107 29.9297C103.713 30.8017 103.094 31.5049 102.278 32.0394C101.463 32.5738 100.337 32.8551 98.9029 32.8551C98.3122 32.8551 97.7777 32.7707 97.3276 32.6301C96.8776 32.4894 96.4838 32.2644 96.1462 32.0112C95.8087 31.7581 95.5274 31.4205 95.2742 31.0548C95.0492 30.6892 94.8241 30.2672 94.6835 29.8171V39.9719H91.6455V40ZM98.3403 29.9578C99.2123 29.9578 99.8874 29.789 100.366 29.4515C100.844 29.1139 101.209 28.6638 101.435 28.0731C101.66 27.4824 101.828 26.8073 101.885 26.0478C101.941 25.2602 101.969 24.4444 101.969 23.5724V16.8214C101.969 15.9775 101.941 15.1899 101.913 14.4304C101.885 13.6709 101.744 12.9958 101.519 12.405C101.294 11.8143 100.928 11.3643 100.45 10.9986C99.9437 10.6329 99.2686 10.4641 98.3684 10.4641C97.6089 10.4641 97.0182 10.6048 96.54 10.9142C96.09 11.2236 95.7243 11.6174 95.443 12.1237C95.1898 12.6301 94.9929 13.2208 94.8804 13.8678C94.7679 14.5147 94.7116 15.218 94.6835 15.9493V24.6413C94.7116 25.3164 94.7679 25.9915 94.8804 26.6104C94.9929 27.2292 95.1617 27.7918 95.443 28.2982C95.6961 28.7764 96.0618 29.1702 96.54 29.4796C96.9901 29.8171 97.5808 29.9578 98.3403 29.9578Z" fill="#FEFEFE"/>
<path d="M107.764 2.05343C107.764 1.51897 107.904 1.12516 108.214 0.81574C108.495 0.534446 108.973 0.393799 109.62 0.393799C110.323 0.393799 110.83 0.534446 111.111 0.81574C111.392 1.09703 111.561 1.51897 111.561 2.05343C111.561 2.55976 111.42 2.9817 111.111 3.23487C110.83 3.51616 110.323 3.65681 109.62 3.65681C108.973 3.65681 108.523 3.51616 108.214 3.23487C107.904 2.95357 107.764 2.55976 107.764 2.05343ZM108.101 32.5176V7.98874H111.139V32.5176H108.101Z" fill="#FEFEFE"/>
<path d="M126.976 25.9634C126.976 27.0042 126.864 27.9325 126.61 28.8045C126.357 29.6484 125.963 30.3797 125.429 30.9704C124.894 31.5612 124.191 32.0394 123.375 32.3769C122.532 32.7145 121.547 32.8832 120.366 32.8832C119.1 32.8832 118.031 32.6863 117.187 32.2925C116.343 31.8987 115.668 31.3643 115.19 30.6892C114.683 30.014 114.346 29.1983 114.149 28.2419C113.952 27.2855 113.84 26.2447 113.84 25.1195H116.849C116.849 25.7102 116.906 26.301 116.99 26.8917C117.103 27.4824 117.271 27.9887 117.553 28.4669C117.806 28.917 118.172 29.2827 118.622 29.564C119.072 29.8453 119.634 29.9859 120.337 29.9859C121.519 29.9859 122.391 29.6484 122.982 29.0014C123.572 28.3544 123.854 27.4543 123.854 26.2728C123.854 25.5977 123.713 25.007 123.432 24.5007C123.15 23.9944 122.785 23.5443 122.307 23.1223C121.856 22.7285 121.322 22.3629 120.731 21.9972C120.141 21.6596 119.55 21.3221 118.931 20.9564C118.312 20.5907 117.721 20.225 117.131 19.8312C116.54 19.4374 116.034 18.9873 115.555 18.481C115.105 17.9747 114.712 17.3839 114.43 16.7088C114.149 16.0337 114.008 15.2461 114.008 14.346C114.008 13.2771 114.121 12.3488 114.374 11.5049C114.627 10.661 114.993 9.95779 115.527 9.3952C116.034 8.80448 116.709 8.38254 117.525 8.07312C118.34 7.76369 119.325 7.62305 120.45 7.62305C121.491 7.62305 122.391 7.76369 123.179 8.04499C123.966 8.32628 124.641 8.74822 125.148 9.33894C125.682 9.92966 126.076 10.6892 126.329 11.5893C126.582 12.5176 126.723 13.6146 126.723 14.9367H123.713C123.713 14.3178 123.657 13.7271 123.572 13.1927C123.46 12.6582 123.291 12.18 123.038 11.7862C122.785 11.3924 122.447 11.083 122.025 10.8579C121.603 10.6329 121.069 10.5204 120.422 10.5204C119.887 10.5204 119.409 10.6048 118.987 10.8017C118.565 10.9986 118.2 11.2517 117.918 11.5612C117.637 11.8706 117.412 12.2644 117.243 12.6863C117.103 13.1083 117.018 13.5865 117.018 14.0647C117.018 14.7117 117.159 15.2742 117.44 15.7806C117.721 16.2588 118.087 16.7088 118.565 17.1027C119.015 17.4965 119.55 17.8903 120.141 18.2278C120.731 18.5654 121.35 18.9311 121.969 19.2686C122.588 19.6343 123.207 20 123.797 20.4219C124.388 20.8439 124.923 21.2939 125.373 21.8284C125.823 22.3629 126.217 22.9536 126.498 23.6287C126.835 24.2757 126.976 25.0633 126.976 25.9634Z" fill="#FEFEFE"/>
<path d="M134.093 0V7.96062H138.931V10.7454H134.093V24.6976C134.093 25.6821 134.121 26.526 134.149 27.2011C134.177 27.8762 134.29 28.4107 134.458 28.8326C134.627 29.2546 134.88 29.5359 135.246 29.7328C135.584 29.9297 136.062 30.0141 136.681 30.0141C137.356 30.0141 137.975 29.9297 138.509 29.7328C139.044 29.5359 139.437 29.3952 139.719 29.2546L140 31.8144C139.634 32.0394 139.156 32.2925 138.537 32.5176C137.918 32.7426 137.215 32.8833 136.371 32.8833C135.162 32.8833 134.233 32.6864 133.53 32.3207C132.827 31.955 132.292 31.4205 131.927 30.7173C131.561 30.0141 131.308 29.1702 131.224 28.1575C131.111 27.1449 131.055 25.9916 131.055 24.7257V10.7454H128.551V7.96062H131.055V0H134.093Z" fill="#FEFEFE"/>
<path d="M47.5948 10.1829C49.592 9.56403 51.6455 8.91705 53.6989 8.27008C53.502 8.18569 53.3051 8.1013 53.1082 8.01691C52.3206 7.73562 51.4204 7.59497 50.3796 7.59497C49.2545 7.59497 48.2699 7.73562 47.4542 8.04504C46.6384 8.35446 45.9633 8.80453 45.457 9.36712C45.0069 9.87345 44.6694 10.436 44.4443 11.1393L47.5948 10.1829Z" fill="#FEFEFE"/>
<path d="M52.9675 11.7582C53.2207 12.152 53.4176 12.6302 53.502 13.1647C53.6145 13.6991 53.6426 14.2899 53.6426 14.9087H56.6525C56.6525 13.6148 56.5118 12.4896 56.2587 11.5613C56.1743 11.28 56.0899 11.0268 55.9774 10.7737C55.3585 10.9706 54.7397 11.1675 54.149 11.3644C53.7833 11.4769 53.3895 11.6176 52.9675 11.7582Z" fill="#FEFEFE"/>
<path d="M55.3305 21.8002C54.8804 21.2658 54.346 20.8157 53.7553 20.3938C53.1646 19.9718 52.5457 19.6061 51.9269 19.2405C51.308 18.8748 50.6892 18.5372 50.0985 18.1997C49.5077 17.8621 48.9733 17.4683 48.5232 17.0745C48.0731 16.6807 47.6793 16.2306 47.398 15.7524C47.1167 15.2742 46.9761 14.7116 46.9761 14.0365C46.9761 13.924 46.9761 13.8115 46.9761 13.699C46.7511 13.7834 46.526 13.8396 46.301 13.924C45.5415 14.1772 44.7539 14.4585 43.9381 14.7398C43.9662 15.4711 44.1069 16.1462 44.3319 16.7088C44.6132 17.3839 44.9789 17.9746 45.4571 18.481C45.9072 18.9873 46.4416 19.4374 47.0323 19.8312C47.6231 20.225 48.2138 20.5907 48.8326 20.9564C49.4515 21.322 50.0422 21.6596 50.6329 21.9971C51.2236 22.3347 51.73 22.7004 52.2082 23.1223C52.6582 23.5161 53.052 23.9662 53.3333 24.5007C53.6146 25.007 53.7553 25.5977 53.7553 26.2728C53.7553 27.4261 53.474 28.3263 52.8833 29.0014C52.2925 29.6483 51.4205 29.9859 50.2391 29.9859C49.5359 29.9859 48.9733 29.8452 48.5232 29.564C48.0731 29.2827 47.7075 28.917 47.4543 28.4669C47.2011 28.0168 47.0042 27.4824 46.8917 26.8917C46.7792 26.3009 46.7511 25.7102 46.7511 25.1195H43.7412C43.7412 26.2447 43.8537 27.2855 44.0506 28.2419C44.2475 29.1983 44.5851 30.014 45.0914 30.6891C45.5978 31.3642 46.2447 31.9268 47.0886 32.2925C47.9325 32.6863 49.0014 32.8832 50.2672 32.8832C51.4487 32.8832 52.4332 32.7144 53.2771 32.3769C54.121 32.0393 54.7961 31.5893 55.3305 30.9704C55.865 30.3797 56.2588 29.6483 56.512 28.8045C56.7651 27.9606 56.8776 27.0042 56.8776 25.9634C56.8776 25.0633 56.737 24.2756 56.4557 23.6005C56.1744 22.9254 55.8087 22.3066 55.3305 21.8002Z" fill="#FEFEFE"/>
<path d="M40.1969 25.1196C39.7469 25.5696 39.2687 26.0478 38.7905 26.4698C36.2588 28.7482 32.4614 30.8861 30.858 30.5204C26.1322 29.4796 30.9705 20.0281 30.9705 20.0281C30.9705 20.0281 31.4768 18.8748 33.1083 18.0309L36.6526 16.737C39.775 15.5556 42.9536 14.4585 46.1604 13.3615C48.7764 12.4895 51.4206 11.6174 54.0085 10.8017C56.1182 10.1266 58.2841 9.42335 60.3938 8.72012C61.2377 8.43882 62.0535 8.01688 62.813 7.59494C62.9817 7.51055 63.1224 7.42616 63.2912 7.34178C63.5162 7.22926 63.6006 6.97609 63.6569 6.75106C63.685 6.6948 63.685 6.61041 63.7131 6.55415C63.7412 6.46976 63.7412 6.35725 63.7131 6.27286C63.6569 6.18847 63.5725 6.13221 63.4881 6.10408C63.4318 6.10408 63.3756 6.07595 63.3193 6.04782C63.1505 5.99157 62.9255 5.93531 62.7005 5.99156C57.7215 7.53868 52.6301 9.11393 47.7356 10.661L43.6006 11.955C42.1379 12.4051 40.647 12.8833 39.1562 13.3333C39.0999 13.3615 39.0155 13.3333 38.903 13.3333C38.9311 13.2489 38.9874 13.1646 39.0155 13.0802C39.1843 12.7989 39.3812 12.5176 39.55 12.2644C39.9438 11.6737 40.3657 11.083 40.5908 10.3798C40.9002 9.45148 40.7595 8.38256 40.2532 7.56681C39.8594 6.94796 39.2968 6.66667 38.7061 6.49789C37.1871 6.07595 35.4431 6.30099 33.7553 7.53868C31.1955 9.42335 29.5078 11.9831 27.82 14.6554C27.0886 15.8369 26.1885 17.0183 24.5851 17.5527C23.4037 17.9466 21.9128 18.4529 21.1533 19.9437C21.1533 19.9437 20.7314 21.4346 22.166 21.2658C23.0661 21.1533 23.91 20.7032 24.8102 20.3938C24.9508 20.3376 25.1196 20.2813 25.2602 20.225C25.2602 20.2532 25.2602 20.2532 25.2602 20.2813C25.1758 20.8439 25.0915 21.4065 24.9789 21.9691C24.7539 23.263 24.5289 24.6132 24.5007 25.9353C24.4445 28.4107 25.2884 30.6048 26.8917 32.2926C27.9607 33.4177 29.2546 33.9803 30.6048 33.9803C30.6048 33.9803 33.699 34.5148 38.7342 29.4515C40.0282 28.1575 40.9846 26.5542 42.0253 25.1477C42.0253 25.1477 43.3193 22.4473 41.1533 23.9944L40.1969 25.1196ZM36.3995 9.14206C36.3995 9.14206 37.7216 7.98875 37.7778 9.39522C37.8622 11.5049 36.8777 13.1927 34.7961 14.4023C34.3179 14.6835 33.7834 14.8805 33.2208 15.1055L32.1238 15.443C32.1238 15.4712 33.7272 10.8017 36.3995 9.14206Z" fill="#94A0FF"/>
</g>
<defs>
<clipPath id="clip0_6600_522">
<rect width="140" height="40" fill="white"/>
</clipPath>
</defs>
</svg>
