<?xml version="1.0" encoding="UTF-8"?> <svg xmlns="http://www.w3.org/2000/svg" width="125" height="60" viewBox="0 0 125 60" fill="none"><path d="M34.6555 12.4575L43.1882 37.0167L44.2962 40.0565L45.4423 41.704L50.0522 41.8319L49.1605 44.271L50.1668 45.599H51.9754C51.9754 45.599 49.9123 50.3246 49.8993 50.3629C49.8864 50.4012 50.9439 51.7422 50.9439 51.7422L57.8078 44.1047L56.7892 42.7124L54.7392 42.6871L55.2228 42.1377L87.9898 44.6917L97.5541 12.3678L96.5607 11.0016L34.6555 12.4575Z" fill="#561415"></path><path d="M56.9008 42.7124H52.7151L54.3693 40.5538L86.9201 43.0059L96.5607 11.0016L34.6555 12.4575L43.1882 37.0167L44.2962 40.0565L50.6512 40.2994L50.0529 41.8319L49.165 44.2311L52.589 44.258C52.589 44.258 49.9184 50.3453 49.9146 50.3529L56.9008 42.7124Z" fill="white"></path><path d="M57.9248 40.822L86.9209 43.0066L96.5616 11.0016C93.237 16.2582 79.824 34.3431 57.9248 40.822Z" fill="#E0D2D2"></path><path d="M92.8363 41.0615L90.8596 40.8224L90.3507 41.6393L89.9495 40.4423L87.8482 40.2416C87.794 40.4696 87.722 40.693 87.6328 40.9098C87.3944 40.2875 86.9504 39.4945 85.6606 39.4945C84.3708 39.4945 83.8176 40.299 83.6357 40.6056C83.1872 39.1596 81.9547 39.1496 81.4963 39.1496C78.6912 39.1496 79.3568 42.4193 79.3667 42.4829C79.227 42.4771 79.0902 42.4413 78.9656 42.378C78.8127 42.2822 78.6125 42.0714 78.1159 42.2155C77.6192 42.3596 77.5619 42.9052 77.6482 43.2408C77.7416 43.5949 77.8868 43.9332 78.0792 44.2446C78.242 44.4844 78.433 44.6377 78.7478 44.6569C79.0626 44.676 79.2254 44.6185 79.3591 44.5228C79.4928 44.427 79.6456 44.0346 79.6456 44.0346C79.6456 44.0346 79.6838 44.0829 80.2477 44.0829C80.7826 44.5618 81.222 44.6676 81.9769 44.6867C82.4183 44.7022 82.8552 44.5928 83.2376 44.371C83.2376 44.371 83.5433 44.3902 84.231 44.4002C84.8423 44.9557 85.3198 45.0132 85.9601 45.0323C86.6005 45.0515 87.2209 44.6975 87.2209 44.6975L87.5938 45.4446C87.5938 45.4446 88.0905 45.512 88.5489 45.5312C89.0074 45.5503 90.4592 45.7419 90.4592 45.7419L90.5646 45.9818L92.141 46.4515L93.1916 41.9596L92.8363 41.0615ZM81.3939 42.1343C81.3939 42.1343 81.4451 41.4446 82.1328 41.5596C82.145 41.7925 82.0052 42.3289 81.3939 42.1373V42.1343ZM83.3171 42.1473L83.1391 41.9557C83.2035 41.9215 83.2721 41.8957 83.3431 41.8791L83.3171 42.1473ZM85.52 42.594C85.52 42.594 85.4566 42.1979 85.9151 41.981C85.9785 42.1121 85.8891 42.699 85.52 42.5971V42.594Z" fill="#561415"></path><path d="M93.6311 34.2322C93.6311 34.2322 95.8088 33.8491 96.4835 33.6575C96.1527 32.6866 95.7064 31.8054 94.6115 30.5288C93.5165 29.2522 92.676 28.8813 92.676 28.8813C89.181 27.456 87.228 28.538 87.228 28.538L87.202 28.256L86.2575 27.1702L82.2078 26.915C82.2078 26.915 81.8258 30.1847 81.8258 30.2866C81.8258 30.3885 80.6544 27.8598 80.6544 27.8598L79.6611 26.7357L76.0698 25.8675C76.0698 25.8675 75.8153 27.2468 75.4837 28.8047C74.618 27.5533 73.8539 26.6844 72.8858 26.174C71.8107 25.607 68.3707 24.9058 66.2129 27.2982L66.1365 26.3273L65.1683 25.3058L60.991 25.4844L61.1438 32.3556L59.7172 32.4322L59.666 25.8169L58.6979 24.6928L54.8262 25.6376L55.0807 32.3809L54.4442 32.4575L54.2914 25.9694L53.1964 24.8714L49.8091 25.689L49.0702 24.8974L46.065 25.4085L45.7846 25.0767L41.3276 25.9449L40.4359 29.0866L39.4808 26.6859L38.4874 25.6131L34.0442 26.4422L35.7 37.5019L36.7697 38.6643L40.0302 37.7448L40.0684 37.4253L40.2212 37.5785L42.972 37.1954L43.1882 37.0168V36.7234L43.895 37.4513L47.3143 37.7004L47.3908 37.3747L50.3111 36.7801L50.9224 37.4697L55.8318 36.895L56.2138 37.3931L61.9064 36.9333L62.0019 36.6651L62.2884 37.0099L65.9752 36.4927C65.9752 36.4927 65.9752 36.0138 66.0134 35.1517C66.6247 36.0713 67.7327 37.0099 68.6496 37.3739C69.5665 37.7379 71.4577 37.7096 71.4577 37.7096C73.1677 37.7096 74.2084 36.8666 74.2084 36.8666C74.2084 36.8666 74.2084 37.0912 74.2084 37.1019C74.2084 37.1126 75.1651 38.1984 75.1651 38.1984L79.1957 38.39L79.5205 35.2674L80.5138 37.7578L81.5071 38.8498L85.3658 38.7157L85.4613 37.9111C85.4613 37.9111 85.8052 38.3325 86.6839 39.0605C87.5626 39.7885 89.314 40.1072 89.314 40.1072C89.874 40.2735 91.7461 40.4007 93.0451 40.1325C94.344 39.8643 94.7773 38.613 95.0317 37.872C95.2862 37.131 94.9171 35.8283 94.7261 35.4199C94.5351 35.0115 93.6311 34.2322 93.6311 34.2322ZM71.1665 32.138C71.0901 32.5081 70.8479 32.9678 70.6569 33.0575C70.4659 33.1471 69.8798 33.1341 69.8798 33.1341C69.7675 31.9548 69.824 30.3265 71.2422 30.2989C71.2689 30.7334 71.2429 31.7678 71.1665 32.138ZM86.0665 34.6299L86.2652 33.7494L86.7787 34.2644L86.0665 34.6299Z" fill="#561415"></path><path d="M89.6202 16.5693C89.595 15.3685 89.6202 13.734 88.296 12.0482C86.9718 10.3624 86.3346 9.54558 84.0682 8.88122C83.9322 8.8429 77.5818 6.83603 74.3382 11.895C72.6144 14.5838 72.8436 17.97 72.9376 19.5578H70.5177L70.9509 9.31493L69.8682 8.19157L64.3414 9.08581V11.7548L64.4308 19.098H61.272L61.1956 11.8314L61.2086 9.36627L60.1259 8.17854L56.1273 9.12413L55.0958 8L42.9718 9.62221L41.9403 8.54942L36.3883 9.83906C36.3883 9.83906 36.872 12.3425 36.872 12.3808C36.872 12.39 37.4389 15.1869 37.4389 15.1869L35.4118 15.5662C35.4118 15.5662 35.0893 12.4911 35.0718 12.5011C35.0297 12.5279 34.9533 11.6084 34.9533 11.6084L33.8309 10.3617L28 11.9126L30.7913 24.5838L31.7395 25.688L36.7444 25.6366L36.1713 21.1409L37.6483 20.8344L38.1832 20.6941L38.9343 23.9761L39.991 25.1385L44.9982 24.5324L45.1434 24.36L45.2763 24.5133L56.025 24.7684L56.1526 24.4106L56.5094 24.947L64.9909 24.3853L65.4242 24.973L73.422 25.2795L74.0333 22.3677C74.0333 22.3677 75.0014 23.8489 76.3768 24.8198C78.5063 26.3224 82.6508 26.7837 84.7819 26.0711C87.8368 25.0497 89.7394 22.1761 89.6202 16.5693ZM54.3294 13.757L54.891 13.7486L54.9162 14.3961L54.3294 13.757ZM55.0668 18.5486L55.0331 17.2037L55.186 18.5148L55.0668 18.5486ZM82.9855 17.157C82.8457 18.2168 82.349 19.6857 81.9922 20.0053C81.6353 20.3248 81.3809 20.452 80.7696 20.3884C80.7696 20.3884 80.0514 20.2758 79.8886 20.1202C79.5929 19.839 79.573 18.9072 79.573 18.9072C79.586 18.0129 79.7258 17.0045 79.9551 16.4934C80.1843 15.9823 80.49 15.4336 80.9614 15.0758C81.4329 14.7179 82.0946 14.5394 83.0757 14.6927C83.1635 14.9984 83.1253 16.0972 82.9855 17.157Z" fill="#561415"></path><path d="M73.999 27.7916C72.9629 25.5096 65.7215 24.4491 65.2669 31.1417C65.2669 31.1417 65.1905 32.1693 65.4197 33.1019C66.2128 36.3501 69.6528 36.2168 70.8853 36.167C74.9045 35.9999 75.405 30.9049 73.999 27.7916ZM71.6838 31.8643C71.5699 32.6252 71.3613 33.672 70.2794 33.6344C69.1974 33.5969 68.7229 33.0252 68.5525 32.4168C68.3961 31.8529 68.37 31.2606 68.4761 30.685C68.6473 29.7525 68.7985 29.4674 69.1783 29.1433C69.5581 28.8191 69.9187 28.6835 70.3741 28.7057C70.8295 28.728 71.4935 28.8391 71.6074 29.4099C71.7212 29.9808 71.7946 31.1034 71.6807 31.8643H71.6838Z" fill="url(#paint0_linear_780_1247)"></path><path d="M85.547 39.7875C83.3708 39.7875 83.5603 42.1002 83.5603 42.1707C83.5978 43.2365 84.073 43.6197 84.763 43.7967C86.9193 44.3522 87.2846 43.045 87.4099 42.0672C87.7033 39.8335 86.1858 39.7875 85.547 39.7875ZM86.2179 41.7224C86.1804 42.2833 86.0223 42.8534 85.5378 42.8534C85.1275 42.8534 85.0534 42.6381 85.0534 42.6381C84.9046 42.3744 84.8425 42.0703 84.8761 41.7691C84.9227 41.2327 85.2207 40.8343 85.6685 40.8343C86.1162 40.8343 86.2561 41.1615 86.2186 41.7216L86.2179 41.7224Z" fill="url(#paint1_linear_780_1247)"></path><path d="M59.7692 8.79166L59.7883 19.5387L64.1628 19.577L63.6661 22.8911L55.9678 23.3509L55.0891 9.82609L59.7692 8.79166Z" fill="url(#paint2_linear_780_1247)"></path><path d="M54.6339 8.57477L54.1258 12.1916L47.9946 12.4384V14.1647L53.6505 13.951V17.3049L47.9946 17.3379V19.0804H54.9127L54.6996 23.2237L44.683 23.0268L42.814 10.1204L54.6339 8.57477Z" fill="url(#paint3_linear_780_1247)"></path><path d="M39.3283 23.5409L38.2639 18.8965L34.7124 19.6804L35.2289 24.0734L31.1142 24.1363L28.501 12.259L33.5074 10.9885L34.1798 16.37L37.9193 15.57C37.9193 15.57 36.9183 10.1885 36.9649 10.1571C37.0115 10.1257 41.6771 9.12106 41.6771 9.12106L43.7112 22.9761L39.3283 23.5409Z" fill="url(#paint4_linear_780_1247)"></path><path d="M43.2914 35.9751L42.9857 30.8365L41.7922 35.651L39.6291 35.9575L37.9969 31.1805L38.6235 36.2809L36.0806 36.9851L34.6379 26.7829L38.2055 26.1737C38.2055 26.1737 40.2548 31.5782 40.3122 31.5376C40.3695 31.497 41.6402 26.3269 41.6975 26.3269C41.7548 26.3269 45.2085 25.661 45.2842 25.661C45.3598 25.661 45.9107 36.1276 45.9107 36.1276L43.2914 35.9751Z" fill="url(#paint5_linear_780_1247)"></path><path d="M46.574 35.9177L45.606 25.9646L48.7563 25.4128L49.3821 35.271L46.574 35.9177Z" fill="url(#paint6_linear_780_1247)"></path><path d="M55.1328 35.3659L50.2556 35.9023C50.2556 35.9023 49.6481 26.2158 49.6863 26.235L52.8955 25.4741L53.0483 33.1437L55.4171 32.8771L55.1328 35.3659Z" fill="url(#paint7_linear_780_1247)"></path><path d="M60.6172 35.3851L55.7782 35.8418L55.3418 26.0028L58.2263 25.2794V33.0825L60.997 32.835L60.6172 35.3851Z" fill="url(#paint8_linear_780_1247)"></path><path d="M64.5839 35.004C64.5839 35.004 61.5665 35.4416 61.6429 35.4224C61.7193 35.4033 61.4526 25.9076 61.4526 25.9076L64.7543 25.8884L64.5839 35.004Z" fill="url(#paint9_linear_780_1247)"></path><path d="M64.832 9.5193L69.4357 8.77219L68.9964 20.0364H72.8742L72.1101 23.5613L64.8702 23.4655L64.832 9.5193Z" fill="url(#paint10_linear_780_1247)"></path><path d="M78.4066 43.5682C78.7337 43.5682 78.9988 43.3023 78.9988 42.9743C78.9988 42.6463 78.7337 42.3805 78.4066 42.3805C78.0796 42.3805 77.8145 42.6463 77.8145 42.9743C77.8145 43.3023 78.0796 43.5682 78.4066 43.5682Z" fill="url(#paint11_linear_780_1247)"></path><path d="M78.4172 31.3698L77.8097 36.8502L74.6975 36.6602L76.4435 26.5353L79.3089 27.1445L82.0222 32.6065L82.6105 27.5062L85.7418 27.6204L83.9776 37.1927L80.8654 37.3452L78.4172 31.3698Z" fill="url(#paint12_linear_780_1247)"></path><path d="M82.3315 43.4327C78.9825 44.5822 78.3895 39.288 81.5575 39.3447C82.3911 39.3592 83.0383 39.6289 83.3287 40.5171C83.3287 40.5171 82.3032 41.1155 82.2757 41.1339C82.2757 41.1339 82.1825 40.4443 81.5491 40.4236C80.9156 40.4029 80.8125 40.9753 80.7941 41.5079C80.7643 42.3577 81.8348 42.8718 82.4156 41.8351L83.4784 42.4703C83.4784 42.4703 83.4219 43.0588 82.3315 43.4327Z" fill="url(#paint13_linear_780_1247)"></path><path d="M89.7144 40.6841C89.7144 40.6841 89.8825 42.8059 89.8916 42.7776C89.9008 42.7492 90.9545 41.114 90.982 41.0918C91.0095 41.0695 92.5568 41.2695 92.5568 41.2695L91.5505 45.2741C91.5505 45.2741 90.4601 44.9752 90.4601 44.9469C90.4601 44.9185 90.9071 43.0871 90.9071 43.0871L89.9474 44.6013L89.0618 44.5078L88.9755 42.6097L88.6026 44.4695L87.4473 44.3392C87.4656 44.2925 88.1739 40.5078 88.1839 40.4787C88.1938 40.4496 89.7144 40.6841 89.7144 40.6841Z" fill="url(#paint14_linear_780_1247)"></path><path d="M91.6966 31.7676C90.8271 31.091 89.5572 30.9661 89.0467 31.1944C88.7136 31.3477 88.7854 31.7178 88.8175 31.776C88.8939 31.9232 89.1094 32.0933 89.6748 32.304C90.7698 32.7124 92.4256 33.4021 93.0499 34.2067C94.2831 35.7975 93.3333 37.6833 92.8841 38.0511C90.8974 39.6779 86.9317 38.1561 86.9241 38.153C86.16 37.8595 85.1414 36.9139 84.5806 35.9438L87.1655 34.6028C87.9426 36.5262 90.7996 36.3913 90.8584 35.9569C90.8966 35.6756 90.5276 35.3569 89.7505 35.0626C85.6572 33.5147 85.5632 32.1508 85.8536 30.8228C86.2708 28.9178 88.628 28.3117 90.578 28.7155C94.2984 29.4864 94.7981 32.1416 94.8058 32.1891C94.4237 32.317 92.2842 32.7891 92.2842 32.7891C92.2842 32.7891 92.3209 32.2527 91.6966 31.7676Z" fill="url(#paint15_linear_780_1247)"></path><path d="M88.1948 15.1518C88.1566 13.5426 87.6599 12.1824 87.0104 11.3779C86.3609 10.5733 85.3676 9.74952 83.5146 9.28976C81.6617 8.82999 79.484 8.81083 77.8603 9.48132C76.2366 10.1518 75.0331 11.5886 74.46 12.5847C73.887 13.5809 73.4721 15.4016 73.333 16.3778C73.0082 18.6575 73.5431 20.4391 73.9252 21.3395C74.3072 22.2398 75.4725 23.4659 76.9243 24.0214C78.3761 24.577 80.0953 25.0176 81.4898 24.8835C84.0197 24.6398 86.1111 24.3471 87.6217 20.3241C88.1757 18.8491 88.233 16.761 88.1948 15.1518ZM80.7234 20.8605C79.4817 20.6881 79.0041 20.1134 78.6412 19.6536C77.6188 18.1012 78.2951 14.6361 79.6727 13.6192C80.6852 12.8721 81.8122 13.0637 82.2898 13.1595C82.7673 13.2552 83.4932 13.7342 83.5506 14.941C83.617 16.2974 83.4199 21.2352 80.7234 20.8605Z" fill="url(#paint16_linear_780_1247)"></path><path d="M29.5298 16.9377L31.1207 24.1368L31.4722 24.1315L31.6158 24.1246L29.105 12.8159L33.5933 11.6741L33.507 10.9883L29.1195 12.1017L28.5044 12.2757L29.5298 16.9377Z" fill="#F3FF7B"></path><path d="M41.7025 9.31033L41.6772 9.12106C41.6772 9.12106 37.0162 10.1249 36.9681 10.1563C36.9498 10.1686 37.0934 11.0069 37.2737 12.0207L37.9171 15.5677V15.5455L37.9217 15.5693L34.2104 16.3639L34.7102 16.931L38.5215 16.144L37.5351 10.7479L41.7498 9.82834L41.7025 9.31033Z" fill="#F3FF7B"></path><path d="M45.2003 23.0321L43.5956 10.7204L54.5429 9.22074L54.6338 8.57477L42.814 10.1204L44.5523 22.1264L44.6905 22.9808L45.2003 23.0321Z" fill="#F3FF7B"></path><path d="M48.3843 14.5517L53.6505 14.5762V13.9509L48.5983 14.1417L47.9763 14.1686C48.0527 14.1686 48.3843 14.5517 48.3843 14.5517Z" fill="#F3FF7B"></path><path d="M54.9128 19.0804H47.9947V19.0727H47.9763L48.4607 19.4045L54.883 19.6597L54.9128 19.0804Z" fill="#F3FF7B"></path><path d="M65.3187 23.4717L65.4494 23.4655L65.3982 10.107L69.4113 9.39825L69.4357 8.77219L64.832 9.5193L64.8664 22.2088L64.8886 23.4663L65.3187 23.4717Z" fill="#F3FF7B"></path><path d="M83.4573 9.28962C82.7437 9.1264 82.0184 9.01956 81.288 8.97008C80.0724 8.91798 78.8613 9.06817 77.8603 9.48119C76.2366 10.1517 75.0331 11.5885 74.46 12.5846C73.887 13.5808 73.4721 15.4014 73.333 16.3777C73.0082 18.6574 73.5431 20.4389 73.9252 21.3393C74.1383 21.842 74.596 22.4466 75.2119 22.9792L75.2562 23.006C72.9234 20.2995 74.1353 15.4198 74.2629 15.062C74.5754 14.1938 75.6513 10.1908 80.1717 9.64671C82.0819 9.41682 84.4507 9.54479 86.921 11.3325C86.4878 10.7716 85.3981 9.72487 83.4573 9.28962Z" fill="#F3FF7B"></path><path d="M83.3039 13.9647C83.4572 14.2678 83.5412 14.6012 83.55 14.9409C83.6142 16.2965 83.4178 21.2344 80.7228 20.8604L80.6594 20.8505C79.3833 20.721 78.6406 19.7363 78.6406 19.7363C79.0763 20.2981 79.6117 20.7743 80.22 21.1409C81.9522 22.1623 84.3974 21.2688 83.9129 15.2919C83.8426 14.4007 83.3108 13.9701 83.3039 13.9647Z" fill="#F3FF7B"></path><path d="M38.2055 26.1736L34.6379 26.7828L35.6312 33.7958L36.1256 36.9712L36.5153 36.8632L35.0926 27.3553L38.4087 26.7085L38.2055 26.1736Z" fill="#F3FF7B"></path><path d="M38.0364 31.2176L39.9436 35.9148L39.6105 35.9891L38.0364 31.2176Z" fill="#F3FF7B"></path><path d="M45.3312 26.3139V26.0925C45.3129 25.8626 45.2983 25.7093 45.2884 25.671L44.493 25.8013C43.4485 25.9967 41.7369 26.3247 41.6971 26.3247C41.6414 26.3247 40.4134 31.3177 40.3164 31.5353V31.5415C40.5938 31.4855 40.8711 30.7361 40.8711 30.7361L42.2045 26.8373L45.3312 26.3139Z" fill="#F3FF7B"></path><path d="M43.7817 36.0035C43.2063 30.9928 43.0176 30.8357 42.9885 30.8403L43.1582 33.7077L43.2949 35.9751L43.7817 36.0035Z" fill="#F3FF7B"></path><path d="M47.0379 35.8112L46.0729 26.5308L48.7969 26.0565L48.7563 25.4128L45.606 25.9646L46.5053 35.212L46.5787 35.9169L47.0379 35.8112Z" fill="#F3FF7B"></path><path d="M50.199 26.7414L52.9062 26.1283L52.8955 25.5958L52.8757 25.4755L49.6863 26.2325C49.6481 26.2134 50.2556 35.8999 50.2556 35.8999L50.7805 35.8424L50.199 26.7414Z" fill="#F3FF7B"></path><path d="M55.3519 33.4467L55.4176 32.8736L53.052 33.1387L53.3355 33.4421L55.3519 33.4467Z" fill="#F3FF7B"></path><path d="M56.2129 35.8004L55.8155 26.5116L58.2263 25.9453V25.2894L57.9627 25.3453L55.3418 26.0028L55.7781 35.8418L56.2129 35.8004Z" fill="#F3FF7B"></path><path d="M60.9971 32.8351L58.3013 33.0757L58.2288 33.0826L58.7958 33.3316L60.9108 33.4129L60.9971 32.8351Z" fill="#F3FF7B"></path><path d="M61.649 35.3841V35.4224C61.6902 35.4178 61.8644 35.3941 62.1074 35.3596L61.9813 26.4539L64.7405 26.3972L64.7497 25.8884L61.448 25.9076C61.448 25.9076 61.6971 34.7381 61.649 35.3841ZM73.2098 26.9068C71.9666 26.0271 69.6835 25.6631 67.8787 26.578C67.3133 26.8889 66.8113 27.3035 66.3986 27.8003C65.6888 28.7198 65.4351 29.7926 65.3289 30.5129C65.2062 31.5685 65.3025 32.6381 65.6116 33.6546C65.7531 34.0795 65.9814 34.4701 66.2817 34.8017C66.325 34.8497 66.3691 34.896 66.4139 34.9404C66.407 34.9312 65.1149 32.7719 66.2038 29.4424C66.9106 27.2777 70.2917 25.4003 73.8639 27.565C73.665 27.3273 73.4462 27.1071 73.2098 26.9068Z" fill="#F3FF7B"></path><path d="M71.5532 29.2317C71.5532 29.247 71.5586 29.2616 71.5616 29.2761C71.5793 29.319 71.5928 29.3633 71.6021 29.4087C71.716 29.9796 71.7916 31.1022 71.6785 31.8608C71.609 32.3267 71.5036 32.8983 71.1849 33.2639C71.1584 33.3008 71.1285 33.3352 71.0955 33.3665C71.0337 33.4224 70.9636 33.4685 70.8877 33.5029C70.6989 33.5993 70.4879 33.6435 70.2764 33.6309C69.792 33.614 69.4306 33.4899 69.1624 33.3037L69.1387 33.2914C69.9219 34.1535 70.2535 34.165 70.9442 34.1343C72.6444 34.0592 72.5871 29.634 71.5532 29.2317ZM77.9831 43.2063C77.9828 42.9788 78.1152 42.7721 78.3218 42.678C78.5283 42.5839 78.7706 42.6197 78.9413 42.7695C78.8652 42.5367 78.6514 42.3769 78.4072 42.3704C78.1629 42.3638 77.9409 42.5119 77.8525 42.7403C77.7641 42.9687 77.8283 43.2282 78.0129 43.3887C77.9933 43.3299 77.9833 43.2683 77.9831 43.2063Z" fill="#F3FF7B"></path><path d="M76.4435 26.5353L74.6975 36.6602L75.2622 36.6947L76.8997 27.0541L79.5197 27.5897L79.4372 27.4028L79.3089 27.1445L76.4435 26.5353Z" fill="#F3FF7B"></path><path d="M85.742 27.6206L82.6107 27.5064L82.0261 32.5746L82.522 33.2543L83.0562 28.0237L85.6442 28.1501L85.742 27.6206Z" fill="#F3FF7B"></path><path d="M56.4836 23.3126L55.6935 10.3885L59.77 9.47441L59.7693 8.79166L55.0891 9.82609L55.9663 23.3379L56.4836 23.3126Z" fill="#F3FF7B"></path><path d="M78.4199 31.3728L78.5269 31.6371L80.8658 37.3451L81.0141 37.3374L81.1692 37.3267L78.4199 31.3728Z" fill="#F3FF7B"></path><path d="M85.9405 32.431C85.9405 32.431 85.8641 31.3199 86.1888 30.7261C87.6445 28.064 92.6019 29.0402 94.4984 31.4157C94.4742 31.3636 94.453 31.3101 94.435 31.2555C93.9552 30.3989 92.887 29.1935 90.5763 28.7146C88.6263 28.3107 86.2683 28.9169 85.8519 30.8218C85.7579 31.2494 85.7044 31.6816 85.8121 32.1245C85.8182 32.1467 85.8236 32.1697 85.8297 32.1919C85.8633 32.2686 85.9 32.349 85.9405 32.431ZM84.7118 36.1605L84.7562 36.2264C84.7982 36.2892 84.8417 36.3521 84.8876 36.4141C85.1061 36.2685 86.0857 35.6226 87.0271 35.1321C87.3709 35.9559 88.3069 36.6264 89.6823 36.6455C91.0386 36.6647 90.9339 36.0517 90.8575 35.9176C90.8575 35.9176 90.8575 35.9176 90.8575 35.9222C90.8581 35.9334 90.8581 35.9447 90.8575 35.9559C90.8575 35.9559 90.8575 35.962 90.8575 35.9651C90.8576 35.9717 90.8555 35.9782 90.8514 35.9835C90.8472 35.9935 90.8418 36.003 90.8353 36.0118C90.5526 36.3819 88.1006 36.4302 87.2586 34.7934C87.2314 34.7472 87.2086 34.6984 87.1906 34.6479C87.1837 34.6318 87.1761 34.6164 87.1692 34.6003L84.5842 35.9413C84.6133 35.9919 84.6446 36.0425 84.6759 36.0946L84.7118 36.1605Z" fill="#F3FF7B"></path><path d="M93.0467 34.2069C92.4224 33.4023 90.7674 32.7126 89.6716 32.3042C89.2361 32.1418 89.0069 32.0038 88.8907 31.8812L88.8632 31.8759C88.8632 31.8759 88.5958 32.4697 90.1049 32.9487C91.614 33.4276 93.0849 34.3663 93.6006 35.4391C93.6006 35.4314 93.6006 35.4214 93.6006 35.413C93.5138 34.9727 93.3239 34.5593 93.0467 34.2069ZM79.9064 42.8252C79.1316 39.8735 81.1878 39.5969 81.6226 39.5892C82.5517 39.5739 83.0339 40.0053 83.1714 40.1524L83.1638 40.1386C83.1444 40.1049 83.1243 40.072 83.1034 40.0398L83.079 40.0038C83.0644 39.9823 83.0492 39.9624 83.0339 39.9417C82.69 39.5049 82.1766 39.3532 81.5592 39.3425C79.4724 39.3072 79.017 41.59 79.9064 42.8252ZM85.5478 39.7877C83.3716 39.7877 83.5611 42.1003 83.5611 42.1708C83.5787 42.675 83.6956 43.0252 83.8859 43.2742C83.8278 43.0183 83.2929 40.5815 85.0633 40.1087C85.0633 40.1087 86.0758 39.7202 87.1814 40.4559C86.7673 39.8076 85.968 39.7877 85.5478 39.7877ZM85.0924 42.698C85.0921 42.6995 85.0921 42.7011 85.0924 42.7026V42.698Z" fill="#F3FF7B"></path><path d="M86.1876 41.2272C86.2241 41.3895 86.2346 41.5565 86.2189 41.7222C86.1815 42.2831 86.0233 42.8532 85.5389 42.8532C85.2829 42.8532 85.1568 42.7697 85.0995 42.7068H85.0957C85.1171 42.7666 85.2577 43.09 85.7505 43.09C86.293 43.09 86.6904 42.1467 86.1868 41.1942C86.1861 41.1927 86.1868 41.2049 86.1876 41.2272ZM88.185 40.4785C88.1758 40.5061 87.4858 44.1942 87.4499 44.3344V44.3382L87.6875 44.3651C87.8098 43.8409 88.3752 40.7191 88.3752 40.7191L89.7124 40.8977L89.717 40.6831C89.717 40.6831 88.1949 40.4509 88.185 40.4785ZM89.2043 44.5221C89.1523 44.2156 89.0782 42.8011 88.975 42.6065L89.0591 44.5038L89.2043 44.5221ZM92.5151 41.4363L92.5564 41.2731C92.5564 41.2731 91.0091 41.077 90.9816 41.0954C90.9541 41.1137 89.9684 42.6356 89.8958 42.7689C89.8958 42.7735 89.8958 42.7773 89.8912 42.7781L91.1138 41.3137L92.5151 41.4363ZM90.9075 43.0915L90.8311 43.4095C90.7027 43.9367 90.4628 44.926 90.4628 44.9467C90.5434 44.9844 90.6276 45.0139 90.7141 45.0348L90.9075 43.0915Z" fill="#F3FF7B"></path><path d="M68.9961 20.0367L69.2184 20.4006L72.7333 20.6183L72.8739 20.0367H68.9961Z" fill="#F3FF7B"></path><path d="M60.0491 19.9154L64.0812 20.1184L64.163 19.5767L59.7885 19.5384L59.7877 19.5069H59.7434L60.0491 19.9154Z" fill="#F3FF7B"></path><defs><linearGradient id="paint0_linear_780_1247" x1="515.215" y1="115.61" x2="546.945" y2="654.061" gradientUnits="userSpaceOnUse"><stop stop-color="#DCF254"></stop><stop offset="1" stop-color="#CFE737"></stop></linearGradient><linearGradient id="paint1_linear_780_1247" x1="284.979" y1="146.532" x2="266.705" y2="365.661" gradientUnits="userSpaceOnUse"><stop stop-color="#DCF254"></stop><stop offset="1" stop-color="#CFE737"></stop></linearGradient><linearGradient id="paint2_linear_780_1247" x1="466.734" y1="102.583" x2="607.145" y2="1183.75" gradientUnits="userSpaceOnUse"><stop stop-color="#DCF254"></stop><stop offset="1" stop-color="#CFE737"></stop></linearGradient><linearGradient id="paint3_linear_780_1247" x1="577.459" y1="-61.2274" x2="896.606" y2="1320.68" gradientUnits="userSpaceOnUse"><stop stop-color="#DCF254"></stop><stop offset="1" stop-color="#CFE737"></stop></linearGradient><linearGradient id="paint4_linear_780_1247" x1="694.647" y1="300.371" x2="972.339" y2="1363.28" gradientUnits="userSpaceOnUse"><stop stop-color="#DCF254"></stop><stop offset="1" stop-color="#CFE737"></stop></linearGradient><linearGradient id="paint5_linear_780_1247" x1="562.069" y1="184.968" x2="656.638" y2="679.829" gradientUnits="userSpaceOnUse"><stop stop-color="#DCF254"></stop><stop offset="1" stop-color="#CFE737"></stop></linearGradient><linearGradient id="paint6_linear_780_1247" x1="229.291" y1="217.82" x2="323.72" y2="770.962" gradientUnits="userSpaceOnUse"><stop stop-color="#DCF254"></stop><stop offset="1" stop-color="#CFE737"></stop></linearGradient><linearGradient id="paint7_linear_780_1247" x1="310.003" y1="320.104" x2="432.758" y2="952.627" gradientUnits="userSpaceOnUse"><stop stop-color="#DCF254"></stop><stop offset="1" stop-color="#CFE737"></stop></linearGradient><linearGradient id="paint8_linear_780_1247" x1="310.424" y1="271.489" x2="402.908" y2="786.172" gradientUnits="userSpaceOnUse"><stop stop-color="#DCF254"></stop><stop offset="1" stop-color="#CFE737"></stop></linearGradient><linearGradient id="paint9_linear_780_1247" x1="225.038" y1="185.508" x2="256.514" y2="639.362" gradientUnits="userSpaceOnUse"><stop stop-color="#DCF254"></stop><stop offset="1" stop-color="#CFE737"></stop></linearGradient><linearGradient id="paint10_linear_780_1247" x1="447.293" y1="133.371" x2="518.053" y2="1348.39" gradientUnits="userSpaceOnUse"><stop stop-color="#DCF254"></stop><stop offset="1" stop-color="#CFE737"></stop></linearGradient><linearGradient id="paint11_linear_780_1247" x1="77.8145" y1="101.765" x2="196.247" y2="101.765" gradientUnits="userSpaceOnUse"><stop stop-color="#DCF254"></stop><stop offset="1" stop-color="#CFE737"></stop></linearGradient><linearGradient id="paint12_linear_780_1247" x1="552.873" y1="389.261" x2="726.351" y2="870.65" gradientUnits="userSpaceOnUse"><stop stop-color="#DCF254"></stop><stop offset="1" stop-color="#CFE737"></stop></linearGradient><linearGradient id="paint13_linear_780_1247" x1="275.777" y1="205.364" x2="282.692" y2="357.513" gradientUnits="userSpaceOnUse"><stop stop-color="#DCF254"></stop><stop offset="1" stop-color="#CFE737"></stop></linearGradient><linearGradient id="paint14_linear_780_1247" x1="339.297" y1="127.442" x2="343.271" y2="305.416" gradientUnits="userSpaceOnUse"><stop stop-color="#DCF254"></stop><stop offset="1" stop-color="#CFE737"></stop></linearGradient><linearGradient id="paint15_linear_780_1247" x1="615.627" y1="281.338" x2="584.426" y2="740.628" gradientUnits="userSpaceOnUse"><stop stop-color="#DCF254"></stop><stop offset="1" stop-color="#CFE737"></stop></linearGradient><linearGradient id="paint16_linear_780_1247" x1="73.1728" y1="806.37" x2="1570.37" y2="806.37" gradientUnits="userSpaceOnUse"><stop stop-color="#CBE430"></stop><stop offset="1" stop-color="#C5DF22"></stop></linearGradient></defs></svg> 