<?xml version="1.0" encoding="UTF-8"?> <svg xmlns="http://www.w3.org/2000/svg" width="631" height="420" viewBox="0 0 631 420" fill="none"><path d="M96 66c.4 1.4-1.6 31.7 0 36.7 1.7 5 1 5.5 8 11v58c0 .1-8.5 56.5-8.6 58.4-.2 1.8-.5 7.6 5.8 15.3-.1 2.5-.6 5-1.3 7.6 0 0-20.3 7.8-22.4 9.5-2.2 1.7-6.5 3-6.5 18.7s-1.6 21.5 4.6 30.9v18.7s-4.2 2.4-4.2 11.4-.5 28.1.4 30.5c1 2.4 2.5 7.2 9 9.7 2.3 2.2 5.7 5.8 11.5 5.7 5.9-.1 17-1.5 21.8-2 5-.6 28.3-4.5 31.6-16.8 8 3.6 27.1 12.5 32.9 15.7 5.7 3.1 12.7 7.3 22.1 3.4 9.5-3.9 43-20.5 43-20.5s2.6.9 4 2c1.2 1 4.6 5.4 11.6 5.6 7 .3 21-.3 21-.3s4.5-.8 6.8-2.2c2.5 1.4 4 1.8 13 1.8s12.7-.9 15.9-2.2c3.1 1.4 3 2.4 26.1 2.5 23.1.1 31.8.3 35.3-1a64 64 0 0 0 18.5 2c9.3 0 11.7-.4 13.5-1.2 2.5 1 6.6 2.5 14.4 2.4 7.8-.1 10.3 0 14.4-1.3 4.4 1.3 6 2.6 18.3 3.2 12.4.7 30 2 30 2 1.3.1 2.5-.1 3.6-.7 2.5 1.1 1 1.1 9.1 2 8.2 1 38 4 42.4 4.4 4.3.3 12.8-.6 16-6.3 3-5.6 2-9.4 2.5-13.4.4-4 .3-17-.6-21-1-4-1.6-6-5.2-8.8a3658 3658 0 0 1-8.9-64.5s-1.4-6-4.3-7.8c-3-1.9-4.1-1.2-5.4-2.7-1.3-1.6-4-4-5.7-4.2-1.5-4.5-2.5-8.6-2.5-8.6s4.4-1.3 5.5-5c1-3.5 2.1-4.7 2.2-10.7.2-6 0-44.9 0-44.9s-1.2-6.3-2.9-8c-1.7-1.7-2.6-3.1-6.3-4.3-.7-6-11.5-80.6-11.5-80.6l-6-40.7s-2.3-6.7-5.3-8.7c-3-2-4.2-1.7-4.2-1.7s-3-5-8.8-5.1c-1.8 0-22.5 6.5-50 15.4-3 1-8.1 57.7-11.3 58.8-3.3 1-4.6-53.6-8-52.4-57 18.7-128.5 42.8-128.5 42.8L126 64l-30 2Z" fill="black"></path><path d="M167 42.3c1.5-4.3 5.3-7.2 9.8-7.4l45.4-1.6a10.7 10.7 0 0 1 9.5 5.2c1.8-3.4 5.3-5.6 9.2-5.6 24.2-.6 48.7-.8 73-.8 7.2 0 16.1 7.7 16.1 7.8 2.5 1 3 1.4 4.6 2.5 6-8 15.4-12.4 27-12.4h.8c4 0 9.7.7 15 3.3 1.1-.3 2.2-.5 3.4-.5 7.5.2 15.1.6 22.7.6 2.4 0 8 2.1 11.1 4 3 1.8 3.5 3.4 3.5 3.4a12 12 0 0 1 5.8 3 16 16 0 0 1 4.4 11.2l.6 58.2 1.1-6.3c3.3-21.6 7-40.3 10.2-62.5.8-5.5 5.6-9.5 11.1-9.3 11 .5 22.3 1 33.4 1.7 5 .3 9.2 4.1 10 9.1a14665 14665 0 0 1 17.8 122.8l.6.2c4.8 1.2 8.1 5.5 8.1 10.4v47.5a10.8 10.8 0 0 1-14 10.3c-13.8-4.5-28-8.5-42.1-12-1-.3-1.8-.6-2.7-1.1-1 0-1.9 0-2.8-.3a640 640 0 0 0-35.8-7.5 11 11 0 0 1-8.9-10.5v-2.2a10.8 10.8 0 0 1-12.2 9.3l-12-1.6c-3-.3-5.7-2-7.4-4.4a34.3 34.3 0 0 1-20.3 4c-15.5-1.2-26.2-7.3-31.7-18a56.6 56.6 0 0 1-4.9-16.6v19.3a10.8 10.8 0 0 1-10.8 10.8c-24.8-.2-49.6 1.1-74.2 3.8a10.7 10.7 0 0 1-10-4.4 10.8 10.8 0 0 1-8.5 6.7 635.8 635.8 0 0 0-41.3 7.1c-2.3.5-4.7.2-6.8-.8-1.5 1.8-3.6 3-5.9 3.6l-10.2 2.4c-2.4.6-4.9.3-7.1-.7-1.4 2-3.5 3.4-6 4a623.3 623.3 0 0 0-35 10.6 10.7 10.7 0 0 1-14-10.2v-47.8c0-5 3.3-9.2 8-10.5l.5-.1.1-64.3c-5-1-8.6-5.4-8.6-10.5V49.4c0-5.7 4.5-10.4 10.1-10.7 15.3-1 30.8-2 46.1-2.7 5.6-.3 13 4.8 14.3 6.3Z" fill="black"></path><path d="M106.8 234.2c-3 0-5.3-2.4-5.3-5.3V181c0-2.5 1.6-4.6 4-5.3l4.5-1.1.2-74-2.5.3a5.4 5.4 0 0 1-6.1-5.3V50c0-2.9 2.2-5.2 5-5.4 15.3-1 30.8-1.9 46-2.7a5.4 5.4 0 0 1 5.7 4.6l6.2 41.5 7-42.7a5.4 5.4 0 0 1 5.1-4.5l45.4-1.6a5.4 5.4 0 0 1 5.5 5.5l-.2 40.2c0 2.9-2.3 5.2-5.1 5.4l-4 .2-.5 64.5 3-.3a5.4 5.4 0 0 1 6 5.4l-.2 42.1c0 2.7-2 5-4.7 5.3-14 2-28 4.4-41.7 7.2a5.4 5.4 0 0 1-6.5-5.3l.1-11.1-2.3 14.8c-.3 2.1-2 3.9-4 4.4l-10.4 2.4a5.4 5.4 0 0 1-6.6-4.3l-2.5-15.4v18c0 2.4-1.7 4.5-4 5.1a627.4 627.4 0 0 0-35.4 10.7l-1.7.2Zm5.5-49v36.2A644 644 0 0 1 137 214l.2-34.7-2.2.5a5.4 5.4 0 0 1-6.5-5.3l.4-92.8a5.4 5.4 0 0 1 10.7-.8c7 45 13.8 86.7 20.5 127.2l1.2-.2c6.5-42.5 13.3-86 21-132.7a5.4 5.4 0 0 1 10.6.9l-.6 88.5c0 2.7-2 4.9-4.6 5.3l-3.1.5-.2 32.5a655 655 0 0 1 31.3-5.4l.2-31.4-3 .3a5.4 5.4 0 0 1-6-5.3l.5-75.7c0-2.8 2.2-5.2 5-5.3l4-.3.2-29.6-35.3 1.2-11.7 72.2a5.4 5.4 0 0 1-10.6 0l-10.8-70.7-36 2.1v34.6l2.6-.4a5.4 5.4 0 0 1 6 5.4l-.1 84.3c0 2.4-1.7 4.6-4.1 5.2l-4.4 1Zm27.1-37.3v19.9l2.2-.5 1-.1-3.2-19.3Zm42.3-1-2 13.4 2-.4v-13Zm328.7 85.8c-.5 0-1 0-1.6-.3-14-4.5-28.3-8.6-42.5-12.1-1-.3-2-.8-2.6-1.5-1 .3-2 .3-3 .1-12-2.8-24-5.4-36.1-7.5a5.4 5.4 0 0 1-4.5-5.3l-.2-43a5.4 5.4 0 0 1 6-5.3l3.1.4a21118 21118 0 0 0 16.4-112.5A5.4 5.4 0 0 1 451 41c11 .5 22.3 1 33.3 1.7 2.5.1 4.6 2 5 4.6 6.4 42.7 12.6 85.2 18.3 126.2l4.1 1c2.4.7 4 2.8 4 5.3l.1 47.5c0 3-2.4 5.4-5.3 5.4ZM473 210.9a692 692 0 0 1 32.1 9V184l-3.5-.9a5.4 5.4 0 0 1-4-4.4c-5.7-40.8-11.8-83-18.2-125.5l-24-1.1c-5.5 38.6-11 76.6-16.4 113a5.4 5.4 0 0 1-6.2 4.6l-2-.3.2 32.2a652 652 0 0 1 25.6 5.3l-.2-33.3a621 621 0 0 0-5.7-1 5.4 5.4 0 0 1-4.4-6l2.7-22a5.4 5.4 0 0 1 6.2-4.6l19.6 3.2c2.3.5 4 2.3 4.4 4.7l2.8 23.5a5.4 5.4 0 0 1-6.4 5.9l-2.8-.6.2 34.2Zm-5.6-46.1h1l2 .5-1.4-12.1-10-1.7-1.4 11.4 5.1.9c1 .2 2 .7 2.7 1.4.7-.3 1.3-.4 2-.4ZM404 208h-.8l-12.2-1.7c-2-.2-3.7-1.5-4.4-3.4l-1.5-4a26.5 26.5 0 0 1-22 7c-13.5-1-22.7-6.1-27.3-15-4.3-8.2-6.3-23.4-6.4-46.3l-.1-43.3c0-24.4 2-40.8 6-49.9 3.4-7.2 10.6-15.7 26.7-15.5 6.5.1 11.4 1.7 15 4 1-.8 2.1-1.2 3.3-1.1l22.7.5c3 .1 5.2 2.5 5.3 5.4l.4 63.2c0 .9-.2 1.8-.7 2.6l5.7.5c2.7.3 4.8 2.6 4.9 5.3l.1 23.1a5.4 5.4 0 0 1-6 5.4l-3.8-.4.4 58.2a5.4 5.4 0 0 1-5.4 5.4Zm-8.4-12 3 .5-.5-58a5.4 5.4 0 0 1 6-5.4l3.9.4-.1-12.2c-10.5-.9-21-1.6-31.4-2.2v11.7l3.4.2c2.8.2 5 2.6 5 5.4v5.1c.1 8.5-1.5 14-5 17.3a11.2 11.2 0 0 1-8.8 3c-4-.3-9.4-2.7-12.4-12.4-1.9-6-2.8-14.5-2.9-25.9-.1-29.9 4.3-38 8.1-41.7 2.1-2.1 5-3.3 8-3.1 8.2.3 13.1 5.8 13.2 14.7v.2l-.2 7.7 13 .8-.3-52.1-12-.4v2.5a5.4 5.4 0 0 1-10.4 2c-1.1-3.1-3.8-7.3-13.4-7.4-8.4-.1-13.7 2.8-16.6 9.2-2.4 5.2-5.2 17.3-5.2 45.4l.1 43.3c.1 26 2.9 36.8 5.2 41.3 2.8 5.5 9 8.6 18.7 9.4 8.3.7 13.5-2 16.9-8.7l.7-1.6a5.4 5.4 0 0 1 10 .5l4 10.6Zm-28-56.1c.3 2.1.8 4.2 1.4 6.3 1 3.2 2.2 4.8 3 4.8h.5c.2-.2 1.8-1.9 1.7-9.4v-.2l-3.4-.2c-1.2 0-2.3-.5-3.2-1.3Zm4-50.5c-.5.3-3.6 3.3-4.7 20.5l.4-.4c1-1 2.5-1.6 4-1.5l3 .2a7 7 0 0 1-.3-2l.3-12.8c0-3.8-1.2-4-2.7-4ZM239.8 205.2a5.4 5.4 0 0 1-5.4-5.4l.2-41.6c0-2.8 2.2-5 5-5.3l3.8-.4.4-63.3-3.2.1a5.4 5.4 0 0 1-5.5-5.4l.2-39.8c0-3 2.3-5.3 5.2-5.3 24.2-.6 48.8-.8 73-.8 3 0 5.4 2.4 5.4 5.4v61c0 3-2.4 5.4-5.3 5.4h-11.4v15.7c0 .7 0 1.4-.4 2h13.6c3 0 5.3 2.4 5.3 5.4v63a5.4 5.4 0 0 1-5.4 5.5 652.8 652.8 0 0 0-75.5 3.8Zm5.6-42-.2 30.7c21.4-2.2 43.2-3.3 64.7-3.3v-52.3l-12 .1-.1 17c0 3-2.4 5.3-5.3 5.4-6 .1-12 .3-17.8.6a5.4 5.4 0 0 1-5.7-5.4l.1-29.9c0-2.9 2.3-5.3 5.2-5.4l17.2-.4v-5l-16.8.5a5.4 5.4 0 0 1-5.5-5.4V82.8c0-2.9 2.4-5.3 5.3-5.3l18-.3a5.4 5.4 0 0 1 5.4 5.3v16.6h10.3V48.8c-20.7 0-41.5.2-62.2.6l-.1 29 3.1-.2a5.4 5.4 0 0 1 5.6 5.4l-.4 74c0 2.7-2.1 5-5 5.3l-3.8.3Zm34.5-32v19.2l7.1-.3v-17c0-.7.2-1.4.4-2l-7.5.2Zm.1-43.1v16.7a1288.9 1288.9 0 0 1 7-.2l.1-16.6h-7Zm191 48h-.8l-14.6-2a5.4 5.4 0 0 1-4.6-6.2l7.2-50.4a5.4 5.4 0 0 1 10.6 0l7.6 52.6a5.4 5.4 0 0 1-5.4 6.1Zm-8.6-12 2.3.3-1.2-8.1-1.1 7.8Z" fill="#450F07"></path><path d="M177 46.3c-4.3 25.1-8.4 50.7-12.6 76.5L153 47.4c-15.3.8-30.7 1.6-46 2.6v45.7l8.6-1-.1 84.1-8.6 2.2v47.8c11.8-4 23.6-7.5 35.6-10.7l.2-45.5-8.7 1.9.4-92.7c7.2 45.5 14.3 89.8 21.4 132.9a563 563 0 0 1 10.4-2.5c7.1-46.4 14.3-91.8 21.5-136l-.7 88.4-7.6 1.2-.3 43.6c14-2.9 28-5.3 42-7.2l.3-42.1-9 1 .5-75.6 9-.5.3-40.3c-15.1.4-30.2 1-45.3 1.6Zm136.7-2.9v61l-21.1.2v-22c-6 0-11.9.1-17.8.3l-.1 27.5c7.4-.3 14.8-.4 22.3-.5v15.6c-7.5.1-15 .3-22.4.6v29.8l17.9-.5V133c7.7-.2 15.3-.2 23-.2v63c-25.3-.1-50.5 1.2-75.6 3.9l.2-41.6 8.8-.7.4-73.9-8.8.4.3-39.8c24.3-.5 48.5-.8 72.9-.8Zm89.3 1.4.4 63.1-24-1.6.4-12.8c0-6-2.7-9.2-8-9.4-7.1-.3-10.6 12.9-10.5 39.4.1 21.5 3.6 32.4 10.3 32.9 5.5.4 8.1-4.5 8-14.9v-5.1a780 780 0 0 0-8.3-.6l-.2-22.4c14.1.7 28.2 1.7 42.2 3l.2 23-9.9-1 .5 64.2-12.3-1.6-5.2-13.7-.8 1.6c-4.4 8.8-11.8 12.5-22.1 11.7-11.6-1-19.3-5-23-12.3-3.8-7.3-5.8-21.9-5.8-43.7v-43.3c-.1-23.4 1.8-39.3 5.5-47.6 3.8-8.3 11-12.5 21.6-12.3 9.6.1 15.7 3.7 18.4 10.8v-8l22.6.6Zm107.3 135-7.6-2c-6.1-44.3-12.4-87.5-18.8-129.6l-33.2-1.7-17.2 117.8-8.3-1.2.3 43c12.2 2.1 24.3 4.7 36.4 7.5l-.3-44.5a847 847 0 0 0-10.1-1.9l2.8-21.9 19.4 3.2 2.9 23.5-9.3-1.9.2 44.9c14.5 3.6 28.8 7.7 43 12.2l-.2-47.4Zm-54-51.1 7.3-50.3 7.5 52.4-14.7-2.1Z" fill="#FAC21B"></path><path d="M142.5 218c-12 3.3-23.8 6.9-35.6 10.8v-48l8.6-2.1.1-84.6-8.6 1.2v-3a458 458 0 0 1 27.4-2.7l-.4 84.7 8.7-2-.2 45.8Zm13.3-3.4 10.4-2.4c6.4-42.4 13-83.8 19.5-124.3H170l-5.6 34.5-5.2-34.2c-8.7.3-16.6.8-23.5 1.3l20.1 125.1Zm179-80.7v10.4c.1 22 2 36.5 5.8 43.9 3.8 7.4 11.5 11.3 23 12.3 10.4.8 17.8-3 22.2-11.7l.8-1.6 5.1 13.7 12.3 1.6-.3-46.1a290.7 290.7 0 0 0-24-15.5v.3c0 10.4-2.7 15.3-8 15-6-.5-9.3-8.8-10.2-25a386 386 0 0 0-26.6-12v14.7Zm90.5 39.7.2 32.4c10.9 2 21.6 4.1 32.4 6.6l.6-.2a192 192 0 0 0-33.2-38.8ZM240.1 158l-.2 41.7c25-2.7 50.3-4 75.5-3.8v-63.3c-7.6 0-15.2 0-22.9.2V155l-18 .6.1-30 22.4-.5v-15.7c-7.5 0-14.9.2-22.3.5V99.8c-8.5-2-17-3.9-25.4-5.4l-.4 62.9-8.8.7Zm-52.5-70-.6 76.3-7.6 1.2-.3 43.8c14-2.9 28-5.3 42-7.2l.3-42.3-9 1 .5-71.5c-8.7-.8-17.1-1.2-25.3-1.4Z" fill="#EC8500"></path><path d="M82.2 368.7c-3 0-5.3-2.4-5.3-5.3V339c0-2.6 1.7-4.8 4.2-5.3l.7-.2-.1-32.7a5.4 5.4 0 0 1-5-5.3v-23.3c0-2.1 1.2-4 3.1-5 6.2-2.8 12.5-5.6 18.9-8.3 11.3-4.7 19.2-5.2 24-1.4 4.7 3.5 6.8 11.1 7 24.5.3 9.4-.6 15.7-2.6 19.8a13 13 0 0 1-2.4 3.7c1.3.9 2.4 2 3.3 3.2 1.5 2.3 3.3 6.7 3.6 20.1.3 13.3-1.4 22.2-5.2 27.4-3.9 5.5-11.2 8.8-22.4 10a1950.3 1950.3 0 0 0-21.8 2.5Zm5.4-25.4v14l15.2-1.7c7.7-.9 12.8-2.8 14.8-5.6 1.3-1.8 3.4-7 3.2-21-.3-11.5-1.7-14-1.8-14.3-.3-.3-1.8-1.2-5.7-1.4 2 2.2 3 5.3 3 9.4.3 13.1-7 16.4-11.5 17.2l-2.3.5a5.4 5.4 0 0 1-6.4-5.3l-.2-18.7c0-2.5 1.7-4.7 4.1-5.3l.6-.2a5.4 5.4 0 0 1-4.8-5.2l-.2-16.9c0-2.3 1.5-4.4 3.7-5.1l2.3-.8c4.4-1.5 7.3-.3 9 .9 2.9 2 4.4 5.6 4.5 10.6 0 2-.2 4-.7 6a8.4 8.4 0 0 0 3-3.2c.7-1.4 1.8-5.3 1.6-15-.3-13.9-2.8-16.2-2.8-16.2s-2.8-1.6-13.4 2.8c-5.1 2.2-10.2 4.4-15.3 6.8v12.7c2.7.3 4.9 2.6 4.9 5.3l.2 44.3c0 2.5-1.8 4.8-4.3 5.3l-.7.1Zm18.2-33.2h1.5l-.3-.6-1.7.5h-.2.7Zm429.3 57.5h-.6c-8.4-1-16.8-2-25.2-2.8-.5 0-1-.2-1.6-.4H506l-21-2a5.4 5.4 0 0 1-4.3-2.7l-.6.6a5.4 5.4 0 0 1-4.1 1.4c-13.5-1.2-27.3-2.2-41-3a5.4 5.4 0 0 1-5-5.5l.6-30.8c0-.8.3-1.6.6-2.4a2031 2031 0 0 1 17-31.2L438 287a5.4 5.4 0 0 1-4.4-5.4l.3-13.8a5.4 5.4 0 0 1-5 3.7l-1.8 81.1a5.4 5.4 0 0 1-5.7 5.2l-16.2-.8c-2.5-.1-4.6-2-5-4.5l-1.1-6.3-.1 5a5.4 5.4 0 0 1-5.6 5.3l-21.5-.8c-1.9 0-3.5-1-4.5-2.6l-.7.9c-1 1-2.4 1.5-3.9 1.5L337 355c-.6 0-1.2-.1-1.7-.3a5 5 0 0 1-1.7.2h-21.5c-3 0-5.4-2.5-5.4-5.4v-33.8c0-3 2.4-5.3 5.4-5.3h.2c3.4-29.4 7-58.8 10.5-87.5a5.4 5.4 0 0 1 5.5-4.7c6.8.2 13.7.6 20.5 1 2.6.2 4.7 2.2 5 4.8l9.8 87.5c1.9.1 3.6 1.2 4.5 2.8l.7-.9a5 5 0 0 1 3.7-1.4l.7-48.1h-.4c-2.8-.3-5-2.7-4.9-5.5l.4-31.5a5.4 5.4 0 0 1 6-5.3c8.1 1 16.3 2 24.3 3.4 2.3.3 4 2 4.4 4.3l1.3-1.5c1.2-1 2.8-1.4 4.4-1.1a404 404 0 0 1 21.9 4.4c2.5.5 4.3 2.8 4.2 5.3v.7a5.4 5.4 0 0 1 6.4-3.6 555 555 0 0 1 39.3 11.1c2.3.7 3.8 2.9 3.7 5.2l-.6 28.3a5 5 0 0 1-.8 2.7c-4.8 8-9.8 16.3-14.8 25l10.4 1.9c2.6.5 4.5 2.7 4.4 5.4l-.2 12c1-1 2.4-1.4 3.8-1.3l10.8-66.6a5.4 5.4 0 0 1 7.2-4.2 615 615 0 0 1 18.8 7.6c1.7.7 3 2.3 3.2 4.2 3 23.8 6.1 46.7 9.2 67.9l.7.1c2.5.6 4.3 2.8 4.3 5.3l-.1 24.2c0 3-2.4 5.3-5.4 5.3Zm-19.8-13 14.4 1.6v-13.7c-2.2-.5-4-2.3-4.3-4.5-3-21.5-6.2-44.6-9.3-68.7l-9.4-3.8L505 276c1-1.4 2.6-2.1 4.3-2.1h.1c2.7 0 5 2 5.2 4.7l3.7 31.3a5.4 5.4 0 0 1-3.3 5.6l.4.1c2.3.5 4 2.4 4.2 4.7l1.4 13.4a5.4 5.4 0 0 1-5.4 6l-.3 15Zm-24.4-2.4 10.4 1 .3-16-1.3-.3a5.4 5.4 0 0 1-4.5-5 5.4 5.4 0 0 1-4.5 3.4l-.4 17Zm-50-4 30.3 2.3.7-33-2.4-.5-.2 9a5.4 5.4 0 0 1-6 5.3l-12.5-1.6a5.4 5.4 0 0 1-4-8c8.8-16 17.5-31.3 26-45.3l.5-22.8a522 522 0 0 0-28.2-8l-.7 31.6 1.5.3.2-7a5.4 5.4 0 0 1 6.5-5.2l12 2.8a5.4 5.4 0 0 1 3.5 7.9c-8.7 14.8-17.7 30.9-26.7 48l-.6 24.3Zm-30.9-1.7 6.5.3.5-28a5.4 5.4 0 0 1-10-1.7 144005 144005 0 0 1-14-82c-4.6-.8-9.3-1.5-14-2l-.3 20.6h.5c2 .2 3.7 1.5 4.4 3.3v-2.4a5.4 5.4 0 0 1 10.8-.8 96722 96722 0 0 1 15.6 92.7Zm-32.5-1.3 10.8.3.4-21.8h-1a5.4 5.4 0 0 1-4.9-4c-.8 2-2.8 3.3-5 3.3l-.3 22.2Zm-35-.9 15.1.3.3-22.6a5.4 5.4 0 0 1-4.6-4.7 23010 23010 0 0 0-9.7-87.6l-10.7-.6-2 15.8a5.4 5.4 0 0 1 10.2 1.9l4.1 38.8a5.4 5.4 0 0 1-5.5 6l-8.8-.3a5.4 5.4 0 0 1-5-3.9l-1.2 9c1-1.8 2.9-3 5-3l11.8.4c2.7 0 5 2.1 5.2 4.8l1.5 17.1a5.4 5.4 0 0 1-5.5 5.9h-.1l-.1 22.7Zm-25-.2h10.8l.1-22.8h-.7a5.4 5.4 0 0 1-5.3-5 5.4 5.4 0 0 1-5 4.8v23Zm189.8-16.8.7.1 1.6.6-.3-2.8-1.7-.3-.3 2.4Zm-7.8-17.1-.9 5.2c.8-1.2 2-2 3.4-2.3a4.8 4.8 0 0 1-2.5-2.9Zm-165.8.4h.3l1.7.3 1.2-.2-.5-6.4h-2l-.7 6.3Zm79-52.6 1.5.2c2.4.4 4.2 2.3 4.5 4.7.9-1.9 2.8-3 4.8-3l.4-19.3-11-2.2-.3 19.6Zm-164 98a5.4 5.4 0 0 1-5.3-5.4l-.4-33.1c0-2.9 2.2-5.3 5-5.4h.2l-.6-48.4a5.4 5.4 0 0 1-5.4-5.3l-.5-31.7c0-2.8 2-5.1 4.8-5.4 8.1-1 16.3-1.6 24.5-2.2a5.4 5.4 0 0 1 5.3 3.3 5.4 5.4 0 0 1 4.9-3.9c7.4-.3 15-.5 22.4-.6 3 0 5.4 2.4 5.4 5.4v32.3c0 2.9-2.3 5.3-5.2 5.3l.2 88.6c0 3-2.4 5.4-5.3 5.4l-16.4.2a5.5 5.5 0 0 1-5.4-4.4l-1.2-6.8v6c0 3-2.3 5.4-5.2 5.4l-21.6.6h-.1Zm5-33.5.4 22.5 10.8-.3-.2-22.7h-.6a5.4 5.4 0 0 1-5.2-3.4 5.4 5.4 0 0 1-5 4h-.1Zm9.6-76.5c2.5 0 4.7 1.8 5.2 4.4 6 30.4 12.2 62 18.2 94l6.5-.1V314a5.4 5.4 0 0 1-10.2-1.3c-5.3-28-10.7-55.7-16-82.5l-14.4 1.3.2 21c2.2 0 4.3 1.3 5.1 3.3v-4.3c0-2.8 2-5.1 4.8-5.4h.6Zm6 64v1.1h.1l-.2-1Zm18.7-59.5c2.4 0 4.5 1.6 5.1 3.8.6-2.3 2.7-4 5.2-4v-21.6l-11.4.3.1 21.5h1Z" fill="#450F07"></path><path d="M439.4 238.9c13.1 3.1 26 6.8 38.9 11l-.6 28.3c-8.9 14.5-17.8 30-26.8 46.5l12.5 1.6.4-15.3 13 2.3-.9 43.5a1848 1848 0 0 0-41-3l.6-31c9.2-17.3 18.3-33.8 27.4-49.3l-12-2.7c0 4.5-.2 9-.3 13.4l-12.1-2.3.9-43Zm-313.6 90.4c.2 12-1.2 20-4.2 24.3-3 4.2-9.2 6.7-18.6 7.7l-21 2.5v-24.5l5-1-.3-44.4-4.9 1.8v-23.4c6.1-2.9 12.3-5.6 18.6-8.3 9.4-3.9 15.7-4.5 18.7-2.1s4.7 9.2 5 20.5c.1 8.3-.6 14-2.2 17.4-1.6 3.3 12.3 3.8 7.2 6 5.9.2-7.5 3.8-6 6.2 1.7 2.5 2.6 8.2 2.8 17.3Zm-25-23.4 2.7-.7c4-1.1 5.9-4.6 5.8-10.5-.1-5.7-2.2-7.9-6.4-6.5l-2.3.8.2 17Zm9.8 17.2c0-5.9-2.6-8.2-7.4-7l-2.2.5.2 18.9 2.3-.5c4.9-.9 7.2-4.8 7.1-11.9Zm424 15.4v24.2c-8.4-1-16.8-2-25.3-2.8l.4-26.3 5.4 1-1.4-13.4-11.1-2.5-2 13.3 5.9 1-.4 26.5-21.2-2 .6-28 4.8.8c4-24.7 7.8-48.8 11.7-72.1a596 596 0 0 1 18.5 7.5c3.1 24.7 6.4 48.7 9.7 71.9l4.4.9Zm-22.2-27.6-3.6-31.5-4.8 29.4 8.4 2Zm-209.2-87.5c-7.4 0-14.8.2-22.2.6l.2 32.2 6.3-.2.3 56c-5.5-29.3-11.2-58.5-17-87.4-8 .5-16 1.2-24.1 2l.4 31.9 5.4-.5.7 59.5-5.3.3.4 33.2 21.6-.6-.3-33.6-6.1.2-.7-65.5c6.5 32.6 12.8 65.5 19 98.7l16.4-.2-.3-94.2h5.4v-32.4Zm103.5 39.4 6.2.9-1 52.8-14.6-86.1c-8-1.3-16-2.4-24-3.3l-.5 31.6 5.4.5-.9 58.8-5.3-.3-.4 33 21.5.8.5-32.5-6-.4 1-63.8 16.3 97.3 16.3.8 1.8-87.5 5.3.9.6-29.9a543 543 0 0 0-21.7-4.3l-.5 30.7ZM358.2 317l4.7.3-.4 33.2-26-.5c.2-11.2.2-22.4.3-33.7l5.6.2-1.6-17-11.7-.4-1.8 17.1 6 .1-.1 33.7h-21.6v-34h5l11-92.3c6.8.2 13.6.6 20.3 1 3.5 31 7 61.7 10.3 92.3Zm-18.8-30.5-4.1-39-4.8 38.7 9 .3Z" fill="white"></path><path d="M179.6 225.8a9.9 9.9 0 0 1 8.2-1c13.8 4.9 27.7 9.1 41.4 14 2.8 1 5.2 3.3 6.5 6.5a967 967 0 0 1 20.2 49c1.1 3.2 1.1 6.8 0 10.1-6 16.6-11.9 33.2-18 49.7-1.2 3.2-3.5 6-6.5 7.6-14 7.7-27.8 15.5-42.4 21.7a9 9 0 0 1-8-.7c-12.7-6.9-25.8-12.5-38.7-18.6a11.2 11.2 0 0 1-5.6-6.7 727 727 0 0 1-14.6-48.2 11.5 11.5 0 0 1 0-8.5 690 690 0 0 0 14-42.8 14 14 0 0 1 5.4-7.4c12.6-8.5 25.3-16.7 38.1-24.7Z" fill="black"></path><path d="M177.2 224.7a9 9 0 0 1 7.7-.9c13 4.5 26 8.4 39 12.9a11 11 0 0 1 6.1 6 880 880 0 0 1 19 45.3c1 3 1 6.4 0 9.5-5.6 15.3-11.2 30.7-17 46a13 13 0 0 1-6 7c-13.1 7-26.2 14.3-40 20.1-2.5 1-5.2.7-7.6-.7-11.8-6.3-24.2-11.5-36.4-17.2a10.5 10.5 0 0 1-5.2-6.2c-5.7-16.2-8.8-24.4-13.8-42.2-1-2.5-1-5.3 0-7.8 5.2-13.7 9-28 13.2-42a13 13 0 0 1 5.1-7c11.9-7.8 23.9-15.4 36-22.8Z" fill="#450F07"></path><path d="M177 230.6a8.2 8.2 0 0 1 7-.9c11.9 4.1 23.8 7.7 35.6 11.8a10 10 0 0 1 5.7 5.6 805 805 0 0 1 17.3 41.7c1 2.8 1 5.9 0 8.7-5.1 14.1-10.2 28.2-15.5 42.3-1 2.7-3 5-5.5 6.5-12 6.5-24 13.1-36.6 18.4-2.2 1-4.7.7-7-.6-10.8-5.8-22-10.6-33.2-15.8a9.6 9.6 0 0 1-4.8-5.8c-4.2-12.9-7.8-26-12.6-38.7a9 9 0 0 1 0-7.2c4.8-12.7 8.2-25.8 12.1-38.7a12 12 0 0 1 4.7-6.4c10.8-7.1 21.7-14.1 32.8-21Z" fill="url(#paint0_linear_867_16288)"></path><path d="M178 235.4c2-1.2 4.5-1.5 6.7-.7 10.9 3.8 22 7.1 33 10.9 2.4.9 4.2 2.7 5.2 5 5.5 12.7 11 25.3 15.8 38.1 1 2.6 1 5.4 0 8L224.5 336a12 12 0 0 1-5.1 6c-11.1 6-22.2 11.8-33.8 17-2 .8-4.5.6-6.5-.6-10-5.3-20.4-9.8-30.7-14.5a9 9 0 0 1-4.3-5.2c-3.7-12-7.1-24-11.3-35.6a9.7 9.7 0 0 1-.1-6.8c4-11.9 7.3-24 11-36 .6-2.4 2-4.4 4.1-5.8 10-6.6 20-13 30.3-19Z" fill="url(#paint1_linear_867_16288)"></path><path fill-rule="evenodd" clip-rule="evenodd" d="M180.8 242.3c28.5-2.2 50.9 23 50.7 50.8-.1 25.9-20 60.2-49.8 58.2-28-1.8-43.5-25.3-43.7-52-.1-24.6 15.4-55 42.8-57Z" fill="url(#paint2_linear_867_16288)"></path><path fill-rule="evenodd" clip-rule="evenodd" d="M181.5 244.7c26.9-1.9 48.2 21.9 48 48.2-.1 24.7-19.1 57.4-47.1 55.5-26.4-1.9-41.3-24-41.4-49.4-.1-23.5 14.4-52.4 40.5-54.3Z" fill="url(#paint3_linear_867_16288)"></path><path fill-rule="evenodd" clip-rule="evenodd" d="M180.7 251.2c24.6-1.9 43 19.1 42.9 43-.1 22.2-16.7 51-42.1 49.2-23.7-1.5-37-21.5-37-44-.1-21.2 12.5-46.5 36.2-48.2Z" fill="url(#paint4_linear_867_16288)"></path><path fill-rule="evenodd" clip-rule="evenodd" d="M181.4 253.1c23.3-1.6 40.8 18.2 40.7 40.7 0 21.1-15.8 48.2-40 46.7-22.5-1.4-35-20.5-35.2-41.7 0-20.1 12-44 34.5-45.7Z" fill="url(#paint5_linear_867_16288)"></path><g filter="url(#filter0_f_867_16288)"><path fill-rule="evenodd" clip-rule="evenodd" d="m169.3 325.9-.9-.3c-.5-.5-.7-1.2-.6-1.9.7-5.5-.6-10.2 0-15.7-1.4-1.7-1-1.6-3.1-3.7-2.3-2.1-2.4-6.3-4-8a2 2 0 0 1-.3-1.8c0-.6.5-1.2 1-1.4 4.2-1.4 11.5-1 15.6-2.2l6-15c.2-.6.8-1 1.4-1.1.6 0 0 3 .2 3.6l5.6 12.6c5 .5 13.5.2 18.4.6.7 0-1.1-.7-1 0 .2.7 0 1.5-.4 2-3.6 4.3-6.2 9.7-9.8 13.9l2.6 16.8c.1.8-.1 1.5-.6 2s-1.3.5-1.8.2l-13-8c-4 2.6-10.8 4.3-14.6 7.1a1 1 0 0 1-.7.3Z" fill="#BD7009"></path></g><path d="M165.1 322.2c-.3 0-.7 0-1-.3-.5-.5-.7-1.3-.6-2l2.3-17.9c-3.3-3.7-6.6-7.5-10-11.1-.4-.6-.6-1.3-.4-2a2 2 0 0 1 1.3-1.5c4.6-1.5 9.2-2.8 13.9-4 2.1-5.5 4.3-11 6.6-16.3.2-.7.9-1.2 1.6-1.2.7 0 1.3.4 1.6 1l7.3 15.6L204 284c.8.1 1.4.6 1.6 1.4.2.7 0 1.6-.5 2.2l-12 13.7 3 18.2c.1.8-.2 1.6-.8 2.2a2 2 0 0 1-2 .2l-14.4-8.7a232.7 232.7 0 0 0-13.9 9Zm-4.8-31.9 8.4 9.3c.4.5.6 1.2.5 1.8l-2 14.8c4.3-3 6.4-4.4 11-7.2.4-.4 1-.4 1.6 0l12 7.1-2.5-15c0-.8.1-1.5.6-2l9.9-11.2c-4.6-.4-9.1-.8-13.6-1.4a2 2 0 0 1-1.5-1.1l-6-13-5.5 13.4a2 2 0 0 1-1.3 1.2 204 204 0 0 0-11.6 3.3Z" fill="#FACD5E"></path><path d="m178.4 268.4-7.1 17c-5 1.3-10 2.7-15 4.3 3.7 3.8 7.2 7.8 10.8 11.7l-2.5 18.9c4.6-3.3 9.2-6.3 14-9.3 5.1 3.2 10.3 6.2 15.6 9l-3.2-19 12.8-14.4c-5.9-.5-11.8-1-17.6-1.7l-7.8-16.4Z" fill="url(#paint6_linear_867_16288)"></path><path d="M203.8 286.3a509 509 0 0 1-25.2 7.3l7.6-9c5.9.8 11.8 1.3 17.6 1.7Z" fill="#F8B300"></path><path d="M167.6 301.5c4.4-3.2 6.6-4.7 11.5-7.7a417 417 0 0 0-22.3-4.2c3.7 3.9 7.2 7.9 10.8 11.9Z" fill="#FFC700"></path><path d="m171.7 285.1 6.9 8.5v-25.7l-7 17.2Z" fill="#FFE280"></path><path d="M156.8 289.4c7.5 1.2 15 2.6 22.3 4.2l-7.3-8.4c-5 1.2-10 2.7-15 4.2Z" fill="#FFE280"></path><path d="M179 311.4v-17.3c-4.9 8.8-9.3 17.7-13.8 26.7 4.6-3.3 9.2-6.4 13.9-9.4Z" fill="#F7B100"></path><path d="m191.2 301.1-12.6-7a1790 1790 0 0 0 15.8 26.2l-3.2-19.2Z" fill="#F3A300"></path><defs><filter id="filter0_f_867_16288" x="142.3" y="256.782" width="84.4614" height="87.9228" filterUnits="userSpaceOnUse" color-interpolation-filters="sRGB"><feFlood flood-opacity="0" result="BackgroundImageFix"></feFlood><feBlend mode="normal" in="SourceGraphic" in2="BackgroundImageFix" result="shape"></feBlend><feGaussianBlur stdDeviation="9" result="effect1_foregroundBlur_867_16288"></feGaussianBlur></filter><linearGradient id="paint0_linear_867_16288" x1="7788.78" y1="1083.3" x2="2962.19" y2="12165" gradientUnits="userSpaceOnUse"><stop stop-color="#D68A0F"></stop><stop offset="0.53" stop-color="#D78D0F"></stop><stop offset="1" stop-color="#E9C111"></stop></linearGradient><linearGradient id="paint1_linear_867_16288" x1="3630.75" y1="1252.78" x2="8150.9" y2="11087.6" gradientUnits="userSpaceOnUse"><stop stop-color="#EBC811"></stop><stop offset="0.53" stop-color="#E1AB10"></stop><stop offset="1" stop-color="#D4860E"></stop></linearGradient><linearGradient id="paint2_linear_867_16288" x1="2698.55" y1="1294.08" x2="7895.2" y2="9331.02" gradientUnits="userSpaceOnUse"><stop stop-color="#C17D16"></stop><stop offset="0.51" stop-color="#B56810"></stop><stop offset="1" stop-color="#9E3F06"></stop></linearGradient><linearGradient id="paint3_linear_867_16288" x1="7198.04" y1="2454.03" x2="1065.57" y2="7358.3" gradientUnits="userSpaceOnUse"><stop stop-color="#D5890E"></stop><stop offset="0.23" stop-color="#F1D737"></stop><stop offset="0.34" stop-color="#F7E665"></stop><stop offset="0.45" stop-color="#FDF28D"></stop><stop offset="0.51" stop-color="#FFF79C"></stop><stop offset="0.59" stop-color="#FAEB78"></stop><stop offset="0.69" stop-color="#F4DE4E"></stop><stop offset="0.77" stop-color="#F0D534"></stop><stop offset="0.82" stop-color="#EFD22B"></stop><stop offset="1" stop-color="#D4890E"></stop></linearGradient><linearGradient id="paint4_linear_867_16288" x1="1925.45" y1="1700.3" x2="7012.64" y2="7192.18" gradientUnits="userSpaceOnUse"><stop stop-color="#C17D16"></stop><stop offset="0.51" stop-color="#B56810"></stop><stop offset="1" stop-color="#9E3F06"></stop></linearGradient><linearGradient id="paint5_linear_867_16288" x1="2006.6" y1="1365.64" x2="6556.75" y2="7188.17" gradientUnits="userSpaceOnUse"><stop stop-color="#EDC714"></stop><stop offset="0.475524" stop-color="#E7AC19"></stop><stop offset="1" stop-color="#E3981D"></stop></linearGradient><linearGradient id="paint6_linear_867_16288" x1="156.343" y1="2864.51" x2="4903.6" y2="2864.51" gradientUnits="userSpaceOnUse"><stop stop-color="#FFDE56"></stop><stop offset="1" stop-color="#FFC800"></stop></linearGradient></defs></svg> 