<?xml version="1.0" encoding="UTF-8"?> <svg xmlns="http://www.w3.org/2000/svg" width="125" height="60" viewBox="0 0 125 60" fill="none"><path d="M23.1971 23.198C21.8122 23.198 20.4776 23.6757 19.4703 24.4301V23.9775C19.4703 23.6003 19.2437 23.3992 18.8912 23.3992H17.3803C16.9774 23.3992 16.7256 23.6506 16.7256 24.0529V40.3462C16.7256 40.7485 16.9774 41 17.3803 41H19.3444C19.7473 41 19.9991 40.7485 19.9991 40.3462V35.1917C20.8805 35.7952 22.0136 36.1723 23.1971 36.1723C26.7728 36.1723 29.6938 33.2556 29.6938 29.6852C29.6938 26.1147 26.7728 23.198 23.1971 23.198ZM23.1467 32.8533C21.4344 32.8533 19.9739 31.4201 19.9739 29.6852C19.9739 27.9502 21.4344 26.517 23.1467 26.517C24.8591 26.517 26.3196 27.9502 26.3196 29.6852C26.3196 31.4201 24.8591 32.8533 23.1467 32.8533ZM37.2887 36.1723C34.2669 36.1723 31.8244 33.7333 31.8244 30.7161V24.0529C31.8244 23.6506 32.0762 23.3992 32.4791 23.3992H34.4432C34.8461 23.3992 35.0979 23.6506 35.0979 24.0529V30.7161C35.0979 31.8978 36.08 32.9036 37.2887 32.9036C38.4722 32.9036 39.4542 31.8978 39.4542 30.7161V24.0529C39.4542 23.6506 39.7061 23.3992 40.1089 23.3992H42.0731C42.5011 23.3992 42.753 23.6506 42.753 24.0529V30.7161C42.753 33.7333 40.2852 36.1723 37.2887 36.1723ZM49.8147 32.6773H49.5377C48.8075 32.6773 48.3039 32.1744 48.3039 31.3195V19.0241C48.3039 18.6218 48.052 18.3704 47.6491 18.3704H45.6598C45.2569 18.3704 45.0051 18.6218 45.0051 19.0241V31.2692C45.0051 34.5631 46.39 35.9712 49.4622 35.9712H49.6888C50.0917 35.9712 50.3435 35.7197 50.3435 35.3174V33.331C50.3435 32.9036 50.1924 32.6773 49.8147 32.6773ZM59.7628 24.9329L59.0577 26.1399C58.8563 26.517 58.5038 26.5925 58.1512 26.3913C57.5972 26.1399 57.0181 25.8884 56.4641 25.8884C55.7842 25.8884 55.2806 26.2153 55.2806 26.7182C55.2806 27.2965 55.9605 27.5228 57.1943 28.0005C59.1585 28.7045 60.8708 30.0372 60.8708 32.1493C60.8708 34.2865 59.0829 36.1723 56.2626 36.1723C54.777 36.1723 53.4424 35.6443 52.4603 35.0911C52.1078 34.89 52.0322 34.5882 52.2085 34.2111L52.9136 32.7527C53.0898 32.3756 53.392 32.3001 53.7949 32.451C54.5251 32.803 55.5072 33.1299 56.2375 33.1299C57.0936 33.1299 57.4965 32.6522 57.4965 32.1744C57.4965 31.571 56.867 31.2189 55.3309 30.5903C54.2733 30.1629 52.0574 29.2577 52.0574 26.8439C52.0574 24.6312 53.9208 23.198 56.3382 23.198C57.4713 23.198 58.4786 23.4997 59.511 24.0278C59.8887 24.2289 59.9643 24.5558 59.7628 24.9329ZM72.2007 32.7024H66.7364L72.2762 26.693C72.528 26.4667 72.6036 26.2153 72.6036 25.8884V24.0529C72.6036 23.6506 72.3517 23.3992 71.9489 23.3992H63.0851C62.6822 23.3992 62.4556 23.6255 62.4556 24.0278V25.7124C62.4556 26.1147 62.6822 26.341 63.0851 26.341H68.6501L62.8837 32.3756C62.6319 32.6019 62.5311 32.8533 62.5311 33.1802V35.3174C62.5311 35.7197 62.783 35.9712 63.1859 35.9712H72.2007C72.6287 35.9712 72.8554 35.7197 72.8554 35.3174V33.3562C72.8554 32.9539 72.6287 32.7024 72.2007 32.7024ZM83.5397 36.0919C81.3943 36.0919 79.6417 34.3569 79.6417 32.1996C79.6417 30.0422 81.3943 28.3073 83.5397 28.3073C84.5217 28.3073 85.398 28.6693 86.0779 29.2426C86.2139 29.3482 86.2139 29.484 86.1233 29.6198L85.8211 30.0271C85.7153 30.178 85.5793 30.1931 85.4434 30.0724C84.839 29.5745 84.1591 29.3633 83.5397 29.3633C81.9835 29.3633 80.6993 30.6457 80.6993 32.1996C80.6993 33.7535 81.9835 35.0358 83.5397 35.0358C84.1591 35.0358 84.839 34.8246 85.4434 34.3267C85.5793 34.2061 85.7153 34.2211 85.8211 34.3569L86.1233 34.7643C86.2139 34.9 86.2139 35.0358 86.0779 35.1414C85.398 35.7147 84.5217 36.0919 83.5397 36.0919ZM91.24 28.3073C89.0946 28.3073 87.342 30.0573 87.342 32.1996C87.342 34.3418 89.0946 36.0919 91.24 36.0919C93.3855 36.0919 95.1381 34.3418 95.1381 32.1996C95.1381 30.0573 93.3855 28.3073 91.24 28.3073ZM91.24 29.3784C92.8113 29.3784 94.0654 30.6306 94.0654 32.1996C94.0654 33.7685 92.8113 35.0358 91.24 35.0358C89.6687 35.0358 88.3996 33.7685 88.3996 32.1996C88.3996 30.6306 89.6687 29.3784 91.24 29.3784ZM105.131 28.3073C104.029 28.3073 103.062 28.8655 102.503 29.7103C101.944 28.8655 100.992 28.3073 99.8888 28.3073C98.8916 28.3073 98.0909 28.7599 97.6829 29.3331V28.6995C97.6829 28.5336 97.5772 28.428 97.411 28.428H97.003C96.8368 28.428 96.7311 28.5336 96.7311 28.6995V35.6996C96.7311 35.8656 96.8368 35.9712 97.003 35.9712H97.5167C97.6829 35.9712 97.7887 35.8656 97.7887 35.6996V31.4452C97.7887 30.2987 98.7254 29.3482 99.8888 29.3482C101.052 29.3482 101.989 30.2987 101.989 31.4452V35.6996C101.989 35.8656 102.095 35.9712 102.261 35.9712H102.759C102.926 35.9712 103.031 35.8656 103.031 35.6996V31.4452C103.031 30.2987 103.968 29.3482 105.131 29.3482C106.28 29.3482 107.216 30.2987 107.216 31.4452V35.6996C107.216 35.8656 107.322 35.9712 107.488 35.9712H108.002C108.168 35.9712 108.274 35.8656 108.274 35.6996V31.4452C108.274 29.7103 106.854 28.3073 105.131 28.3073Z" fill="white"></path><path d="M78.032 34.2105C78.032 35.166 77.2262 35.9706 76.2441 35.9706C75.2872 35.9706 74.4814 35.166 74.4814 34.2105C74.4814 33.2299 75.2872 32.4504 76.2441 32.4504C77.2262 32.4504 78.032 33.2299 78.032 34.2105Z" fill="url(#paint0_linear_779_853)"></path><defs><linearGradient id="paint0_linear_779_853" x1="15.4672" y1="38.485" x2="109.255" y2="38.5298" gradientUnits="userSpaceOnUse"><stop stop-color="#C71CB8"></stop><stop offset="1" stop-color="#FE139C"></stop></linearGradient></defs></svg> 